<?xml version="1.0" encoding="utf-8"?>
<!-- Generator: Adobe Illustrator 18.1.0, SVG Export Plug-In . SVG Version: 6.00 Build 0)  -->
<svg version="1.1" id="dryer1" xmlns="http://www.w3.org/2000/svg" xmlns:xlink="http://www.w3.org/1999/xlink" x="0px" y="0px"
	 viewBox="0 0 300 300" enable-background="new 0 0 300 300" xml:space="preserve">
<g id="whole">
	<path fill="none" stroke="#FFFFFF" stroke-width="6" stroke-linecap="round" stroke-linejoin="round" stroke-miterlimit="10" d="
		M286.5,72.8c0-25.3-20.5-45.8-45.8-45.8c-13.4,0-25.4,5.8-33.8,14.9l-64.7-0.2L93.7,26.1c-6.1-2-13.7,2.5-13.7,9v74.7
		c0,6.4,7.5,10.9,13.6,9l48.1-15.1l65.4,0.2c0.4,0.5,1.1,0.9,1.5,1.4L191.1,161l52,16.3l20.4-64.9
		C277.3,104.5,286.5,89.7,286.5,72.8z"/>
	
		<ellipse fill="none" stroke="#FFFFFF" stroke-width="6" stroke-linecap="round" stroke-linejoin="round" stroke-miterlimit="10" cx="246.2" cy="72" rx="27.7" ry="28.2"/>
	<path fill="none" stroke="#FFFFFF" stroke-width="6" stroke-linecap="round" stroke-linejoin="round" stroke-miterlimit="10" d="
		M205.8,165.6c0,0-57.8,56.4-48.8,84.4s117-11.5,117-11.5"/>
	<path fill="none" stroke="#FFFFFF" stroke-width="6" stroke-linecap="round" stroke-linejoin="round" stroke-miterlimit="10" d="
		M218.8,170c0,0-55.7,50.1-46.7,73.4S280,226,280,226"/>
	<g id="air">
		<path fill="none" stroke="#FFFFFF" stroke-width="6" stroke-linecap="round" stroke-linejoin="round" stroke-miterlimit="10" d="
			M15.4,53.6c3.5-6.1,11.4-11.4,18.1-9.6S46,60.1,55.3,60.1s23.5-8.6,25.3-10.9"/>
		<path fill="none" stroke="#FFFFFF" stroke-width="6" stroke-linecap="round" stroke-linejoin="round" stroke-miterlimit="10" d="
			M15.1,71.3c3.5-6.1,11.4-11.4,18.1-9.6s12.5,16.1,21.9,16.1s23.8-8.8,25.5-11.2"/>
		<path fill="none" stroke="#FFFFFF" stroke-width="6" stroke-linecap="round" stroke-linejoin="round" stroke-miterlimit="10" d="
			M16.3,87.8c3.5-6.1,11.4-11.4,18.1-9.6s12.5,16.1,21.9,16.1s22.6-9,24.3-11.4"/>
	</g>
</g>
</svg>
