<?xml version="1.0" encoding="utf-8"?>
<!-- Generator: Adobe Illustrator 18.1.0, SVG Export Plug-In . SVG Version: 6.00 Build 0)  -->
<svg version="1.1" id="p1" xmlns="http://www.w3.org/2000/svg" xmlns:xlink="http://www.w3.org/1999/xlink" x="0px" y="0px"
	 viewBox="0 0 300 300" enable-background="new 0 0 300 300" xml:space="preserve">
<g id="whole">
	<rect id="neck" x="148.6" y="146.5" fill="#FFBF86" width="8.7" height="14.5"/>
	<ellipse id="face" fill="#FFBF86" cx="153.2" cy="103.8" rx="40.1" ry="49.2"/>
	<path id="hair" fill="#FFA00E" d="M197.7,56c0-7.2-6.4-13.1-14.2-13.1c-0.4,0-0.9,0-1.3,0.1c-2.4-9.4-11.6-16.3-22.6-16.3
		c-12.6,0-22.8,9.1-23.2,20.4c-2.9-2.6-6.6-4.1-10.7-4.1c-9.1,0-16.5,7.8-16.5,17.4c0,1.5,0.2,2.9,0.5,4.3c-0.2,0-0.4,0-0.5,0
		c-5.2,0-9.5,4.8-9.5,10.6c0,4.9,2.9,9,6.9,10.2c-0.1,0.8-0.2,1.6-0.2,2.4c0,8.1,4.8,14.7,10.6,14.7c5.9,0,10.6-6.6,10.6-14.7
		c0-4-1.1-7.6-3-10.2c0.3,0,0.6,0.1,1,0.1c8.6,0,15.7-7,16.4-15.8c3.8,3.9,9.1,6.6,15.2,7.1c-1.3,2.6-2,5.4-2,8.5
		c0,11.1,9.5,20.1,21.3,20.1s21.3-9,21.3-20.1c0-4.5-1.6-8.7-4.3-12.1C196,63,197.7,59.6,197.7,56z"/>
	<path id="lowerBody" fill="#FF7746" d="M168.5,209.3c-0.3-2.8-2.6-4.9-5.4-5l-12.7-0.1l-13,0.1c-2.8,0-5.1,2.2-5.4,5
		c-1.8,16.8-12.6,32.3-20.4,41.6c-3,3.6-0.5,9,4.2,9h34.6h34.2c4.7,0,7.2-5.5,4.2-9C181,241.7,170.4,226.2,168.5,209.3z"/>
	<path id="upperBody" fill="#FF073A" d="M178.2,232.7h-55c-6.7,0-11.8-6-10.7-12.6l9.3-57.3c0.9-5.2,5.4-9.1,10.7-9.1H170
		c5.4,0,9.9,4,10.7,9.3l8.3,57.3C189.9,226.8,184.8,232.7,178.2,232.7z"/>
	<path id="leftArm" fill="#A25000" d="M119.7,154.8c-1.5,15.7-8.5,30.1-14,39.2c-2.7,4.5,0.6,10.2,5.8,10.2h14.9
		c3.7,0,6.7-3,6.7-6.7v-42c0-3.7-3-6.7-6.8-6.7h0C122.9,148.8,120.1,151.4,119.7,154.8z"/>
	<path id="rightArm" fill="#A25000" d="M185.5,154.7c1.5,15.8,8.5,30.3,14,39.5c2.6,4.4-0.6,10-5.7,10h-14.9c-3.7,0-6.6-3-6.6-6.6
		v-42.2c0-3.7,3-6.7,6.7-6.6h0C182.4,148.8,185.2,151.3,185.5,154.7z"/>
	<ellipse id="leftFoot" fill="#FF78BD" cx="131.7" cy="266.7" rx="12.8" ry="6.7"/>
	<ellipse id="rightFoot" fill="#FF78BD" cx="167.7" cy="266.7" rx="12.8" ry="6.7"/>
	<g id="leftEye">
		<circle fill="black" cx="139.9" cy="103" r="5.2"/>
		<circle fill="#FFFFFF" cx="139.2" cy="101.4" r="1.3"/>
	</g>
	<g id="rightEye">
		<circle fill="black" cx="167.5" cy="103" r="5.2"/>
		<circle fill="#FFFFFF" cx="168.2" cy="101.4" r="1.3"/>
	</g>
	<path id="mouth" fill="#FFFFFF" d="M143.5,129.5c0.6,4.9,4.7,8.7,9.8,8.7c5.1,0,9.2-3.8,9.8-8.7c0.1-0.7-0.4-1.3-1.2-1.3
		c-3.5,0-13.7,0-17.2,0C143.9,128.3,143.4,128.8,143.5,129.5z"/>
</g>
</svg>
