<?xml version="1.0" encoding="utf-8"?>
<!-- Generator: Adobe Illustrator 18.1.0, SVG Export Plug-In . SVG Version: 6.00 Build 0)  -->
<svg version="1.1" id="scissors" xmlns="http://www.w3.org/2000/svg" xmlns:xlink="http://www.w3.org/1999/xlink" x="0px" y="0px"
	 viewBox="0 0 300 300" enable-background="new 0 0 300 300" xml:space="preserve">
<g id="whole">
	<circle fill="none" stroke="#FFFFFF" stroke-width="8" stroke-miterlimit="10" cx="153" cy="145.7" r="9.4"/>
	<path fill="none" stroke="#FFFFFF" stroke-width="6" stroke-linecap="round" stroke-linejoin="round" stroke-miterlimit="10" d="
		M150.2,136.7c0,0,22.2-68.3,20.2-86.3l-0.9-8.5c-0.4-3.7-5-5.1-7.4-2.3c-6.3,7.2-15.4,17.6-16.8,20.2
		c-6.4,11.3-35.8,99.9-30.8,143.3c7.3,64.7,64.7,69.3,82,52.7s-6.7-50-33-46.7s-16.3,9.3-16.3,9.3"/>
	<path fill="none" stroke="#FFFFFF" stroke-width="6" stroke-linecap="round" stroke-linejoin="round" stroke-miterlimit="10" d="
		M160.3,139.7c0,0,47.2-54.1,63.7-61.6l10.5-4.8c2.5-1.1,5.1,1.2,4.3,3.8c-1.7,5.5-4.4,20.8-10.3,30
		c-21.8,33.6-66.5,79.2-106.7,97.5c-59.3,26.9-92.7-19.9-87.3-43.3s46.3-20,57,4.3s0.4,18.8,0.4,18.8"/>
</g>
</svg>
