<?xml version="1.0" encoding="utf-8"?>
<!-- Generator: Adobe Illustrator 18.1.0, SVG Export Plug-In . SVG Version: 6.00 Build 0)  -->
<svg version="1.1" id="e-timeline" class="svgC" xmlns="http://www.w3.org/2000/svg" xmlns:xlink="http://www.w3.org/1999/xlink" x="0px" y="0px"
	 viewBox="0 0 960 560" enable-background="new 0 0 960 560" xml:space="preserve">
<g id="entireGroup">
	<g id="hline">
		<line x1="74" y1="270" x2="915" y2="270"/>
		<g>
			<g>
				<g>
					<g>
						<path fill="#202020" d="M915,277.5c0.4-1,0.2-3.4-1-2.9l-0.9,4L915,277.5z"/>
						<path fill="#202020" d="M906.8,270.1c-1.4,1.9-3.1,5.3-2.2,9c1.4-3.8,1.8-2.2,3.3-6.8c1.2-0.5,2.1,1.3,1.9,2.7
							c0.4-1,1.9,0.9,2.6-1.6c-1.6-3.1-3.6-3.2-5.7-0.7C906.3,271.9,906.7,270.9,906.8,270.1z"/>
						<path fill="#202020" d="M787.5,263.9l0.8,0.5C788.1,264.1,787.8,264,787.5,263.9z"/>
						<path fill="#202020" d="M713.6,261.8c0.6-0.1,0.8-0.5,0.8-0.8C713.9,261.2,713.5,261.4,713.6,261.8z"/>
						<path fill="#202020" d="M701,257.4c0.3,0.1,0.5,0.2,0.7,0.3C701.5,257.3,701.2,257.1,701,257.4z"/>
						<path fill="#202020" d="M787.5,263.9l-2-1.2C785.4,264,786.6,263.6,787.5,263.9z"/>
						<path fill="#202020" d="M890.3,279.7c0.4-0.2,0.8-0.6,1.1-1c-0.3,0.2-0.7,0.3-1,0.4C890.4,279.3,890.4,279.5,890.3,279.7z"/>
						<path fill="#202020" d="M820.1,260.7l0.6,0c0.2-0.5,0.3-1,0.5-1.6L820.1,260.7z"/>
						<path fill="#202020" d="M845.1,260.1c-0.6-0.1-0.8,3.2-1,4.7c0.3-1.4,0.7-2.1,1.2-2.3C845.4,261.9,845.3,261.1,845.1,260.1z"
							/>
						<path fill="#202020" d="M884.7,266l0.7-0.5C885.3,265.7,885,265.9,884.7,266z"/>
						<path fill="#202020" d="M802.2,260c0-0.5-0.1-0.9-0.2-1.2C802,259.2,802.1,259.6,802.2,260z"/>
						<path fill="#202020" d="M103,285.3c0-0.2,0-0.4,0-0.6C102.8,285.1,102.8,285.3,103,285.3z"/>
						<path fill="#202020" d="M74,268.6l0.4-0.2c0-0.6,0.1-1.3,0.1-1.9L74,268.6z"/>
						<path fill="#202020" d="M677.9,253.1c0,0,0.1,0,0.1,0.1C678.6,252.7,678.3,252.8,677.9,253.1z"/>
						<path fill="#202020" d="M466,255.5c2.4,3-3.9,3.9-0.3,7.2C465.3,261.4,469,257.5,466,255.5z"/>
						<path fill="#202020" d="M889.7,279.3c-0.3,0-0.7,0.1-1,0C889.1,279.4,889.5,279.4,889.7,279.3z"/>
						<path fill="#202020" d="M465.7,262.8C465.7,262.8,465.7,262.8,465.7,262.8l0.4,0.3C465.9,263,465.8,262.9,465.7,262.8z"/>
						<path fill="#202020" d="M624.7,255.1c0.1,0.6,0.3,1,0.5,1.5C625.2,256.2,625.1,255.8,624.7,255.1z"/>
						<path fill="#202020" d="M664.4,259.9l-1-0.5C663.8,259.7,664.1,259.8,664.4,259.9z"/>
						<path fill="#202020" d="M604.1,259.8c-0.5-0.3-0.7-0.7-1.4-0.3c0.1,0.2,0.1,0.3,0.2,0.4C603.2,259.5,603.5,259.3,604.1,259.8z
							"/>
						<path fill="#202020" d="M582.7,259.9c0.1,0.3,0.3,0.5,0.4,0.7c0.2-0.1,0.5-0.1,0.7-0.2L582.7,259.9z"/>
						<path fill="#202020" d="M168.1,283.7c-0.5-0.9-0.8-2-1-3C167.4,283.1,164.3,283.9,168.1,283.7z"/>
						<path fill="#202020" d="M890.3,277.8c-0.1,0.8-0.3,1.3-0.6,1.5c0.2,0,0.5-0.1,0.7-0.2C890.5,278.6,890.5,278.1,890.3,277.8z"
							/>
						<path fill="#202020" d="M603.3,286.5l-3.4-0.5C600.8,286.3,602.1,286.5,603.3,286.5z"/>
						<path fill="#202020" d="M321.7,283.2l-0.8,0.4C321.3,283.7,321.5,283.6,321.7,283.2z"/>
						<path fill="#202020" d="M589.8,286.5c-0.6-1.2-1.3-1.9-1.9-2.3c-0.1,0.3-0.3,0.5-0.4,0.9L589.8,286.5z"/>
						<path fill="#202020" d="M167.1,280.6C167.1,280.7,167.1,280.7,167.1,280.6C167.1,280.7,167.1,280.7,167.1,280.6z"/>
						<path fill="#202020" d="M144.7,288.7c3.2,0.1,1.5-4.3,2.2-6.9c3.9-1.3,1.8,3.3,3.1,5.5c2.4-1.2,4.3-5.2,6.1-5.1
							c0.1,0.7,0.5,1,0.1,1.9c2.6-3.5,7.6-0.2,10.6-4.6c0.2,0.4,0.3,0.8,0.4,1.1c-0.5-2.2-0.6-4.5-0.5-6.1c1.5-0.1,2.7-2.8,3.2,0.1
							c-0.9-0.1-1,1.1-1.4,2l1.5-1.3c1.4,4.2-2.1,1.4-2.1,4.5c3-1.4,6.4-4.8,8.7-3.6c0.5,4.1-5.3,1.4-2.3,5l-3.5-1.6
							c2.7,6.4-2.1-0.4,0.3,6.4c4.6,1.2,5.2-2.1,9.8-0.9c1-2.3-0.3-3.3,0.7-5.6c6.6-4.1,5.2,10.2,10,4.8c1.3-2.7,1.7-7.9,5.2-5.1
							l-1.2,4.6c4.5,0.5,2.6-6.6,7.3-3.5c-0.8,1.8-3.5,1.5-2.8,2.1c3,3.6,2.2-2.6,4.5-2.6l0.5,4.1c4.8-0.6,10-3.6,15.3-4.3
							c-0.3,1.2-1.2,2.5,0,3.7c6.7-2,14.2,0.5,20.7,2.9l2.5-3.5c0.6,0,1.1,1.6,0.4,2.3c2.5,1.3,0.1-2.2,1.3-3.6c1.4-0.2,1.9,2,1,3.1
							c4.4-3,12.6-6.4,17.3-2.7l-0.9,1c3.6,1.4,4.1-7.2,7.5-3.9l-0.6,0.6c7.9,1.5,16.6-1.7,22.6,3.6c1.1-5.1,7.8,2.3,8.3-4.8
							c4.5,3.5,3.2,4.8,9.6,7.1c1.7,0.3,2.5-4.4,4.6-5.2l0.1,3.7l2.8-3.9l1.5,4.4l2-0.9c-0.8-0.2-1.7-1.7-1.5-2.7
							c3.1-1.7,7.5,2.6,7.6,4.5l7.3-3.1c-0.2,1.5-1.4,2-2.3,2.9c3.9-3.8,0.7,3.9,4.3,0.4c-0.5-0.8,0.3-2.2,0.3-3
							c1.8,2.2,5.8,2.3,8.8,1.3l-0.6,2.5c5.4,0.7,11.3-1.2,17.4-1.2c-2.2-1.2-1.7-5.6,0.1-6l0.7,3.9c1.1-2.4-1.8-1.5,0.5-4.4
							c2.3,0.5,1.5,4.4,0.2,5.7l2.7-1.4c0.2,1.2-0.5,1.8-0.6,3.3c1.1-2.4,4.7,3.9,6.4-0.3l0.2,1.2c6,0,8.8-1.3,13.7-1.5
							c0.1-3.4,2-2.6,3.5-5.4c3.6,1.1,7.6,3.7,12,3.4c3.1-1.7,0.9-2.9,2.3-4.9c0.2,3.1,4.6,2.8,2.3,5c5.2-0.5,6.7-0.6,13.3-3.1
							c-0.7-1.3-1.5-1.8-1.1-2.9c1.2-0.5,2.7,1.3,2.6,2.8l-0.3,0.3c7.4-4.6,17.1,9,23,2.6L443,284l6.1-3.3c2.8,0.5-1.7,2.3,0.4,4.2
							c6.6-5.1,10.4,0.7,15.9-2.7c4.2,9.1,14.9-0.6,20.6,5.2l-0.3-2.1c1.5-2.1,1.8,1.2,2.9,1.7c-0.2-1.7-1.6-1.9-0.7-3.1
							c12.4-2.6,25.7,3.1,38.5,5c4.7,0.6,2.6-11,8.5-5.9l-1.7,4c9.4-4.8,19.3,0.2,28.5-3.9c-0.5,0.9-0.6,2.1-1.5,2.1
							c1.9,2.9,7.2,0.1,7.2-2.2c1.4,0.3,0.3,2.1,1.2,3.3c2,1.7,4.9-3.7,5.9-0.8c0.2,0.5-0.5,0.9-0.9,1.2c1.3-1.4,5.9,0.4,4.7-3
							c3.5,1.6,6.6-1.5,9.4,0.5c1.8-3.7,5.9,1.8,6.5-3.5c-0.2,5.4,6.1,4.4,8.3,1.8c-0.7,1.6,1.9,1.7,1,4c2.5-0.1,4.8-1.1,4.4-3.9
							c4.6,6.5,9.2-5.2,11.8,3.1c7.4-2.9,14.3-4.9,21-6.2c-0.2,5.4-7.4,0.5-7.1,6.2c6.3-2.2,10-6.9,16.3-5.6
							c1.6,0.7-0.9,2.3-1.5,3.3c6.3-2.2,12.2,0.5,17.9-2.5c0,0.5-0.6,1.1-1.2,1.5c1.1-0.2,2.6,0.8,2.5-1.7l-1.1,0.7
							c-1.8-3.6,4.4-7.5,4.6-9.3c-1.9,7.1,5.6,1.8,2.6,10.7c0.7-0.5,1.6-1.6,1.5-3.3c1.1,0.5,1.4,1.4,0.3,3.3c4-1.3,2.6-4,6.2-3.9
							c0,1.2-0.7,1.7-1.1,3.1c1.8-2.3,3.7-4.6,6.7-3.6c-0.2,0.7,0.2,1.7-0.7,1.6c5.2-0.4,8.9-6.2,14.6-3.9c-1.7,5.2,1.9,1.7,2.3,6.2
							l3.1-1.3l-1.2-2.2c2.7,0.1,5.1-3.2,7.4-1.7l-2,1.8l5.1-0.8l-2.9-1.7c2.7-2.3-0.3-5.7,3.3-4.4c-0.7,0.5,2.7,0.1,4.1,2.7
							c0,0,0,0,0,0c1.3-1.4,2.7-2.9,4.7-1.8c0.5,1.4-0.4,5-0.1,5.9c1.3-3.7,6.3-1,8-5c-0.6,0.9-0.6,3.3-0.4,3.8l1.1-3
							c1.3,1,1.4,1.4,1.2,3.3c3.8,0.6-1.2-5.7,3.3-3.2c-0.4,0.2-0.2,0.7-0.9,1.2c4.5,1.3,8.7-1.9,12.8-0.4c1.2,4.5-3.6,1.1-2.2,4.9
							c5.9-0.8,12.3-5.4,18-4.3l-1.1-0.5c0.8-6.4,4.3,3.1,7.2,0.1c-0.7,0.5-0.9,3.5-0.7,2.8c3.9,1,8-1.6,14-3.6l-0.7,1.6
							c2.3,1.5,6.1,0.8,8.6,1.6c0.7-1.6,2.2-1.4,1.3-3.7c7.7,9.3,14.7-5,21.6,2.8c-0.8,0-2,1.4-1.3,1.4l5.8-1.5
							c-0.5-2.8-0.8-1.7-2-3.8c0.7-1.6,2.4-2.9,3.8-2.9c-2.6,1.8,0,4.5,1.2,6c-0.2-0.8,0.2-1.8,0.1-2.7c3.1,4.9,0.5-5.6,4.7-2.3
							l-0.2,1.5c1.6-0.7,3-2.7,4.7-2.3c0.7,3.2-1.7,1.5-1.8,4.1c2.4-0.2,4.7-6.1,6.8-2.9c-1,0.9-2.4,0.9-3.4,1.8
							c2.3,3.8,2.6,2.8,4.3,3.4l-0.2-0.1l4,1.7l-1-1c3-8.4,6-1.5,10-7c-3.9,5.2-0.6,3-0.9,6.6c1,1,2.6,2.1,2.1,3.2
							c1.9-2.9,3.1,2.3,5.8-2c0.1,1.2,2,0.1,1.6,3.1c2.4-0.9-0.6-2-0.4-3.5c3.8-4,8.9,4.8,14.3-0.6c4.7-2.3,5.5-6.2,9.9-8.2
							c1.5,1.9-1.2,4.3-1.2,4.3c2.4,1.7,4.1,1.4,6.4,0.1c-0.5,1,0,1.9,0.7,3.2c1.8-0.3,1.2-4.3,3.6-2.5c-0.4,1.3-0.9,3.4-1.8,4.7
							c2.1-1.1,4.2-3.3,6.4-4.3c0.6,2-1.3,3.1-2.1,4.4c2.4-0.9,6.3-1.9,7.1-5.1l-1.6-1.2c0.9-0.2,0.5,2.8-0.2,3.4
							c-2.1,2.5-3-1.1-3.1-2.3l1.6-0.8c-1.6-6.9-6.2,1.1-9.4,0.7l1.3-5l-3.2,4.1c-0.7-1.3-1.1-4.1,0.4-4.8c-2.2-2.5-2,1.8-3.9-1
							c-0.2-0.4-0.1-0.7,0.1-0.9l-2.2,1.5c0.4-1-0.4-3.5,1-2.8c-3.9-2.9-6.3,3.7-7.8,0l0.3-0.3c-5.5,1.7-0.5,3.7-4.6,8l-2.8-9
							l-0.5,3.7c-0.6-0.1-1.7-0.4-1.5-1.9c-2.1,2.5,0.4,1.6-0.9,4c-2.7-3.3-7.5,1.6-8.1-4.3c-1,2.8,2.6,2.1-0.3,4.1
							c-0.8-6.3-3.3,1.1-5.8-1.8c0.8-3.2,3.1-1.5,0.6-4.4c-1.5,5.5-4.8-1.2-6.9-0.2c-0.1,4.4-4.5,1.8-8,3.3c0.2-1.5-6.6-2.4-9.8-4
							l0.1-0.7c-0.6,4.4-4,3.6-6.4,4.5c0.1-2.6,0.5-3.7,1.9-4.9l-2.3,0c-0.5,1.4-1.3,2.2-2.8,2.7l0.6-3.3c-3.1,0.2-6.2,3.9-10.1,1.7
							c-0.2,3.1,3.1,8.6-1,10.6c-0.2-1.7-0.3-4.5,0.8-5.2c-0.4,0.2-1.3,1.4-2,0.7l1.7-2.8c-1.8-1.2-0.9,2.3-2.4,2.1
							c0-2.4-1.1-1.7-0.9-3.6c0.4-0.2,1.3,1,1.8,0c-1.6-0.4-3.6-1.8-4.2-3.6c0.1,1.3,0,3.2-1.2,3.5c-3.1,0.2-1-2.9-2.8-4.1
							c-0.7,1.6-2.7-0.1-2.7,3.5c-0.9,0-1.1-1.7-1.4-2.6c-1.6,1.6-7.4,0.4-5.6,4.2l0.4,0.2c-0.1,0.1-0.2,0.1-0.3,0.2c0,0,0,0,0,0h0
							c-5.2,3.5-10.8-2-15.9-0.5l0-1.2c-3.1,1.4-6.8,0.8-9,3.3c-0.9,0-2.1-2.2-1.8-3.6c-2.3,0.9-2.6,2.2-6,0.3
							c2.4-2.1-0.8-1.8,2.4-1.5c-3.1-1-3.7-2.9-7,0.3c1.1-3-2.3-3.8-3.8-2.9l2.1,2.2c-1.6,0.4-3.1,0.2-4.5-0.1l0.8-4
							c-6.2-4.9-11.3,8.3-16,0.1c-1.7,2.8,3.4,2,1.9,5.2c-2.9-0.5-5.9-6.3-6.8-6.3c-3.9-2.2-3.7,5.8-7.8,4.3c0.5,1.4,1,5.2-2.1,6.6
							c-2.9-0.5-3.5-6-1.7-7.1c0.7-0.1,1,0.3,1,0.8c0.9-0.5,2.1-1.1,1-2.7l-0.4,1.4c-1.4-1.5-5.4-1.3-4.5-3.6
							c-2.2,1.4-0.9,2.3,0.7,3.1c-3.7-2.1-5.8-0.1-9.6-1.4c0.6,0.8,1.2,2.5,0.6,2.4c-5.6-1.8-2.5,2.7-6.2,3.3
							c-2.1-2.2,0.8-5.2-3-3.4c-2.3-1.5-0.5-3.8,0.4-4.9c-3.5,2.7-6.5-1.8-8.4-2.3l1.8-1.1c-1.1,0.7-2,0.7-2.9,0.7l1,2.8
							c-1.1-0.5-2-0.5-2-1.7c-1.1,1.9,0.8,4.7-1.3,7.3c-1.4-1.4-4.3,1.6-4.8-2.2c4.5,1.3-0.5-3.8,3.3-4.4c-0.7,0.5-1.6,0.4-2.7-0.1
							c-0.2-0.4,0.2-0.8,0.4-1c-4.3-3.4-2,4.3-6.4,4.2c0.6-2.1-1-4-1.8-3.6c1.8,0,0.9,3.6-0.8,5.2c-2.9-1.7-3.1,1.2-4.6,1l1.7,0.8
							c-0.6,2.1-2,1.9-4,2.5c-0.2-1.7,1.8-1.1,1.1-1.9c-2.2,3.7-5-3.9-8.1-1.4c-1.4-1.4-0.1-4-1.4-5c-3.5,2.8-3.7-2.9-7.4-0.6
							c1,2.9,1.2,2.2-1.3,5l6-2l-3.8,4.2c1.8,0,3.8-1.8,4.9-1.3c-1.8,2.3-1.6,1.6-0.8,4c-2.5-4.3-4.9,2.5-7.7-0.4l0.1-7.1
							c-4.3-3.2-7.6,3.6-13.2,1.9l1.8,1.2c-0.7,2.8-3.4,0.4-5.2,1.5c0.2-2.4-1-3.2-1.7-4.7c0.1,1.8-4.1-0.2-4.6,4.6l-2.5-3.1
							c-4.5-1.3-5.1,6.8-9.4,5.9c1.3-2.6-0.7-4.3,2.2-6.1c-1.4,0-2.7-0.5-2.8,1.2c-0.8-1.5-4,3.2-5.3,0.9c-0.6,1-0.8,3.5-2.4,3.3
							c-0.2-0.5,0-1.2,0-1.2c0,1.2-2.5,1.6-1.1,4.2c-4.4-7.4-12.4,0.5-16.3-5.8c-3.1,0.8-6.9,1.6-9.8,1.7c0.2-0.7,0-1.2,0.5-0.9
							c-3.9-2.2-2.4,6.8-6.9,4.3c-2.3-3.8,2.4-2.1,1-3.5c-0.6-7.8-5.4,1.1-8.4-3.5l0.7-0.5c-2.3-2.6-5.6,3-9.4,2.4
							c0,0,0.2-0.7,0-1.2c-2.6,4-7.4,5.3-11.1,6.4c1.1-3,1.6-1.6,1-4.7c-1.6,0.4,0.5,5-2.8,5.8c-1.1-1.7-3.4-3.1-3.7-6.4l3.1-0.2
							c-1.6-4.3-4,0.1-5.6-0.6l0.2-1.9c-4.7,0.6-4.8,5.3-9.8,5l0.5,1.4c-2.8,4.7-2.3-2.6-5.1,0.8l-0.8-4.7c-1.8,1.1-6.4,4.6-9.6,5.5
							c1.8-3.5,5.7-5.3,8-7.4c-1.8,0-6.1,0.3-7.1,2.7c0.7-0.5,1.6-1.6,2.4-0.9c-2.2,3.7-5.1,5.6-8.7,5.5c0.6-9.2-9.3-2.3-12-9.4
							c-6.3,3.4-12.6-1.5-20-0.9c2.6,7.1-2.2,0.2-1.7,7.5c-1.7,0.5-2.4,0.4-2.5-0.1l-5.2-4.4c-1.2-2.1,1.6-1.6,1.5-3.3
							c-3.8-0.6-1.6-3.1-4.1-5.1c0.5,2.6-1.3,3.8-3.5,2.8l3,3.4c-5.3,3.9-4.6-6.2-9.9-2.3l1.7-2.3c-2.7,1.4-10.1,0-12.7,5.8
							c-0.5-0.8-1.1-2.9,0.1-3.4c-6.5-0.9-14.5,6.3-19.6,2.6l0.5-1.8c-1.2,0.5-2.1,3.4-3.6,1.6c0.1-0.7,0.5-1.8-0.1-1.9
							c-0.6,0.6-3.2,3.1-4.8,2.1l1.4-2c-6.4-2.3-9.7,4.9-15.1,6.1c0-5.3-5-7-7.5-7.9l0.1-0.7c-7.4-0.7-12.6,4.4-19.4,6.5
							c-4.3-5.7-14.4-2.4-21.2-5.6c1,1-0.2,4.1-1.4,4.6c-1.6-1.1-4.4,3.7-4.2-1.2l0.6,0.1c-1.2-4.8-4.5-3.5-7.1-3.6l-0.4,6.3
							c-6.7-9.2-17.6,3.4-21.3-4.9c-1.6,1.6-3.6,1.6-5.2,3.2l0.1-3.4c-4.5-0.9-6.7-1.3-12.3-0.5l1.1-2.4c-3.1-0.2-4,9.8-6.9,10
							l-0.9-5.1c-5.5,0.1-11-4.4-16.4,0.2c0.1-0.7,0.2-2.2,1.1-2.4c-2.6-0.1-10-3.4-9,3.5c-0.1-4.5-5.6-0.4-8.6,1.6l0.5-3.3
							c-2.5,4.3-2.6,5.4-6.1,6.6c-0.8-0.4-0.7-2.7,0.4-1.8c-2.8-1.8-2.1,3.2-5.5,1.4l1.2-2.1c-2.8-0.3-2.6,0.9-4.2,3.4
							c-1.8,1.3-5.4-0.8-5.8-3.9c-0.4,1.8-1.9,4.3-3.6,3.4c-0.2-1.1,0.4-1.9,0.7-2.2c-4.7-2.3-7,3.9-10.3,0.6
							c-0.1-1.1-0.3-1.7-0.5-2c3.8,0.1,6.8,0.3,6.5,0.5c0-3.1-3-3.6-0.6-7.9c-2.4,2.3-6.6,7.4-9.6,5.9c-0.1-0.3-0.3-0.6-0.4-1.1
							l0.3-0.3c-0.7-0.3-1.3,0-1.9,0.5c-0.9-0.5-1.5-0.9-2.5-0.9c-0.4-2.5-3.5-1.4-5-1.5c0.1,3.4-1.9,2.8,0,5.6
							c-0.2-0.2,0.3-0.4,1.3-0.5c0.2-0.1,0.5-0.2,0.6-0.3c0,0.1-0.1,0.2-0.1,0.3c1-0.1,2.3-0.2,3.8-0.2c-1.2,1.7-2.4,3.2-4.1,1.3
							c-0.8,2.2-1.6,4.4-2.1,5.4c-2.1-4.7-6.1-7.2-6.6-10.1c-4.6,1.9-10.9,1.2-13.8,7.6c-1.3,0.8-1.5-1.8-2-2.8
							c0.8-0.6,1.7-0.5,2.1-1.4c-2.6,1.6-7.8,0.6-8.4,5.1c-3.3-2,1.9-4.1-2.7-3.4l0.6-1.4c-9-7.1-14.6,11.3-24.5,2.2
							c0.7,0.6,1,0.8,1.2,1.6c-11.3-4-23.3,3.8-34.5-2.6c-3.2-1.3-3.5,1.5-5.5,3.7l-0.7-3.6l-3.3,4.2c-4.7,3.1-8.1-8.9-14.1-3.1
							l0.8,2.4c-2.1-0.5-6.8,1.4-6.4-1.4c-0.2,0.4-0.7,2.5-1.5,1.3l-0.1-1.9l-5.2,3.2c-4.1-1.4,0.6-7.5-5.3-7.9
							c-2.2,0.7-6.3,5.5-5.5,6.8c0.9,0.1,2.3,1.2,2.3,3.1l-2,1c-0.4,5.6-1.9,11.3,3,15.2l3.5-3.4L82,283l-2.9,0.2
							c1.6,2.5,2.7,0.3,3.9-1.3c0.3,1.4,0.8,2.4,1.4,3l3.4-5.3c0.4,2.2-1.5,4.3,0.8,5.5c1.6-2.5-1.5-4.9,1.1-6.5
							c1.7,2.5,1.2,4.6,3.1,2.4c0.3,1.4-0.1,2.4-0.9,3c1.7-1.7,4.6-0.7,5.5-3.7c1.7,3.1,5.8-0.8,5.7,4.5c0.5-1.3,3-4.2,4.6-4.4
							c-2.9,6.3,5.9,0.4,5.2,7.2c2.1-5.7,7.7-2.5,11.5-5.7c-0.2,0.5-0.6,1.4-1,1.1c2.1,0.5,2.8,2.2,4.1,3.3c0.3-4.7,3.6-5.8,5.4-8.7
							c2.6,4.5-1.6,5.5-0.8,9.9c-0.1-3.8,4.6-3.8,3.7-7c2,2.8,1.7,1.4,2.8,5.3c0.4-5.9,1.9-1,3.5-4.6c2.9,2.9,0.7,5.5,3.9,3.7
							C147.5,286.6,144.7,288.7,144.7,288.7z M220.4,278.5C220.4,278.5,220.4,278.5,220.4,278.5c-0.7,0.1-1.2,0.2-1.6,0.3
							C219.2,278.7,219.6,278.6,220.4,278.5z M226.8,278.4c-0.8-0.1-1.7-0.2-2.8-0.1c-0.2-1.2,0-2.4,0.7-2.3
							C224.3,276.8,225.8,277.5,226.8,278.4z M213.3,255.1c1-0.5,1.3,0.2,1.5,0.9c-0.5,0.1-1,0.2-1.8,0.4c0,0.1-0.1,0.3-0.1,0.4
							C213,256.1,213.1,255.5,213.3,255.1z"/>
						<path fill="#202020" d="M211.5,259.5c-0.1,0.1-0.2,0.2-0.4,0.2c0.2,0.3,0.4,0.6,0.6,0.8c0.1-0.4,0.2-0.7,0.4-1.1
							C211.8,259.5,211.7,259.5,211.5,259.5z"/>
						<path fill="#202020" d="M788.4,264.5l-0.1-0.1c0.1,0.1,0.2,0.3,0.3,0.5C788.5,264.7,788.5,264.6,788.4,264.5z"/>
						<polygon fill="#202020" points="314.6,284.9 314.6,284 314.1,284.8 						"/>
						<path fill="#202020" d="M823.5,276.1c0.1,0.3,0.2,0.6,0.5,0.9C823.9,276.7,823.7,276.4,823.5,276.1z"/>
						<path fill="#202020" d="M838.6,276.8l2.1,1.2C839.8,277.3,839.2,277,838.6,276.8z"/>
						<path fill="#202020" d="M850.3,278.5c0.1-0.6,0.2-1,0.2-1.4c0,0,0,0,0,0L850.3,278.5z"/>
						<path fill="#202020" d="M665.2,282.5c-0.2,0-0.3,0.1-0.4,0.2C663.7,283.3,664.4,283,665.2,282.5z"/>
						<path fill="#202020" d="M720.2,274.6c-0.6,0.6-1.2,1.2-1.8,1.6C719.5,276.4,720.2,276.5,720.2,274.6z"/>
						<path fill="#202020" d="M603.6,286.5C603.7,286.5,603.6,286.5,603.6,286.5c-0.1,0-0.2-0.1-0.4-0.1L603.6,286.5z"/>
						<path fill="#202020" d="M715.9,276.1c1,0.7,1.8,0.5,2.6,0.1C717.7,275.9,716.7,275.6,715.9,276.1z"/>
						<path fill="#202020" d="M900.7,280l0.6,0.1c0-0.2,0-0.4,0.1-0.5L900.7,280z"/>
						<path fill="#202020" d="M901.4,279.6l0.6-0.4C901.7,279.2,901.4,279.2,901.4,279.6z"/>
						<path fill="#202020" d="M903.3,278.4l-1.3,0.8C902.4,279.2,903,279.3,903.3,278.4z"/>
						<path fill="#202020" d="M885.3,278.5l-0.2,1.2C885.2,279.4,885.3,279,885.3,278.5z"/>
						<path fill="#202020" d="M880.6,278.8c1.1,0.3,2.8,2.6,4.4,1.8l0.1-1C884.4,281.5,881.7,276.8,880.6,278.8z"/>
						<path fill="#202020" d="M861.1,263.7l3.9,1c-0.7-1.3-1.6-3.1,0.2-3.4C860.3,257.4,866.2,264.2,861.1,263.7z"/>
						<path fill="#202020" d="M848.9,261.8c2.1-0.6,0-1.9,0.1-2.6C847.7,260.4,847.3,260.7,848.9,261.8z"/>
						<path fill="#202020" d="M761,261.8l0.2-3.1C759.6,259.2,761.2,259.9,761,261.8z"/>
						<polygon fill="#202020" points="744.2,277.7 745.7,279.6 746.5,276.8 						"/>
						<polygon fill="#202020" points="734.2,255.8 734.9,255.4 732.2,256.5 						"/>
						<path fill="#202020" d="M586.5,256.9l0.5,3.8C588.1,260,588.4,255.7,586.5,256.9z"/>
						<path fill="#202020" d="M522.8,260.7c-0.7-1.9-2.5-3.1-3.6-1.2C520.6,259.7,522,261.2,522.8,260.7z"/>
						<polygon fill="#202020" points="331.6,254.6 332.8,253.3 330.4,254.4 						"/>
					</g>
				</g>
			</g>
		</g>
	</g>
	<g id="time1">
		<circle id="h1" fill="#FF0000" stroke="#F7931E" stroke-width="12" stroke-miterlimit="10" cx="118" cy="269.7" r="27.3"/>
		<text transform="matrix(1 0 0 1 104.3332 269.6667)" font-family="'MyriadPro-Regular'" font-size="12">Text1</text>
	</g>
	<g id="time2">
		<circle id="h2" fill="#FF0000" stroke="#F7931E" stroke-width="12" stroke-miterlimit="10" cx="438" cy="269.7" r="27.3"/>
		<text transform="matrix(1 0 0 1 424.9998 269.6664)" font-family="'MyriadPro-Regular'" font-size="12">Text2</text>
	</g>
	<g id="time3">
		<circle id="h3" fill="#FF0000" stroke="#F7931E" stroke-width="12" stroke-miterlimit="10" cx="792" cy="269.7" r="27.3"/>
		<text transform="matrix(1 0 0 1 777.6665 269.4997)" font-family="'MyriadPro-Regular'" font-size="12">Text3</text>
	</g>
	<g id="desc3">
		<polygon id="d3" fill="#998675" stroke="#F7931E" stroke-width="6" stroke-miterlimit="10" points="510,199.2 770.3,199.2 
			792,225.4 792,199.2 792,20.4 510,20.4 		"/>
		<text id="d2t" transform="matrix(1 0 0 1 526.6665 53)" font-family="'MyriadPro-Regular'" font-size="12">Description 1</text>
	</g>
	<g id="desc2">
		<polygon id="d2" fill="#998675" stroke="#F7931E" stroke-width="6" stroke-miterlimit="10" points="720,341 459.7,341 438,315 
			438,341 438,518.3 720,518.3 		"/>
		<text id="d3t" transform="matrix(0.9917 0 0 1 449.333 375.3086)" font-family="'MyriadPro-Regular'" font-size="12.1006">Description 1</text>
	</g>
	<g id="desc1">
		<polygon id="d1" fill="#998675" stroke="#F7931E" stroke-width="6" stroke-miterlimit="10" points="400,197.7 139.7,197.7 
			118,223.7 118,197.7 118,20.3 400,20.3 		"/>
		<text id="d1t" transform="matrix(1 0 0 1 135.6665 53)" font-family="'MyriadPro-Regular'" font-size="12"></text>
	</g>
	<rect x="32" y="458.3" fill="none" width="117.3" height="76.7"/>
	<text id="dwhole" transform="matrix(1 0 0 1 32.0002 466.8525)"><tspan x="0" y="0" font-family="'MyriadPro-Regular'" font-size="12">Education Timeline</tspan><tspan x="0" y="28.8" font-family="'MyriadPro-Regular'" font-size="12">2008-2010 SDSU</tspan><tspan x="83.1" y="28.8" font-family="'MyriadPro-Regular'" font-size="12" letter-spacing="22">	</tspan><tspan x="0" y="43.2" font-family="'MyriadPro-Regular'" font-size="12">2011-2012 TTU</tspan><tspan x="0" y="57.6" font-family="'MyriadPro-Regular'" font-size="12">2013-2014 SDSU</tspan></text>
</g>
</svg>
