<?xml version="1.0" encoding="utf-8"?>
<!-- Generator: Adobe Illustrator 18.1.0, SVG Export Plug-In . SVG Version: 6.00 Build 0)  -->
<svg version="1.1" id="IronMan" xmlns="http://www.w3.org/2000/svg" xmlns:xlink="http://www.w3.org/1999/xlink" x="0px" y="0px"
	 viewBox="0 0 960 560" enable-background="new 0 0 960 560" xml:space="preserve">
<g id="IornMan">
	<g id="IronManColor">
		<polygon fill="#6D3522" points="102.1,141 92.6,150.3 68.4,167.8 28.9,167.8 15.3,123.6 109.7,23.1 113.2,32.5 115.1,41.4 
			117.3,54.7 114.1,102.1 109.7,115.6 		"/>
		<polygon fill="#DFBB24" points="24.1,143.5 21,141.2 17.2,129.6 12.3,120.4 20.5,131.2 25.5,140.1 		"/>
		<polygon fill="#DFBB24" points="76.3,137 68.4,144.1 61.9,139.3 64.7,132 66.4,128.9 72.1,120.6 78.6,112.3 98.7,93.3 95.9,100.1 
			85.9,112.6 81.9,117.8 78.7,123.1 76.9,129.2 		"/>
		<polygon fill="#6D3522" points="93,76.1 88.5,68.7 58.1,21.1 6.5,27.3 11.4,21.3 19,14.5 32.9,6.2 42.5,2.7 48.7,1.2 56.5,0.1 
			64.3,0 72.8,1.3 89.1,5.8 99.4,10.7 104.2,14.5 109.7,22 102.2,40.7 98.6,49.7 		"/>
		<rect x="45.7" y="75.1" fill="#4899C3" stroke="#000000" stroke-width="2" width="43.3" height="19.4"/>
		<rect x="3.9" y="78.6" fill="#4899C3" stroke="#000000" stroke-width="2" width="27.4" height="17.7"/>
		<polygon fill="#6D3522" points="69.6,92.3 54.6,92.8 49.6,92.2 48.7,88.1 50.3,87.3 51.8,89.5 54.2,90.8 66.2,90 72,89 75.3,86.9 
			79.5,84.8 83,83 87.1,83.4 74.5,90.5 		"/>
		<polygon fill="#6D3522" points="24.7,93.8 17,94.5 10.1,94.1 7.1,92.9 2.9,90 1.2,81.9 6.1,84.8 6.7,87.5 7.9,90 10.3,91.4 
			20.5,91.8 25.2,92.3 		"/>
		<polygon fill="#EDCB48" points="61.9,139.3 25.5,140.1 17.6,126.9 14.5,122.3 5.5,108.5 3.8,101.3 3,91.4 2.9,89.5 5.4,91.8 
			10.1,94.1 17,94.5 24.7,93.8 26.5,89.7 49,88.1 49.6,92.2 57.7,92.8 70.5,92.3 87.1,83.4 93.2,76.5 100.1,90 94.8,96.7 
			78.6,112.3 71.3,121.7 65.1,130.8 		"/>
		<polygon fill="#FEE361" points="93,76.1 87.3,83.1 83,83 78.9,78.1 52.7,85.5 48.5,88.1 26.5,89.7 23.5,87.3 5.5,84.2 0.7,81.4 
			0.1,61.4 0,56 1.8,42.9 3.3,34.1 6.4,28.1 15.3,21.2 22.9,17.3 29.5,14.9 27.2,23.1 30.6,22.4 58.9,21.3 64.3,11.5 81,16.9 
			94.8,25.6 93.2,41.4 88.5,68.7 		"/>
		<polygon fill="#D4872F" points="23.5,50.8 24.6,36.7 27.2,23.1 31.3,22.2 		"/>
		<polygon fill="#C35B26" points="48.6,49.5 36.2,51.9 23.5,50.8 31.3,22.2 41.5,19.7 58.9,21.3 		"/>
	</g>
	<g id="IronManPath">
		<path fill="none" stroke="#000000" stroke-width="2" d="M3,90.7C3.6,96,3.3,101.1,4.6,106c1.1,4.2,4.3,7,5.9,10.8
			c1.2,2.9,3.3,5.4,4.8,8.1c2.9,5.4,13.6,42.9,13.6,42.9h39.5c0,0,14.4-11.1,20.7-15c5-3,13-11.9,13-11.9s4.5-18.8,8.3-26.8
			c1.7-3.5,3-8.5,4.1-14.3c0,0,0.3-0.3,0.4-0.3c0.2-0.2,0.4-0.3,0.6-0.7c0.3-0.4,0.6-0.9,0.8-1.3c0.2-0.3,0.3-0.6,0.4-0.9
			c0.2-0.4,0.5-1.2,0.6-1.5c0.2-0.7,0.4-1.1,0.4-1.5c0-0.1,0.7-2.8,1.1-6c0.2-1.4,0.4-3,0.4-4.5c0.1-0.6,0.1-1.3,0.1-1.9
			c0.1-1.1,0.1-2.4,0.1-3.6c0-2.5-0.2-5-0.5-7.3c-0.5-4.6-1.3-8-1.3-8s0.1-2.6,0.1-3.8c0-4.5-2-10.2-2.5-14.2
			c-2.6-22.1-8.2-31.3-23.1-37.1C84.4,4.2,71.8,0,60.7,0C40.8,0,18.5,10.4,6.5,27.3c-4.4,6.3-4.1,13.3-5.7,21.1
			c-1.9,9.2,0,19.5,0,30.1C0.9,82.8,2.5,86.5,3,90.7z"/>
		<path id="right-eye" fill="none" stroke="#000000" stroke-width="2" d="M50.9,87.6c0,0,0.3,1,0.9,1.9c0.7,0.8,1.7,1.4,2.4,1.7
			c0.9,0.3,2.7,0.2,4.6,0c2.6-0.3,5.2-0.7,6.1-0.8c4-0.1,9.1-2,9.1-2l9.8-4.9l-4.2-5.2c0,0-9.8,3.2-14.7,4.7
			c-3.9,1.1-11.7,3.1-11.7,3.1L50.9,87.6z"/>
		<path id="left-eye" fill="none" stroke="#000000" stroke-width="2" d="M6.1,84.8c0,0,0.7,5.3,2.9,6.2c4.3,1.6,16.7,1.2,16.7,1.2
			l0.7-2.5l-2.6-1.9L6.1,84.8z"/>
		<ellipse fill="#D4872F" stroke="#000000" stroke-width="2" cx="113.4" cy="78.1" rx="6" ry="22.1"/>
		<ellipse fill="#C35B26" stroke="#000000" stroke-width="2" cx="115.1" cy="78.6" rx="4.3" ry="17.7"/>
		<path fill="none" stroke="#000000" stroke-width="2" d="M105.7,127.8l-0.6-2.6c-0.4-1.9-1.3-5-2.1-6.9l-7.1-18.1l-9.7,20.7
			l-8.1,15.8l-1.1,2.6l-8.6,8.2l-8.7-5.3l-30.8,0.2l-2,0.8l-1,2.9l-5.4-6.7"/>
		<path fill="none" stroke="#000000" stroke-width="2" d="M100.1,90l-4.2,9.9l-4.6,6.1l-6.9,8.5c-1.3,1.5-3,4.2-4,6l-1.6,3
			c-0.9,1.8-1.8,4.8-2,6.8l-0.5,6.7l-8.3,7.5l-6.1-5.2l-36.4,0.8l-1.3,4"/>
		<path fill="none" stroke="#000000" stroke-width="2" d="M26.2,158.2l3.7-3.8l7.5-0.3l0.9-2.4l9.7-0.3l0.6,2.6h8.8l15.3,4.6
			l19-17.5l-7.9,5.4l-7-7.4"/>
		<path fill="none" stroke="#000000" stroke-width="2" d="M97.9,130.4c0.4-1.4,1.2-2.3,2-2.1c0.7,0.2,1.1,1.4,0.7,2.8
			c-0.4,1.4-1.2,2.3-2,2.1C97.9,133,97.5,131.8,97.9,130.4z"/>
		<path fill="none" stroke="#000000" stroke-width="2" d="M89.6,6.2l-2.3,2.3c-1.4,1.4-3.4,3.9-4.5,5.6L81,16.9l4.5,2.3
			c1.8,0.9,4.5,2.7,6.1,3.9l3.1,2.4l-0.1,3.2c-0.1,2-0.3,5.2-0.6,7.1l-1.4,9.2l-1.2,8c-0.3,1.9-0.8,5.1-1.2,7.1l-1.7,8.6l4.7,7.8
			l3.9-20.9c0.4-1.9,1.1-5.1,1.7-7l0.8-2.5c0.6-1.9,1.7-4.9,2.5-6.7l7.5-17.4"/>
		<path fill="none" stroke="#000000" stroke-width="2" d="M72.8,1.3l-3.3,3.5L65.8,9l-1.5,2.5l10.7,3.2l6.2,2.3"/>
		<path fill="none" stroke="#000000" stroke-width="2" d="M5.5,28.8l9.7-7.6l3.8-6.8"/>
		<path fill="none" stroke="#000000" stroke-width="2" d="M15.3,21.1l4.3-2.4c1.7-1,4.8-2.3,6.7-2.9l3.1-1l0.5-1.3
			c0.7-1.9,2.1-4.8,3.1-6.5l0.8-1.3"/>
		<path fill="none" stroke="#000000" stroke-width="2" d="M29.5,14.8l-1.5,4.4l-0.7,3.9c0,0,8.9-3.1,14.3-3.5
			c5.3-0.3,17.6,1.5,17.6,1.5l5.2-9.6"/>
		<path fill="none" stroke="#000000" stroke-width="2" d="M27.2,23l-1.7,8.5c-0.4,1.9-0.9,5.1-1,7.1l-1,12.3c0,0,8.1,1.3,12.3,1.1
			c4.2-0.2,12.9-2.4,12.9-2.4l4-12.5l2.7-7.5c0.7-1.9,2-4.8,2.8-6.6l0.8-1.5"/>
		<polyline fill="none" stroke="#000000" stroke-width="2" points="31.4,21.7 27.9,33.8 23.5,50.8 28.3,51.5 37.3,52 48.6,49.5 
			50.3,44.2 54.2,32.7 		"/>
		<path fill="none" stroke="#000000" stroke-width="2" d="M100.1,90.1l-0.5-1.9l-6.4-11.7l-6.1,6.9l-13.2,7.4
			c-1.7,1-4.9,1.8-6.9,1.8l-7.3,0.1l-5.1,0.1c-2.1,0-5-0.6-5-0.6l0,0L48.9,88l-22.8,1.2l-1.3,4.6l-3,0.4c-2,0.2-5.3,0.4-7.4,0.3
			l-2.5-0.1c-2.1-0.1-4.9-1.2-6.4-2.6l-2.6-2.3"/>
		<path fill="none" stroke="#000000" stroke-width="2" d="M1.2,81.9l4.4,2.3l8.3,1.6l9.7,1.5l2.5,1.9L49,88.1l3.7-2.5l11.7-3.1
			L74.9,79l4.2-1.4l4.3,5.3l3.9,0.1"/>
		<path fill="none" stroke="#000000" stroke-width="2" d="M100.1,90l-1.5,2.1c-1.2,1.6-3.3,4-4.8,5.4l-3.7,3.3l-6.2,5.8l-4.3,4.5
			c-1.4,1.4-3.5,3.9-4.7,5.5l-7.7,10.4c-1.2,1.6-2.7,4.4-3.3,6.3l-2,5.9"/>
		<path fill="none" stroke="#000000" stroke-width="2" d="M9.6,115l5.7,8.6l5.1,7.6l3.3,6.3l1.8,2.8"/>
		<path fill="none" stroke="#000000" stroke-width="2" d="M94.8,25.6c0,0,2-3.7,3.3-5.2c1.4-1.5,2.1-1.7,2.1-1.7
			c1.7-1.1,4.5-1.2,6.3-0.2l1.7,0.9"/>
		<path fill="none" stroke="#000000" stroke-width="2" d="M50.3,87.3l0.3,0.6c0.8,1.8,3,3.1,5,2.9l11.5-1.2c2.1-0.2,5.1-1.1,7-2
			l9.3-4.5"/>
		<path fill="none" stroke="#000000" stroke-width="2" d="M5.5,84.4l0.8,3.3c0.5,1.9,2.5,3.5,4.6,3.6l14.4,0.4"/>
	</g>
</g>
</svg>
