<?xml version="1.0" encoding="utf-8"?>
<!-- Generator: Adobe Illustrator 18.1.0, SVG Export Plug-In . SVG Version: 6.00 Build 0)  -->
<svg version="1.1" id="Layer_1" xmlns="http://www.w3.org/2000/svg" xmlns:xlink="http://www.w3.org/1999/xlink" x="0px" y="0px"
	 width="2562px" height="500px" viewBox="0 0 2562 500" enable-background="new 0 0 2562 500" xml:space="preserve">
<rect x="2436" y="369" fill="none" width="110" height="74"/>
<text transform="matrix(1 0 0 1 2436 377.5195)" font-family="'ArialMT'" font-size="12">End</text>
<rect x="1199.8" y="354.8" fill="none" width="141" height="54"/>
<text transform="matrix(1 0 0 1 1199.811 363.3486)" font-family="'ArialMT'" font-size="12">Middle</text>
<g>
	<path fill="#3FA9F5" d="M0,0v345.3c70-60,196-212.1,310-178.1s157,150.9,277,159.9s336-16,428-86s260-141,335-138s248,382,332,272
		s233-313,341-205s400.5,272,468.5,225s69.5-122,69.5-122V0H0z"/>
	<circle id="sun" fill="#FBB03B" cx="144.5" cy="185.5" r="64.5"/>
	<path fill="#8CC63F" d="M2491.5,395c-68,47-360.6-117-468.6-225S1766,265,1682,375s-257-269-332-272s-243,68-335,138
		s-308,95-428,86S423.9,201.1,309.9,167.1S69.7,285.5-0.3,345.5L0,500h2561V273C2561,273,2559.5,348,2491.5,395z"/>
	<path id="bikePath" fill="none" stroke="#754C24" stroke-width="9" stroke-miterlimit="10" d="M0,375c0,0,40-35.3,79.3-33.3
		s174,28,221.3,26.7s170.2-30.2,200-42s34.4-9.9,34.4-9.9l205.6,8c0,0,140.7,45.3,167.3,21.3c26.7-24-31.2-44.8-31.2-44.8
		s57.2-113.2,110.5-57.2c53.3,56,144.7,70.7,220,49.3c75.3-21.3-55.1-31.3-73.5-54s-42.4-23.3-23.1-56.6
		c19.3-33.4,20.6-46.7,93.9-17.4s98,63.3,128,32.7s78-42-14.7-60.7s-122-35.3-80-40s179.4,61.1,179.4,61.1s121.4,59.5,0,86.2
		s-135.4,85.3-80.1,99.3s207.3,70.7,258.7,59.3s96-4,123.3,12s236.7,10,256.7-25.3s50-2,97.3-70.7s103.3-2,166,24.7
		s87.3,46.7,88.7,56c1.3,9.3,32,18,32,18s41.3,2,63.3-3.3s23.9-10.5,23.9-10.5l23.3-0.3"/>
	<path id="bike" fill="#FFFFFF" stroke="#000000" stroke-miterlimit="10" d="M84.7,330.4c-3.7,0-7.2,1-10.1,2.6
		c-9.2-9.1-24.6-16.3-44.9,1.4c-3.2-2.5-7.3-4-11.8-4c-9.9,0-18,7.4-18,16.5s8.1,16.5,18,16.5c9.9,0,18-7.4,18-16.5h30
		c0,9.1,8.4,16.5,18.7,16.5c10.4,0,18.7-7.4,18.7-16.5S95.1,330.4,84.7,330.4z"/>
</g>
<path fill="#FFFFFF" stroke="#000000" stroke-miterlimit="10" d="M491,79.4c0-18.5-19.9-33.5-44.5-33.5c-7.4,0-14.4,1.4-20.6,3.8
	c-3.9-4.7-10.4-7.8-17.7-7.8c-10.9,0-20,7-21.5,16c-0.1,0-0.2,0-0.2,0c-31.8,0-57.5,17.9-57.5,40s25.7,40,57.5,40c0.4,0,0.8,0,1.2,0
	c8.4,8.5,21.6,14,36.3,14c25.4,0,46-16.2,46-36.3c0-2.5-0.3-5-1-7.4C482.2,102.4,491,91.7,491,79.4z"/>
<path fill="#FFFFFF" stroke="#000000" stroke-miterlimit="10" d="M550.2,154.1c0-9.2-9.9-16.6-22.1-16.6c-3.7,0-7.2,0.7-10.2,1.9
	c-2-2.3-5.2-3.9-8.8-3.9c-5.4,0-9.9,3.5-10.7,8c0,0-0.1,0-0.1,0c-15.8,0-28.6,8.9-28.6,19.9s12.8,19.9,28.6,19.9c0.2,0,0.4,0,0.6,0
	c4.2,4.2,10.7,7,18,7c12.6,0,22.9-8.1,22.9-18c0-1.3-0.2-2.5-0.5-3.7C545.8,165.5,550.2,160.2,550.2,154.1z"/>
<path fill="#FFFFFF" stroke="#000000" stroke-miterlimit="10" d="M551.7,97.9c0-5.3-5.7-9.7-12.8-9.7c-2.1,0-4.2,0.4-5.9,1.1
	c-1.1-1.4-3-2.3-5.1-2.3c-3.2,0-5.8,2-6.2,4.6c0,0,0,0-0.1,0c-9.2,0-16.6,5.2-16.6,11.5c0,6.4,7.4,11.5,16.6,11.5c0.1,0,0.2,0,0.3,0
	c2.4,2.5,6.2,4,10.5,4c7.3,0,13.3-4.7,13.3-10.5c0-0.7-0.1-1.4-0.3-2.1C549.2,104.5,551.7,101.4,551.7,97.9z"/>
<path fill="#FFFFFF" stroke="#000000" stroke-miterlimit="10" d="M1412,58.4c0-18.5-19.9-33.5-44.5-33.5c-7.4,0-14.4,1.4-20.6,3.8
	c-3.9-4.7-10.4-7.8-17.7-7.8c-10.9,0-20,7-21.5,16c-0.1,0-0.2,0-0.2,0c-31.8,0-57.5,17.9-57.5,40s25.7,40,57.5,40c0.4,0,0.8,0,1.2,0
	c8.4,8.5,21.6,14,36.3,14c25.4,0,46-16.2,46-36.3c0-2.5-0.3-5-1-7.4C1403.2,81.5,1412,70.7,1412,58.4z"/>
<path fill="#FFFFFF" stroke="#000000" stroke-miterlimit="10" d="M1471.2,133.2c0-9.2-9.9-16.6-22.1-16.6c-3.7,0-7.2,0.7-10.2,1.9
	c-2-2.3-5.2-3.9-8.8-3.9c-5.4,0-9.9,3.5-10.7,8c0,0-0.1,0-0.1,0c-15.8,0-28.6,8.9-28.6,19.9s12.8,19.9,28.6,19.9c0.2,0,0.4,0,0.6,0
	c4.2,4.2,10.7,7,18,7c12.6,0,22.9-8.1,22.9-18c0-1.3-0.2-2.5-0.5-3.7C1466.8,144.6,1471.2,139.3,1471.2,133.2z"/>
<path fill="#FFFFFF" stroke="#000000" stroke-miterlimit="10" d="M1472.7,76.9c0-5.3-5.7-9.7-12.8-9.7c-2.1,0-4.2,0.4-5.9,1.1
	c-1.1-1.4-3-2.3-5.1-2.3c-3.2,0-5.8,2-6.2,4.6c0,0,0,0-0.1,0c-9.2,0-16.6,5.2-16.6,11.5c0,6.4,7.4,11.5,16.6,11.5c0.1,0,0.2,0,0.3,0
	c2.4,2.5,6.2,4,10.5,4c7.3,0,13.3-4.7,13.3-10.5c0-0.7-0.1-1.4-0.3-2.1C1470.2,83.6,1472.7,80.5,1472.7,76.9z"/>
<path fill="#FFFFFF" stroke="#000000" stroke-miterlimit="10" d="M1841.3,192.4c0,0-6.5,86.6,19.5,43.6s31-44,31-44s7,80,31,44
	s28-44,28-44s14,94,33,44s24-53,24-53s33,69,34,42s-19.1-55-19.1-55l-6-5.6c0,0-13.8-11.3-14.8-11.1s-12-9.1-30.4-12.3
	s-21.2-2.7-31.9-0.6s-30,7-44.2,14.9c-14.2,7.9-23.1,12.4-29.1,17.7S1841.3,192.4,1841.3,192.4z"/>
<path fill="#FFFFFF" stroke="#000000" stroke-miterlimit="10" d="M1889.5,144.8"/>
<path fill="#FFFFFF" stroke="#000000" stroke-miterlimit="10" d="M2431.8,158.1c0-18.5-19.9-33.5-44.5-33.5
	c-7.4,0-14.4,1.4-20.6,3.8c-3.9-4.7-10.4-7.8-17.7-7.8c-10.9,0-20,7-21.5,16c-0.1,0-0.2,0-0.2,0c-31.8,0-57.5,17.9-57.5,40
	s25.7,40,57.5,40c0.4,0,0.8,0,1.2,0c8.4,8.5,21.6,14,36.3,14c25.4,0,46-16.2,46-36.3c0-2.5-0.3-5-1-7.4
	C2423,181.1,2431.8,170.4,2431.8,158.1z"/>
<path fill="#FFFFFF" stroke="#000000" stroke-miterlimit="10" d="M2491,232.8c0-9.2-9.9-16.6-22.1-16.6c-3.7,0-7.2,0.7-10.2,1.9
	c-2-2.3-5.2-3.9-8.8-3.9c-5.4,0-9.9,3.5-10.7,8c0,0-0.1,0-0.1,0c-15.8,0-28.6,8.9-28.6,19.9s12.8,19.9,28.6,19.9c0.2,0,0.4,0,0.6,0
	c4.2,4.2,10.7,7,18,7c12.6,0,22.9-8.1,22.9-18c0-1.3-0.2-2.5-0.5-3.7C2486.6,244.2,2491,238.9,2491,232.8z"/>
<path fill="#FFFFFF" stroke="#000000" stroke-miterlimit="10" d="M2473.2,197.5c7.3,0,13.3-4.7,13.3-10.5c0-0.7-0.1-1.4-0.3-2.1"/>
</svg>
