<?xml version="1.0" encoding="utf-8"?>
<!-- Generator: Adobe Illustrator 18.1.0, SVG Export Plug-In . SVG Version: 6.00 Build 0)  -->
<svg version="1.1" id="Layer_1" xmlns="http://www.w3.org/2000/svg" xmlns:xlink="http://www.w3.org/1999/xlink" x="0px" y="0px"
	 width="2562px" height="500px" viewBox="961 -10 2562 500" enable-background="new 961 -10 2562 500" xml:space="preserve">
<g id="contents">
	<rect x="3397" y="359" fill="none" width="110" height="74"/>
	<text transform="matrix(1 0 0 1 3397 367.5195)" font-family="'ArialMT'" font-size="12">End</text>
	<rect x="2160.8" y="344.8" fill="none" width="141" height="54"/>
	<text transform="matrix(1 0 0 1 2160.811 353.3486)" font-family="'ArialMT'" font-size="12">Middle</text>
	<g>
		<path fill="#3FA9F5" d="M961-10v345.3c70-60,196-212.1,310-178.1s157,150.9,277,159.9s336-16,428-86s260-141,335-138
			s248,382,332,272s233-313,341-205s400.5,272,468.5,225s69.5-122,69.5-122V-10H961z"/>
		<circle id="sun" fill="#FBB03B" cx="1105.5" cy="175.5" r="64.5"/>
		<path fill="#8CC63F" d="M3452.5,385c-68,47-360.6-117-468.6-225c-108-108-256.9,95-340.9,205S2386,96,2311,93s-243,68-335,138
			s-308,95-428,86s-163.1-125.9-277.1-159.9s-240.2,118.4-310.2,178.4L961,490h2561V263C3522,263,3520.5,338,3452.5,385z"/>
		<path id="bikePath" fill="none" stroke="#754C24" stroke-width="9" stroke-miterlimit="10" d="M961,365c0,0,40-35.3,79.3-33.3
			c39.3,2,174,28,221.3,26.7c47.3-1.3,170.2-30.2,200-42c29.8-11.8,34.4-9.9,34.4-9.9l205.6,8c0,0,140.7,45.3,167.3,21.3
			c26.7-24-31.2-44.8-31.2-44.8s57.2-113.2,110.5-57.2s144.7,70.7,220,49.3c75.3-21.3-55.1-31.3-73.5-54s-42.4-23.3-23.1-56.6
			c19.3-33.4,20.6-46.7,93.9-17.4s98,63.3,128,32.7s78-42-14.7-60.7s-122-35.3-80-40s179.4,61.1,179.4,61.1s121.4,59.5,0,86.2
			c-121.4,26.7-135.4,85.3-80.1,99.3s207.3,70.7,258.7,59.3s96-4,123.3,12s236.7,10,256.7-25.3s50-2,97.3-70.7s103.3-2,166,24.7
			s87.3,46.7,88.7,56c1.3,9.3,32,18,32,18s41.3,2,63.3-3.3s23.9-10.5,23.9-10.5l23.3-0.3"/>
		<path id="bike" fill="#FF0000" d="M1064.6,326.6c-1-8.5-8.9-14.9-18.6-14.9c-0.8,0-1.7,0-2.5,0.1c-3.5,0.4-6.9,1.6-9.7,3.6
			c-6.1-4.7-12.4-7.1-18.8-7.1c-8.8,0-17.4,4.6-25.7,13.5c-3.6-2.1-7.8-3-12.1-2.5c-10.1,1.2-17.5,9.7-16.5,19
			c1,8.5,8.7,14.9,18,14.9c0.8,0,1.5,0,2.3-0.1c4.9-0.6,9.3-2.8,12.4-6.4c3-3.5,4.4-7.7,4.1-12.1l28.8-3.3
			c1.2,8.2,9.1,14.4,18.5,14.4c0.8,0,1.7,0,2.5-0.1c5.1-0.6,9.7-2.9,12.9-6.5C1063.6,335.6,1065.1,331.1,1064.6,326.6z"/>
	</g>
	<path fill="#FFFFFF" stroke="#000000" stroke-miterlimit="10" d="M1452,69.4c0-18.5-19.9-33.5-44.5-33.5c-7.4,0-14.4,1.4-20.6,3.8
		c-3.9-4.7-10.4-7.8-17.7-7.8c-10.9,0-20,7-21.5,16c-0.1,0-0.2,0-0.2,0c-31.8,0-57.5,17.9-57.5,40s25.7,40,57.5,40
		c0.4,0,0.8,0,1.2,0c8.4,8.5,21.6,14,36.3,14c25.4,0,46-16.2,46-36.3c0-2.5-0.3-5-1-7.4C1443.2,92.4,1452,81.7,1452,69.4z"/>
	<path fill="#FFFFFF" stroke="#000000" stroke-miterlimit="10" d="M1511.2,144.1c0-9.2-9.9-16.6-22.1-16.6c-3.7,0-7.2,0.7-10.2,1.9
		c-2-2.3-5.2-3.9-8.8-3.9c-5.4,0-9.9,3.5-10.7,8h-0.1c-15.8,0-28.6,8.9-28.6,19.9s12.8,19.9,28.6,19.9c0.2,0,0.4,0,0.6,0
		c4.2,4.2,10.7,7,18,7c12.6,0,22.9-8.1,22.9-18c0-1.3-0.2-2.5-0.5-3.7C1506.8,155.5,1511.2,150.2,1511.2,144.1z"/>
	<path fill="#FFFFFF" stroke="#000000" stroke-miterlimit="10" d="M1512.7,87.9c0-5.3-5.7-9.7-12.8-9.7c-2.1,0-4.2,0.4-5.9,1.1
		c-1.1-1.4-3-2.3-5.1-2.3c-3.2,0-5.8,2-6.2,4.6c0,0,0,0-0.1,0c-9.2,0-16.6,5.2-16.6,11.5c0,6.4,7.4,11.5,16.6,11.5
		c0.1,0,0.2,0,0.3,0c2.4,2.5,6.2,4,10.5,4c7.3,0,13.3-4.7,13.3-10.5c0-0.7-0.1-1.4-0.3-2.1C1510.2,94.5,1512.7,91.4,1512.7,87.9z"/>
	<path fill="#FFFFFF" stroke="#000000" stroke-miterlimit="10" d="M2373,48.4c0-18.5-19.9-33.5-44.5-33.5c-7.4,0-14.4,1.4-20.6,3.8
		c-3.9-4.7-10.4-7.8-17.7-7.8c-10.9,0-20,7-21.5,16c-0.1,0-0.2,0-0.2,0c-31.8,0-57.5,17.9-57.5,40s25.7,40,57.5,40
		c0.4,0,0.8,0,1.2,0c8.4,8.5,21.6,14,36.3,14c25.4,0,46-16.2,46-36.3c0-2.5-0.3-5-1-7.4C2364.2,71.5,2373,60.7,2373,48.4z"/>
	<path fill="#FFFFFF" stroke="#000000" stroke-miterlimit="10" d="M2432.2,123.2c0-9.2-9.9-16.6-22.1-16.6c-3.7,0-7.2,0.7-10.2,1.9
		c-2-2.3-5.2-3.9-8.8-3.9c-5.4,0-9.9,3.5-10.7,8h-0.1c-15.8,0-28.6,8.9-28.6,19.9s12.8,19.9,28.6,19.9c0.2,0,0.4,0,0.6,0
		c4.2,4.2,10.7,7,18,7c12.6,0,22.9-8.1,22.9-18c0-1.3-0.2-2.5-0.5-3.7C2427.8,134.6,2432.2,129.3,2432.2,123.2z"/>
	<path fill="#FFFFFF" stroke="#000000" stroke-miterlimit="10" d="M2433.7,66.9c0-5.3-5.7-9.7-12.8-9.7c-2.1,0-4.2,0.4-5.9,1.1
		c-1.1-1.4-3-2.3-5.1-2.3c-3.2,0-5.8,2-6.2,4.6c0,0,0,0-0.1,0c-9.2,0-16.6,5.2-16.6,11.5c0,6.4,7.4,11.5,16.6,11.5
		c0.1,0,0.2,0,0.3,0c2.4,2.5,6.2,4,10.5,4c7.3,0,13.3-4.7,13.3-10.5c0-0.7-0.1-1.4-0.3-2.1C2431.2,73.6,2433.7,70.5,2433.7,66.9z"/>
	<path fill="#FFFFFF" stroke="#000000" stroke-miterlimit="10" d="M2802.3,182.4c0,0-6.5,86.6,19.5,43.6s31-44,31-44s7,80,31,44
		s28-44,28-44s14,94,33,44s24-53,24-53s33,69,34,42s-19.1-55-19.1-55l-6-5.6c0,0-13.8-11.3-14.8-11.1s-12-9.1-30.4-12.3
		s-21.2-2.7-31.9-0.6c-10.7,2.1-30,7-44.2,14.9c-14.2,7.9-23.1,12.4-29.1,17.7S2802.3,182.4,2802.3,182.4z"/>
	<path fill="#FFFFFF" stroke="#000000" stroke-miterlimit="10" d="M2850.5,134.8"/>
	<path fill="#FFFFFF" stroke="#000000" stroke-miterlimit="10" d="M3392.8,148.1c0-18.5-19.9-33.5-44.5-33.5
		c-7.4,0-14.4,1.4-20.6,3.8c-3.9-4.7-10.4-7.8-17.7-7.8c-10.9,0-20,7-21.5,16c-0.1,0-0.2,0-0.2,0c-31.8,0-57.5,17.9-57.5,40
		s25.7,40,57.5,40c0.4,0,0.8,0,1.2,0c8.4,8.5,21.6,14,36.3,14c25.4,0,46-16.2,46-36.3c0-2.5-0.3-5-1-7.4
		C3384,171.1,3392.8,160.4,3392.8,148.1z"/>
	<path fill="#FFFFFF" stroke="#000000" stroke-miterlimit="10" d="M3452,222.8c0-9.2-9.9-16.6-22.1-16.6c-3.7,0-7.2,0.7-10.2,1.9
		c-2-2.3-5.2-3.9-8.8-3.9c-5.4,0-9.9,3.5-10.7,8h-0.1c-15.8,0-28.6,8.9-28.6,19.9s12.8,19.9,28.6,19.9c0.2,0,0.4,0,0.6,0
		c4.2,4.2,10.7,7,18,7c12.6,0,22.9-8.1,22.9-18c0-1.3-0.2-2.5-0.5-3.7C3447.6,234.2,3452,228.9,3452,222.8z"/>
</g>
</svg>
