<?xml version="1.0" encoding="utf-8"?>
<!-- Generator: Adobe Illustrator 18.1.0, SVG Export Plug-In . SVG Version: 6.00 Build 0)  -->
<svg version="1.1" id="dye1" xmlns="http://www.w3.org/2000/svg" xmlns:xlink="http://www.w3.org/1999/xlink" x="0px" y="0px"
	 viewBox="0 0 300 300" enable-background="new 0 0 300 300" xml:space="preserve">
<g id="whole">
	<path fill="none" stroke="#FFFFFF" stroke-width="6" stroke-miterlimit="10" d="M142,268.1H69.8c-6.9,0-12.6-5.6-12.6-12.6V81.4
		c0-6.9,5.6-12.6,12.6-12.6H142c6.9,0,12.6,5.6,12.6,12.6v174.2C154.6,262.5,148.9,268.1,142,268.1z"/>
	<path fill="none" stroke="#FFFFFF" stroke-width="6" stroke-miterlimit="10" d="M234,268.1h-62.7c-4.9,0-8.8-4-8.8-8.8V117.8
		c0-4.9,4-8.8,8.8-8.8H234c4.9,0,8.8,4,8.8,8.8v141.5C242.8,264.2,238.9,268.1,234,268.1z"/>
	<path fill="none" stroke="#FFFFFF" stroke-width="6" stroke-miterlimit="10" d="M133.4,68.8H78.2c-9.9,0-16.4-10.2-12.4-19.1
		l4.4-9.8c2.2-4.9,7-8,12.4-8h46.3c5.3,0,10.1,3.1,12.3,7.9l4.5,9.8C149.9,58.5,143.3,68.8,133.4,68.8z"/>
	<path fill="none" stroke="#FFFFFF" stroke-width="6" stroke-miterlimit="10" d="M230.5,109h-56.3c-5.2,0-8.5-5.6-5.8-10.1l8.5-14.6
		c1.2-2.1,3.4-3.4,5.8-3.4h38.5c2.3,0,4.4,1.2,5.7,3.1l9.3,14.6C239,103.1,235.8,109,230.5,109z"/>
	<path fill="none" stroke="#FFFFFF" stroke-width="6" stroke-miterlimit="10" d="M136.7,155.1H74.9c-4.6,0-8.3-3.7-8.3-8.3v-30.5
		c0-4.6,3.7-8.3,8.3-8.3h61.7c4.6,0,8.3,3.7,8.3,8.3v30.5C144.9,151.3,141.2,155.1,136.7,155.1z"/>
	<path fill="none" stroke="#FFFFFF" stroke-width="6" stroke-miterlimit="10" d="M221,172.4h-37.4c-6.6,0-12-5.4-12-12v-10.7
		c0-6.6,5.4-12,12-12H221c6.6,0,12,5.4,12,12v10.7C233,167,227.6,172.4,221,172.4z"/>
</g>
</svg>
