<?xml version="1.0" encoding="utf-8"?>
<!-- Generator: Adobe Illustrator 18.0.0, SVG Export Plug-In . SVG Version: 6.00 Build 0)  -->
<!DOCTYPE svg PUBLIC "-//W3C//DTD SVG 1.1//EN" "http://www.w3.org/Graphics/SVG/1.1/DTD/svg11.dtd">
<svg version="1.1" id="Layer_1" xmlns="http://www.w3.org/2000/svg" xmlns:xlink="http://www.w3.org/1999/xlink" x="0px" y="0px"
	 viewBox="0 0 800 600" enable-background="new 0 0 800 600" xml:space="preserve">
<rect x="0" opacity="0.74" fill="#75DBCF" width="800.3" height="599"/>
<g id="cloud1">
	<path fill="#FFFFFF" d="M157.6,65.1c0.2-1.5,0.2-3.2,0.2-4.7c0-24.3-19.7-44-44-44s-44,19.6-44,43.9c0,0.8,0,1.7,0.1,2.4
		C66.5,61,62.6,60,58.5,60C43.8,60,32,72.1,32,86.7c0,0.4,0,0.3,0,1.3h47.3h60.1C140.5,77,147.8,68.4,157.6,65.1z"/>
	<path fill="#FFFFFF" d="M166.1,63.5c-3,0-5.8,0.7-8.5,1.6c-9.8,3.3-17.1,11.8-18.2,22.8h45.3c0.7-5,2.2-8,4.3-11.2
		C184.4,69,175.8,63.5,166.1,63.5z"/>
	<path fill="#FFFFFF" d="M239.6,80.7c-4.6-10-14.6-17.1-26.3-17.1c-10.1,0-19,5.4-24.2,13.3c-2.1,3.2-3.6,6.1-4.3,11.1h45.2
		C232.2,84,235.6,81.9,239.6,80.7z"/>
	<path fill="#FFFFFF" d="M245.1,79.8c-1.9,0-3.8,0.4-5.5,1c-4,1.2-7.4,3.2-9.7,7.2h30.4C256.9,83,251.3,79.8,245.1,79.8z"/>
</g>
<g id="cloud2">
	<path fill="#FFFFFF" d="M421.1,110.5c-3,0-5.8,0.7-8.5,1.6c-9.8,3.3-17.1,11.8-18.2,22.8h45.3c0.7-5,2.2-8,4.3-11.2
		C439.4,116,430.8,110.5,421.1,110.5z"/>
	<path fill="#FFFFFF" d="M494.6,127.7c-4.6-10-14.6-17.1-26.3-17.1c-10.1,0-19,5.4-24.2,13.3c-2.1,3.2-3.6,6.1-4.3,11.1h45.2
		C487.2,131,490.6,128.9,494.6,127.7z"/>
	<path fill="#FFFFFF" d="M500.1,126.8c-1.9,0-3.8,0.4-5.5,1c-4,1.2-7.4,3.2-9.7,7.2h30.4C511.9,130,506.3,126.8,500.1,126.8z"/>
</g>
<g id="cloud3">
	<path fill="#FFFFFF" d="M658.1,34.5c-3,0-5.8,0.7-8.5,1.6c-9.8,3.3-17.1,11.8-18.2,22.8h45.3c0.7-5,2.2-8,4.3-11.2
		C676.4,40,667.8,34.5,658.1,34.5z"/>
	<path fill="#FFFFFF" d="M731.6,51.7c-4.6-10-14.6-17.1-26.3-17.1c-10.1,0-19,5.4-24.2,13.3c-2.1,3.2-3.6,6.1-4.3,11.1h45.2
		C724.2,55,727.6,52.9,731.6,51.7z"/>
	<path fill="#FFFFFF" d="M737.1,50.8c-1.9,0-3.8,0.4-5.5,1c-4,1.2-7.4,3.2-9.7,7.2h30.4C748.9,54,743.3,50.8,737.1,50.8z"/>
</g>
<path id="back" fill="#9B6319" d="M31,398h738c17.1,0,31,13.9,31,31v171H0V429C0,411.9,13.9,398,31,398z"/>
<g>
	<path fill="#249642" d="M416.2,188.8l21.1,46.2h267.2v-33.8c0-6.9-5.6-12.4-12.4-12.4H416.2z"/>
	<path fill="#249642" d="M379.5,235.1l21.1-46.2H123.3c-7.9,0-14.3,6.4-14.3,14.3v32H379.5z"/>
	<path fill="#56D188" d="M416.2,189l-2.1-4.6c-2.2-4.8-9.1-4.8-11.3,0l-2.1,4.6l-19.5,42.5c-1,2.2-3.2,3.6-5.6,3.6H109v12.4h267.9
		c2.4,0,4.6-1.4,5.6-3.6l20.3-44.3c2.2-4.8,9.1-4.8,11.3,0l20.3,44.3c1,2.2,3.2,3.6,5.6,3.6h264.4v-12.4H441.3
		c-2.4,0-4.6-1.4-5.6-3.6L416.2,189z"/>
	<path fill="#E8347E" d="M406,192.9l-24.3,53c-0.5,1-1.5,1.6-2.6,1.6H109v5.6h276.2c1.1,0,2.1-0.6,2.6-1.6l18.6-40.6
		c1-2.2,4.1-2.2,5.1,0l18.6,40.6c0.5,1,1.5,1.6,2.6,1.6h271.7c0.1,0,0.2-0.1,0.2-0.2v-5.3c0-0.1-0.1-0.2-0.2-0.2H438
		c-1.1,0-2.1-0.6-2.6-1.6l-24.3-53C410.1,190.7,407,190.7,406,192.9z"/>
	<path fill="#FFFFFF" d="M407,209.4l-19.5,42.5c-0.3,0.7-1.1,1.2-1.9,1.2H109v56.6c0,1.2,0.9,2.1,2.1,2.1h591.4
		c1.2,0,2.1-0.9,2.1-2.1v-56.6H432.2c-0.8,0-1.6-0.5-1.9-1.2l-19.5-42.5C410.1,207.8,407.8,207.8,407,209.4z M633.5,301.6H186.8
		v-39.5h446.7V301.6z"/>
	<path fill="#BA3F32" d="M128.7,536.2h556.1c10.9,0,19.7-8.8,19.7-19.7V311.8H109v204.7C109,527.4,117.8,536.2,128.7,536.2z"/>
	<path fill="#CE7925" d="M195.1,301.6h430.1c4.6,0,8.3-3.7,8.3-8.3v-22.9c0-4.6-3.7-8.3-8.3-8.3H195.1c-4.6,0-8.3,3.7-8.3,8.3v22.9
		C186.8,297.9,190.5,301.6,195.1,301.6z"/>
	<g>
		<path fill="#7AC1E5" stroke="#FFFFFF" stroke-width="5" stroke-miterlimit="10" d="M456.4,366.2c-5.1,3.1-11.1,4.8-17.6,4.8
			c-6.4,0-12.4-1.8-17.6-4.8c-5.1,3.1-11.1,4.8-17.6,4.8c-6.4,0-12.4-1.8-17.6-4.8c-5.1,3.1-11.1,4.8-17.6,4.8s-12.4-1.8-17.6-4.8
			c-5.1,3.1-11.1,4.8-17.6,4.8c-6.4,0-12.4-1.8-17.6-4.8c-5.1,3.1-11.1,4.8-17.6,4.8s-12.4-1.8-17.6-4.8c-5.1,3.1-11.1,4.8-17.6,4.8
			c-6.4,0-12.4-1.8-17.6-4.8c-5.1,3.1-11.1,4.8-17.6,4.8c-6.1,0-11.8-1.6-16.8-4.4c-5,2.8-10.7,4.4-16.8,4.4
			c-6.4,0-12.4-1.8-17.6-4.8c-5.1,3.1-11.1,4.8-17.6,4.8c-6.5,0-12.7-1.8-17.7-4.9v113.1c0,17.7,14.4,32.3,32.1,32.3h286.7
			c17.7,0,32.2-14.5,32.2-32.3V365.6c-6,3.4-11.7,5.4-18.6,5.4C467.5,371,461.5,369.2,456.4,366.2z"/>
		<path fill="#E27ADB" stroke="#FFFFFF" stroke-width="6" stroke-miterlimit="10" d="M460.3,325H173.6c-17.7,0-32.6,13.5-32.6,31.2
			v9.9c6,3.1,11.5,4.9,17.9,4.9c6.4,0,12.6-1.8,17.7-4.8c5.1,3.1,11.2,4.8,17.6,4.8c6.1,0,11.9-1.6,16.8-4.4
			c5,2.8,10.7,4.4,16.8,4.4c6.4,0,12.4-1.8,17.6-4.8c5.1,3.1,11.2,4.8,17.6,4.8s12.4-1.8,17.6-4.8c5.1,3.1,11.2,4.8,17.6,4.8
			c6.4,0,12.4-1.8,17.6-4.8c5.1,3.1,11.1,4.8,17.6,4.8c6.4,0,12.4-1.8,17.6-4.8c5.1,3.1,11.1,4.8,17.6,4.8s12.4-1.8,17.6-4.8
			c5.1,3.1,11.1,4.8,17.6,4.8s12.4-1.8,17.6-4.8c5.1,3.1,11.1,4.8,17.6,4.8c6.4,0,12.4-1.8,17.6-4.8c5.1,3.1,10.9,4.8,17.3,4.8
			c6.8,0,13.3-2,18.3-5.4v-9.3C492,338.5,478.1,325,460.3,325z"/>
	</g>
	<path fill="#7AC1E5" stroke="#FFFFFF" stroke-width="4.5119" stroke-miterlimit="10" d="M655.5,511.3h-92.7
		c-10.9,0-19.7-8.8-19.7-19.7V343.8c0-10.9,8.8-19.7,19.7-19.7h92.7c10.9,0,19.7,8.8,19.7,19.7v147.8
		C675.2,502.5,666.4,511.3,655.5,511.3z"/>
	<path fill="#7AC1E5" stroke="#FFFFFF" stroke-width="4.5119" stroke-miterlimit="10" d="M125.9,375.4"/>
</g>
<text transform="matrix(1 0 0 1 326.0207 293.3879)" font-family="'MyriadPro-Regular'" font-size="27.8016">TJ’s Hair Studio</text>
</svg>
