<?xml version="1.0" encoding="utf-8"?>
<!-- Generator: Adobe Illustrator 18.1.0, SVG Export Plug-In . SVG Version: 6.00 Build 0)  -->
<svg version="1.1" id="avatar" xmlns="http://www.w3.org/2000/svg" xmlns:xlink="http://www.w3.org/1999/xlink" x="0px" y="0px"
	 viewBox="0 0 300 300" enable-background="new 0 0 300 300" xml:space="preserve">
<g>
	<g>
		<path fill="#3886C6" d="M148.6,196.1c-77.5,0-136.9,25.7-136.9,25.7C56.9,305.6,148.6,295,148.6,295s94.4,6.3,139.7-77.5
			C288.3,217.5,226.1,196.1,148.6,196.1z"/>
		<path fill="#DBB574" d="M181.5,152.5h-0.1c-9.2,3.5-20.5,5.6-32.7,5.6s-23.6-2.1-32.7-5.6h-0.1c3.8,62.4-16.4,81.9-16.4,81.9
			s13.9,10.9,49.3,10.7s49.3-10.7,49.3-10.7S177.7,214.9,181.5,152.5z"/>
		<path opacity="7.000000e-002" d="M115.7,185.5c16.8,5.1,39.8,8.1,66.1,0.3c-0.4-7.8-0.4-16.4,0.2-26.2h-0.1
			c-9.3,3.5-20.7,5.6-33.1,5.6c-12.4,0-23.8-2.1-33.1-5.6h-0.1C116,169.3,116,177.9,115.7,185.5z"/>
		<path fill="#DBB574" d="M148.3,180.1L148.3,180.1c-32.8,0-59.4-26.6-59.4-59.4V69.1c0-21,17-38.1,38.1-38.1h42.7
			c21,0,38.1,17,38.1,38.1v51.5C207.7,153.5,181.1,180.1,148.3,180.1z"/>
		<g id="eyes">
			<g>
				<circle fill="#4F3917" cx="123.6" cy="92.8" r="7.1"/>
				<circle fill="#FFFFFF" cx="121.3" cy="90.9" r="2.8"/>
			</g>
			<g>
				<circle fill="#4F3917" cx="174.8" cy="92.8" r="7.1"/>
				<circle fill="#FFFFFF" cx="172.5" cy="90.9" r="2.8"/>
			</g>
		</g>
		<path fill="#FFFFFF" d="M133.5,130.6l30.2,1.5c3.1,0.2,5.2,3.2,4.3,6.1c-1.7,5.7-6.9,13.3-21.8,12.9
			c-16.3-0.4-18.1-10.2-17.7-16.2C128.7,132.4,130.9,130.5,133.5,130.6z"/>
		<path fill="#DBB574" d="M205.8,102.2c0.8,4.1,3.6,7.6,7.6,8.9c1.6,0.5,3.3,0.7,4.9,0c5-2.2,8.1-35.4,4-38.4
			c-4.2-3-10.8-1.9-15.6,6.9C203.3,85.7,204.6,96.2,205.8,102.2z"/>
		<path fill="#DBB574" d="M91.5,102.2c-0.8,4.1-3.6,7.6-7.6,8.9c-1.6,0.5-3.3,0.7-4.9,0c-5-2.2-8.1-35.4-4-38.4
			c4.2-3,10.8-1.9,15.6,6.9C94,85.7,92.7,96.2,91.5,102.2z"/>
		<g id="hair">
			<path fill="#5B3E15" d="M224.1,21.1c0,0-24,1.5-42.2,2.2c-30.3,1.3-48.4-10.6-60.6-11.4c-18.8-1.3-19.9,16.7-19.9,16.7
				s-6.3-9.8-20.4,3.2c-14.1,13,7.9,50.9,7.9,50.9c0-28.8,13.4-37.7,13.4-37.7c7.8,5.2,28.4,7.5,28.4,7.5
				c-9.3-5.8-12.2-16.4-12.2-16.4c30.4,24.4,58.4,18.6,77.8,7.8c8.8,6.7,11.4,37.6,11.4,37.6c14.2-30.6,0-45,0-45
				C218,28.6,224.1,21.1,224.1,21.1z"/>
			<path id="shadow" opacity="0.15" d="M88.5,82.1c0,0-0.5-26.8,13.4-38.4c0,0,14.2,6.8,28.4,7.5c0,0-8.1-4.6-12.2-16.4
				c0,0,35.2,32.9,77.8,7.8l11.5-7.4l16.3-15.3l-19.7,9.7c-46.4,31.4-90.9-8.4-90.9-8.4c-2.2,1-3.5,7.4-3.5,7.4
				c-0.5,5.2,8.4,17.4,8.4,17.4C110.5,44.4,99,33.5,99,33.5c-4.3-1.9-10.5,6.9-10.5,6.9c-7.4,7.9,0,41,0,41"/>
		</g>
		<path fill="none" stroke="#4E3918" stroke-width="7" stroke-linecap="round" stroke-linejoin="round" stroke-miterlimit="10" d="
			M111.2,79.6c0-5.1,5.5-9.2,12.4-9.2c6.8,0,12.4,4.1,12.4,9.2"/>
		<path fill="none" stroke="#4E3918" stroke-width="7" stroke-linecap="round" stroke-linejoin="round" stroke-miterlimit="10" d="
			M163,79.6c0-5.1,5.5-9.2,12.4-9.2c6.8,0,12.4,4.1,12.4,9.2"/>
		<path opacity="5.000000e-002" d="M183.5,197.4c-0.8-4.5-1.4-9.5-1.8-15c0-1-0.2-10.9-0.2-11.9c12.5-10.9,14.9-18.5,19.7-26
			c2.1-3.3,3.5-7.1,3.9-11l2.7-26.6c1.4,1.9,3.3,3.4,5.6,4.2c1.6,0.5,3.3,0.7,4.9,0c5-2.2,8.1-35.4,4-38.4c-3.8-2.8-9.8-2.1-14.4,5
			v0c14.2-30.6,0-45,0-45c10.3-7.8,16.3-15.3,16.3-15.3s-24,1.5-42.2,2.2c-12.6,0.5-23.1-1.2-31.9-3.5V295
			c11.7,0.4,96.3,0.4,138.3-77.6C288.5,217.5,244,202.2,183.5,197.4z"/>
	</g>
	<g id="cloth">
		<path fill="#575757" d="M151.2,191.1c-0.4,0-0.8,0-1.2,0c-0.4,0-0.8,0-1.2,0c-77.5,0-139.7,21.4-139.7,21.4
			C54.4,296.4,148.8,290,148.8,290s0.4,0,1.2,0.1c0.8-0.1,1.2-0.1,1.2-0.1s94.4,6.3,139.7-77.5C290.9,212.5,228.7,191.1,151.2,191.1
			z"/>
		<path fill="#D7D6D6" d="M166.3,290l1.9-0.4l25.2-96.7c-16-1.1-32.4-2-43.4-2.1c-11.1,0-30.5,0.9-46.5,2.1l28.3,96.6
			C142.3,290.6,154,291,166.3,290z"/>
		<path fill="#3490CE" d="M138.8,290.1c7,0.5,14.5,0.6,22.3,0.3l0.2-0.1l-3.7-61.1l5.7-10.3l-8.7-9.8H150h-4.5l-8.7,9.8l5.7,10.3
			L138.8,290.1z"/>
		<polygon fill="#FFFFFF" points="103.5,192.9 115.4,180.1 145.5,209.1 119.9,231.2 		"/>
		<polygon fill="#FFFFFF" points="193.4,192.9 181.5,180.1 154.5,209.1 177.1,231.2 		"/>
	</g>
</g>
</svg>
