<?xml version="1.0" encoding="utf-8"?>
<!-- Generator: Adobe Illustrator 18.1.0, SVG Export Plug-In . SVG Version: 6.00 Build 0)  -->
<svg version="1.1" id="Layer_1" xmlns="http://www.w3.org/2000/svg" xmlns:xlink="http://www.w3.org/1999/xlink" x="0px" y="0px"
	 viewBox="0 0 300 300" enable-background="new 0 0 300 300" xml:space="preserve">
<g>
	<path d="M102.6,220.6c0.4,1.3,0.5,2.3,1,3.2c0.3,0.5,1.1,0.8,1.7,0.9c5.6,0.3,11.3,0.5,16.9,0.8c1.4,0.1,2.7,0.3,4.1,0.3
		c1.2,0.1,2.1,0.8,2.4,1.8c0.7,2.2,1,4.6,0.2,6.8c-1.3,3.7-4.2,5.5-7.8,6.4c-6,1.4-12.1,2.6-18.3,2.5c-4.4,0-8.7-0.5-13.1-0.6
		c-6.4-0.1-12.7-0.8-18.9-2c-1.7-0.3-3.5-0.8-5.1-1.4c-0.7-0.2-1.7-0.8-1.9-1.4c-0.8-3-1.5-6-0.5-9.1c0.3-1,0.9-1.3,2-1.3
		c2.4,0.1,4.9-0.1,7.3-0.1c1.3,0,2.1-0.8,2.4-2c0.3-1.1,0.5-2.2,0.8-3.5c-1.5-0.1-2.8-0.4-4.1-0.4c-7.4,0.3-14.8,0.7-22.2,0.9
		c-3.6,0.1-7.2,0-10.8-0.1c-5.6-0.1-11.3-0.3-16.9-0.2c-4.7,0.1-9.3,0.5-14,0.7c-0.7,0-1.4-0.3-2.2-0.4c0-0.2-0.1-0.3-0.1-0.5
		c0.8-0.3,1.5-0.9,2.3-0.9c4.6-0.2,9.1-0.4,13.7-0.5c4.3,0,8.6,0.1,13,0.2c7.5,0,14.9,0.1,22.4-0.4c5.9-0.5,11.9-0.4,17.8-0.6
		c1,0,1.4-0.3,1.4-1.3c0-4.8,0-9.6,0-14.6c-2.1,0-3.9,0-5.6,0c-4,0-7.9-0.1-11.9-0.1c-1.3,0-2.5,0-3.8,0c-3.3-0.1-6.7,0.1-10-0.4
		c-4.1-0.7-5.7-3.6-6-7.6c-0.4-6.1-0.5-12.3-0.7-18.4C38,174,38,170.4,38,166.8c0-5.2,0-10.5,0.1-15.7c0-3.1,0.2-6.3,0.3-9.4
		c0-4,0-8,0-12c0-2.5-0.2-5-0.1-7.5c0.2-2.8,2-4.1,4.8-4.2c1.8-0.1,3.5-0.6,5.2-0.9c6-0.9,12-0.9,18.1-0.6
		c9.2,0.4,18.3,0.3,27.5-0.3c4.1-0.3,8.2,0,12.4,0c7.9-0.1,15.8-0.4,23.7-0.5c2.7,0,5.5,0.5,8.2,0.9c2,0.3,3.1,1.6,3.5,3.4
		c0.5,2.2,0.6,4.3,0.2,6.6c-0.6,3.2-0.8,6.5-0.7,9.7c0,6.9,0.3,13.7,0.5,20.6c0.1,5.8,0.3,11.5,0.4,17.3c0,3-0.2,6-0.3,9
		c0,5.1,0.1,10.2,0,15.3c-0.1,3.6-1.3,4.7-4.8,5.1c-4,0.4-8,0.7-12,0.8c-4,0-8-0.4-12-0.5c-3.7-0.1-7.4,0-10.9,0c0,4-0.2,7.8,0,11.6
		c0.2,3.3,0.4,3.4,3.8,3.4c8,0,15.9-0.1,23.9,0c6.7,0.1,13.3,0.3,20,0.4c0.6,0,1.2-0.3,1.8-0.4c-0.2-0.5-0.2-1.1-0.5-1.5
		c-0.7-1.2,0.3-5,1.8-5.8c2.6-1.5,5.4-2.9,8.1-4.2c2.3-1.2,4.8-0.7,7.2-0.5c3,0.2,6.1,0.7,9.1,0.7c3.5-0.1,7.1-0.5,10.6-1
		c2.2-0.3,2.7-2.4,3.3-4.2c1.1-3.3,2-6.6,2.9-10c1.2-4.8,2.4-9.6,3.4-14.4c0.6-3.2,2.1-5.5,5.2-6.7c0.3-0.1,0.5-0.3,0.8-0.6
		c-4-2.4-6.7-6-8.7-9.9c-2.2-4.1-3.7-8.6-3.3-13.4c0.3-3.5,0.5-7.1,1.4-10.5c0.8-3.1,2.7-5.9,3.8-8.9c1-2.7,2.9-4.6,5.2-6.2
		c2.9-2.2,6.2-3.6,9.8-4.3c5.6-1,11.4-1.6,17-0.4c6.8,1.4,12.8,4.4,17.3,10.1c2.5,3.1,2.9,6.9,3.6,10.6c0.8,4.4,0.7,8.8,0.2,13.2
		c-0.4,3.5-1.7,6.6-3,8.9c0.4,2.1,0.7,3.6,0.8,5.1c0.1,1.1-0.1,2,1.3,2.4c0.3,0.1,0.4,1,0.5,1.5c0.2,0.6,0.2,1.5,0.6,1.7
		c1.6,0.8,1.7,2.2,1.8,3.7c0.3,5.3,0.5,10.7,1.1,16c0.4,3.9,1.3,7.8,1.8,11.8c0.6,4.5,1,9.1,1.5,13.9c2.3,0,4.9,0,7.5,0
		c6.1,0,12.2,0.1,18.3,0.1c4.1,0,8.1-0.3,12.2-0.4c0.6,0,1.3,0.2,1.9,0.5c0.2,0.1,0.4,0.7,0.3,1c-0.1,0.3-0.6,0.5-0.9,0.5
		c-7.9,0-15.8-0.1-23.7-0.1c-5.4,0-10.8,0.1-16.2,0.2c-0.5,0-1.2,0.4-1.6,0.8c-2.4,3.2-5.9,4.6-9.7,3.3c-1.5-0.5-3.1-1.4-4.3-2.5
		c-0.9-0.9-1.9-1.2-2.9-1.2c-6.2,0.1-12.5,0.3-18.7,0.5c-5.5,0.2-11,0.4-16.5,0.6c-4.5,0.1-9,0.1-13.5,0.1c-2.4,0-4.8-0.3-7.1-0.6
		c-1.8-0.2-3.4,0-4.8,0.9c-1.8,1.1-4,1.5-5.2,3.6c-0.3,0.5-0.9,0.8-1.5,1c-3.8,1.7-7.8,2.8-12,2.1c-2.7-0.5-5.1-1.7-6.8-4
		c-0.4-0.5-1.4-0.8-2.1-0.8c-7.1-0.2-14.3-0.3-21.4-0.4c-6.9-0.1-13.7-0.1-20.6-0.2C105.6,220.6,104.2,220.6,102.6,220.6z
		 M71.1,118.9c0-0.2,0-0.4,0-0.6c-2.3,0-4.7,0.1-7,0c-7.2-0.4-14.3,0-21.4,1.4c-1.4,0.3-2.2,1-2.4,2.4c-0.1,0.8-0.2,1.6-0.2,2.4
		c0.1,3.3,0.3,6.6,0.3,9.9c-0.1,8.7-0.4,17.4-0.5,26.1c-0.1,5.7-0.3,11.5-0.1,17.2c0.2,6.4,0.8,12.8,1.4,19.1
		c0.3,3.3,2.3,4.8,5.6,4.9c3.4,0.1,6.7,0.1,10.1,0.1c5.8,0,11.6-0.1,17.4-0.1c1.7,0,1.8-0.3,1.7-2c-0.3-3.9-0.5-7.8-0.7-11.7
		c-0.1-2.7-0.4-5.4-0.3-8.1c0.1-2.9,0.4-5.9,0.8-8.8c0-0.4,0.8-0.6,1.3-0.9c0.2,0.4,0.7,0.8,0.6,1.1c-1.3,4.7-0.8,9.4-0.6,14.1
		c0.2,5,0.5,10.1,0.7,15.1c0.1,3.5,0,6.9,0.3,10.4c0.5,5.5-0.2,11-0.9,16.4c-0.1,0.5-0.7,1.1-1.1,1.2c-3.1,0.9-6.3,1.6-9.6,1.1
		c-1.3-0.2-1.9,0.4-1.8,1.6c0.1,1.5,0.5,3,0.7,4.5c0.2,1.2,1,1.8,2.1,2.1c2.4,0.5,4.8,1.1,7.2,1.4c3.7,0.5,7.5,1.1,11.2,1.3
		c4,0.3,7.9,0.3,11.9,0.3c4.5,0,9,0.1,13.5-0.4c3.8-0.4,7.5-1.3,11.2-2.4c4-1.2,5.9-5.2,4.7-9.1c-0.3-0.8-0.6-1.3-1.6-1.3
		c-2.4-0.1-4.9-0.3-7.3-0.4c-4.8-0.2-9.6-0.2-14.3-0.5c-0.7,0-1.6-0.8-1.9-1.5c-1.7-3.9-1.6-8.1-1.8-12.3c-0.2-3.2,0-6.4,0-9.6
		c0-3.2-0.2-6.5-0.2-9.7c0-2.2,0.4-4.5,0.4-6.7c-0.1-5.5-0.3-11,0.8-16.4c0.1-0.5,0.7-0.8,1.1-1.2c0.3,0.6,0.7,1.2,0.8,1.8
		c0.1,0.6-0.3,1.2-0.3,1.8c-0.1,3-0.2,6-0.4,9c-0.2,5.8-0.5,11.6-0.7,17.4c-0.1,2.2,0,2.3,2.2,2.4c6.8,0.2,13.5,0.4,20.3,0.3
		c4.6-0.1,9.1-0.8,13.6-1.3c1.1-0.1,1.7-0.9,1.8-1.9c0.1-1.7,0.3-3.3,0.3-5c0.1-4.5,0.1-8.9,0.2-13.4c0-4.3,0.1-8.6,0.1-12.9
		c0-4-0.2-8-0.2-12c0-1.8,0.2-3.5,0.1-5.3c-0.2-3.5-0.6-7.1-0.7-10.6c0-4.7,0.2-9.4,0.4-14.1c0-1,0.2-1.9,0.4-2.9
		c0.3-1.3-0.9-3.7-2.1-3.9c-3.7-0.6-7.3-1.3-11-1.4c-8.5-0.1-17.1,0.3-25.6,0.5c-1.8,0-3.7-0.1-5.5,0
		C87.5,118.2,79.3,118.6,71.1,118.9z M222.5,118c-6.5-0.1-12.2,0.3-17.4,3.2c-2.2,1.2-4.5,2.2-5.7,4.4c-1.5,2.5-2.7,5.2-4,7.9
		c-2.6,5.5-3.1,11.3-2.4,17.2c0.6,5.7,3.5,10.5,7.2,14.7c2.2,2.6,4.9,4.6,8.3,5.4c2.2,0.5,4.5,0.9,6.7,1.2c4.7,0.7,9.4,0.6,14-1.2
		c1.7-0.7,3.1-1.3,2.8-3.6c-0.1-0.6,0.3-1.4,0.5-2c1-2.7,1.9-5.6,5.6-5.6c1.6,0,3.3-0.2,4.9,0.1c1.3,0.2,1.9-0.2,2.5-1.1
		c1.8-2.6,2.3-5.6,2.6-8.6c0.6-5.8-0.2-11.5-1.5-17.1c-0.4-1.7-1.2-3.5-2.3-4.9c-2.6-3.4-6.2-5.7-10.1-7.5
		C230.2,118.5,226.1,117.7,222.5,118z M193.3,216.9c0.5,0.1,0.8,0.1,1,0.1c3,0,6,0,9-0.1c5.7-0.2,11.4-0.4,17.1-0.6
		c5.4-0.2,10.8-0.3,16.2-0.4c0.9,0,1.4-0.2,1.3-1.2c-0.1-0.9-0.2-1.7-0.2-2.6c0-4,0-7.9,0-11.9c-0.1-4.3-0.2-8.6-0.4-13
		c-0.1-1.5-0.2-2.9-0.4-4.4c-0.3-1.9,0.2-4-1.9-5.3c-0.3-0.2-0.5-0.8-0.6-1.2c-0.2-1.7-0.3-3.3-2.4-3.9c-0.3-0.1-0.4-0.6-0.6-1
		c-6.9,3.3-14,2.7-21.1,1.3c-2.9-0.6-5.8-1.8-8.6,0.4c-1.1,0.9-2.3,1.7-2.5,3.2c-0.3,1.8-0.7,3.7-1.2,5.5
		c-1.9,7.2-3.8,14.4-5.9,21.5c-1.1,3.7-3.2,5.1-7.1,5.1c-0.9,0-1.8,0.2-2.7,0.2c-3.6,0-7.4,0.5-10.9-0.2c-6.9-1.2-12.9-0.1-18,4.7
		c-0.6,0.5-0.8,1.6-0.8,2.5c0,0.3,1.1,0.7,1.7,0.9c0.7,0.2,1.4,0.2,2.1,0.2c0.9,0,1.3-0.3,1.8-1.3c0.7-1.6,1.8-3.2,2.9-4.6
		c0.3-0.4,1-0.4,1.5-0.5c-0.2,0.5-0.2,1.3-0.5,1.5c-1.6,1.3-2.4,3-2.7,4.9c-0.1,0.4,0.1,1.3,0.3,1.3c0.5,0.1,1.3,0.1,1.7-0.2
		c1-0.9,1.9-1.9,2.8-2.9c2-2.1,4.5-3,7.3-2.1c0.9,0.3,1.6,1,2.4,1.5c-0.4,0.6-0.9,1.1-1.3,1.7c-0.2,0.2-0.5,0.4-0.6,0.7
		c-0.2,0.8-0.4,1.7-0.6,2.5c0.9,0,1.8,0,2.7-0.1c0.3,0,0.5-0.4,0.7-0.5c0.8-0.4,1.5-1,2.4-1.2c1.3-0.3,2.6-0.5,3.9-0.5
		c3.1,0,6.2,0,9.3,0.1c1.2,0.1,1.6-0.4,2-1.4c1.4-4,2.9-8,4.1-12.1c1.7-5.6,3.4-11.3,4.9-17c0.5-1.9,0.8-4,1.2-6
		c0.1-0.3,0.6-0.6,0.9-0.9c0.1,0.4,0.5,0.8,0.4,1.1c-0.7,3.8-1.3,7.7-2.4,11.3c-1.8,6.1-4,12.1-6,18.1
		C194.7,212.5,194,214.6,193.3,216.9z M247.7,168.4c-1.6-0.2-2-1-1.7-2.3c0.1-0.6,0.2-1.3,0.1-2c-0.1-0.7-0.2-1.6-0.7-2.1
		c-1.9-1.7-7.4-2-9.4-0.6c-0.2,0.1-0.3,0.3-0.4,0.5c-2.1,2.6-2.4,5.6-2.4,8.8c0,0.3,0.4,0.6,0.6,0.9c0.2-0.3,0.5-0.5,0.7-0.9
		c0.1-0.2,0-0.5,0.1-0.7c0.2-0.5,0.6-1.4,0.8-1.4c1.1,0.2,0.6,1,0.5,1.7c-0.1,1.6-0.3,3.1-0.2,4.7c0,0.7,0.5,1.7,1,1.9
		c1.4,0.6,1.5,1.7,1.5,2.9c0,0.7,0,1.3,0.1,2c0.2,3.3,0.6,6.7,0.7,10c0.1,6.4,0.1,12.8,0,19.2c0,3.7,1.2,6.6,4.5,8.6
		c3,1.8,7.4,0.8,8.9-2.3c0.9-1.9,1.4-4.1,2-6.2c0.1-0.3-0.1-0.7-0.2-1c-0.2-0.9-0.3-1.8-0.4-2.7c-0.1-0.6,0-1.2-0.2-1.8
		c-0.4-1.2-0.9-2.4-1.3-3.7c-1.4-5.3-2.6-10.7-4-15.9c-0.8-3.1-1.8-6.1-1.6-9.3C247,173.9,247.4,171.2,247.7,168.4z M165.9,223.3
		c1.6-0.6,3.1-1.3,4.8-2c-1.8-1.1-1.8-2.3-0.8-3.7c0.6-0.8,1-1.7,1.4-2.6c-3.7-1.3-6.2-0.3-7.8,2.6
		C164.4,219.6,165.1,221.3,165.9,223.3z M248.9,171.6c-1.6,5.7,0.1,11,2,16.2c0.1-0.7,0.1-1.4,0.1-2.1c-0.2-3.9-0.4-7.8-0.6-11.7
		C250.3,173.2,250.4,172.1,248.9,171.6z M162.8,220.1c-1.3-0.1-2.3,0-3.3-0.2c-1.5-0.3-1.8,0.7-2,1.6c-0.2,1.1,0,2.3,1.3,2.5
		c1.5,0.2,3.1,0,4.9,0C163.3,222.4,163,221.1,162.8,220.1z M156.4,218.6c-3.2-0.7-3.2-0.7-3.4,0.4c-0.5,1.9,0.3,3.1,2.4,3.7
		C155.7,221.4,156,220,156.4,218.6z"/>
	<path d="M219.7,166.1c0.1,2.8-0.1,2.9-2.5,2.4c-3.2-0.7-6.5-1.3-9.7-1.8c-1.2-0.2-1.9-0.5-1.6-1.9c0.1-0.3,0-0.6,0-0.9
		c-0.3-1.3-0.2-2,1.5-1.4c0.5,0.2,1.1-0.1,1.6-0.1c3,0.3,6,0.6,9,1C219.6,163.6,219.8,164.9,219.7,166.1z M206.6,164
		c0.7,0.6,1,1.3,1.5,1.4c3,0.5,6.1,1,9.2,1.4c0.3,0,1-0.4,0.9-0.6c0-0.4-0.3-1.1-0.6-1.2C214.2,163.9,210.7,163.3,206.6,164z"/>
	<g id="blinkIdea">
		<g>
			<g>
				<g>
					<g>
						<g>
							<path fill="#A6A6A6" d="M185.9,124.5c0.1-0.1,0.2-0.2,0.1-0.2L185.9,124.5L185.9,124.5z"/>
							<path fill="#A6A6A6" d="M186.2,124c-0.1,0.1-0.3,0.3-0.5,0.6c0.2-0.3,0.1-0.1,0.4-0.4c0,0,0,0.1-0.1,0.2
								c0.1-0.1,0,0.1,0.1-0.1c0.1-0.2,0.1-0.2,0-0.1C186.2,124.1,186.2,124,186.2,124z"/>
							<path fill="#A6A6A6" d="M185.7,123L185.7,123C185.7,123,185.7,123,185.7,123z"/>
							<path fill="#A6A6A6" d="M185.3,122.4C185.3,122.4,185.3,122.4,185.3,122.4C185.3,122.4,185.3,122.4,185.3,122.4z"/>
							<path fill="#A6A6A6" d="M185.4,122.1C185.4,122.1,185.4,122.1,185.4,122.1C185.4,122.1,185.4,122.1,185.4,122.1z"/>
							<path fill="#A6A6A6" d="M185.7,123L185.7,123C185.7,123,185.7,122.9,185.7,123z"/>
							<path fill="#A6A6A6" d="M185.7,124.6C185.7,124.6,185.7,124.5,185.7,124.6C185.7,124.5,185.7,124.5,185.7,124.6
								C185.7,124.5,185.7,124.5,185.7,124.6z"/>
							<path fill="#A6A6A6" d="M186.1,122.9L186.1,122.9c0,0,0.1-0.1,0.1-0.1L186.1,122.9z"/>
							<path fill="#A6A6A6" d="M186.3,123c0,0-0.2,0.2-0.2,0.3c0.1-0.1,0.1-0.1,0.1-0.1C186.2,123.1,186.2,123.1,186.3,123z"/>
							<path fill="#A6A6A6" d="M186.3,123.6L186.3,123.6C186.3,123.6,186.3,123.6,186.3,123.6z"/>
							<path fill="#A6A6A6" d="M186,122.8C186,122.7,186,122.7,186,122.8C186,122.7,186,122.7,186,122.8z"/>
							<path fill="#A6A6A6" d="M179.8,120.9C179.8,120.9,179.8,120.9,179.8,120.9C179.8,120.9,179.8,120.9,179.8,120.9z"/>
							<path fill="#A6A6A6" d="M180.4,119.6L180.4,119.6c0-0.1,0.1-0.1,0.1-0.1L180.4,119.6z"/>
							<path fill="#A6A6A6" d="M185.4,121.7C185.4,121.7,185.4,121.7,185.4,121.7C185.5,121.6,185.5,121.7,185.4,121.7z"/>
							<path fill="#A6A6A6" d="M183.8,120.7c-0.1,0.2-0.2,0.2-0.4,0.5C183.5,121.1,183.7,120.9,183.8,120.7z"/>
							<path fill="#A6A6A6" d="M185.7,124.5C185.7,124.5,185.7,124.5,185.7,124.5C185.7,124.5,185.7,124.5,185.7,124.5z"/>
							<path fill="#A6A6A6" d="M183.5,121.2C183.5,121.2,183.5,121.2,183.5,121.2L183.5,121.2C183.4,121.2,183.5,121.2,183.5,121.2z
								"/>
							<path fill="#A6A6A6" d="M185,121.5c0,0,0,0.1-0.1,0.1C184.9,121.6,184.9,121.6,185,121.5z"/>
							<path fill="#A6A6A6" d="M185,122.1L185,122.1C185,122,185,122.1,185,122.1z"/>
							<path fill="#A6A6A6" d="M184.6,121.7C184.6,121.7,184.6,121.7,184.6,121.7C184.6,121.7,184.6,121.7,184.6,121.7
								C184.6,121.7,184.6,121.7,184.6,121.7z"/>
							<path fill="#A6A6A6" d="M184.4,121.6C184.4,121.7,184.4,121.7,184.4,121.6C184.4,121.7,184.4,121.7,184.4,121.6L184.4,121.6z
								"/>
							<path fill="#A6A6A6" d="M180.3,121.1c0-0.1,0.1-0.1,0.1-0.2C180.3,121.1,180.3,121.1,180.3,121.1z"/>
							<path fill="#A6A6A6" d="M185.8,124.4C185.7,124.5,185.7,124.5,185.8,124.4C185.7,124.5,185.7,124.5,185.8,124.4
								C185.7,124.5,185.7,124.5,185.8,124.4z"/>
							<path fill="#A6A6A6" d="M183.3,123.5L183.3,123.5C183.3,123.5,183.3,123.5,183.3,123.5z"/>
							<path fill="#A6A6A6" d="M181.4,121.9L181.4,121.9C181.4,121.9,181.4,121.9,181.4,121.9z"/>
							<path fill="#A6A6A6" d="M183.2,123.5c0.1-0.1,0.1-0.1,0.1-0.2c0,0,0,0,0,0.1L183.2,123.5z"/>
							<path fill="#A6A6A6" d="M180.5,120.9C180.5,120.9,180.5,120.9,180.5,120.9C180.5,120.9,180.5,120.9,180.5,120.9z"/>
							<path fill="#A6A6A6" d="M179.9,121.3c0,0,0.2-0.3,0.4-0.5c0.1-0.1-0.1,0.2-0.2,0.4c0.1-0.1,0.3-0.3,0.3-0.3
								c0,0,0,0.1-0.1,0.1c0.2-0.2,0.1,0,0.3-0.3c0,0,0,0.1-0.1,0.1c0.1-0.2,0.2-0.3,0.3-0.4c0,0,0.2-0.2,0,0c0,0-0.1,0.1-0.1,0.1
								l0.1-0.1c-0.2,0.3-0.1,0.1-0.2,0.3c0.1-0.1,0.3-0.3,0.2-0.2c-0.2,0.3-0.1,0.1-0.3,0.3l0.1-0.1c-0.3,0.4,0,0-0.3,0.4
								c0,0.1,0.1-0.1,0.1,0c0.1-0.1,0.2-0.2,0.3-0.4c0.2-0.2-0.5,0.7-0.2,0.4c0.1-0.2,0.4-0.5,0.3-0.3l-0.2,0.3
								c0,0.1,0.3-0.4,0.2-0.2c-0.1,0.1-0.1,0.1-0.1,0.1c-0.2,0.3,0.1-0.2,0.2-0.2l-0.2,0.3c0.1,0,0.2-0.2,0.3-0.2
								c-0.1,0.1-0.1,0.2-0.2,0.3c0.1-0.1,0.1,0.1,0,0.3l0.2-0.2c0,0-0.1,0.1-0.1,0.2c0,0.1,0.1-0.2,0.2-0.2c0,0-0.1,0.1-0.1,0.2
								c0.2-0.2,0.4-0.4,0.3-0.1l-0.1,0.1c0,0.1,0.4-0.5,0.2-0.2l0,0c0,0.1,0.2,0,0,0.4c0.3-0.3-0.1,0.2,0.3-0.3
								c-0.1,0.3-0.2,0.3-0.3,0.5c0,0,0.2-0.3,0.3-0.3l-0.2,0.3l0.2-0.2l-0.2,0.3l0.1-0.1c0,0,0.1-0.1,0.1-0.2
								c0.1-0.1-0.1,0.2-0.2,0.3l0.2-0.2c-0.1,0.1-0.1,0.1-0.2,0.2c0.2-0.2-0.2,0.3,0,0.1c0-0.1,0.1-0.1,0.1-0.2
								c-0.1,0.2-0.1,0.2,0,0.1l-0.1,0.2c0,0.1,0.1,0,0.2,0c0-0.1,0.3-0.4,0.3-0.4l-0.2,0.3c0.1-0.2,0.1-0.1,0.2-0.3
								c0,0-0.2,0.3-0.3,0.4l0.1-0.1c-0.1,0.1-0.1,0.1-0.2,0.2c0.1-0.2-0.2,0.3,0.1,0l-0.1,0.1c0,0,0.1,0,0.2,0
								c0.2-0.2,0.1-0.2,0.3-0.3c0,0.1-0.1,0.3-0.1,0.3c0.1-0.1,0.1-0.2,0.3-0.3c-0.1,0.2-0.1,0.2-0.2,0.3c0.1,0,0.1,0,0.2-0.1
								c0.1-0.1,0.1-0.1,0.1-0.2c0,0,0,0.1-0.1,0.2l0,0c0.3-0.3-0.3,0.7,0,0.3l0,0l0.2-0.2c0,0.1-0.1,0.1-0.2,0.3
								c0.3-0.3,0,0.1,0.2-0.1c-0.4,0.6,0.1,0-0.1,0.5l0.1-0.1c0.1-0.1,0,0.1-0.1,0.1c0.1-0.1,0.1-0.1,0.1-0.2c0.2-0.1,0,0.3,0,0.5
								c0,0.1,0.6-0.7,0.4-0.4l-0.2,0.3c0.3-0.3,0.1,0.1,0.4-0.1c0,0.1-0.1,0.1-0.1,0.1c-0.1,0.2,0,0,0.2-0.1c0,0-0.1,0.1-0.2,0.2
								c-0.1,0.1,0.2-0.2,0.1,0c0,0,0,0.1-0.1,0.1c0.1-0.1,0,0.1,0.2-0.2c-0.1,0.1,0.1-0.1,0,0.1c0.2-0.2,0,0.2,0.2-0.2
								c-0.3,0.4-0.2,0.3,0,0.2c-0.1,0.1-0.1,0.1-0.2,0.3c0,0,0.1,0,0.2-0.2c-0.3,0.5,0.3-0.3-0.1,0.3c0.2-0.2,0.3-0.3,0.5-0.3
								c-0.3,0.4-0.1,0-0.4,0.4c0.2-0.1,0.4-0.4,0.4-0.3c0,0.1-0.1,0.2-0.2,0.2c0.2-0.1,0.1,0.1,0.2-0.1c0,0-0.1,0.1-0.1,0.1
								c0,0,0,0.1,0.1-0.1l0,0c0.2-0.3,0.4-0.5,0.5-0.6c-0.4,0.5,0,0.1-0.5,0.7c0,0,0.1-0.1,0.2-0.2c0,0-0.1,0.1-0.2,0.2
								c0.1-0.1,0.2-0.3,0.2-0.2c-0.1,0.1-0.1,0.1-0.2,0.2c0.1-0.1,0.3-0.3,0.2-0.2c0,0-0.1,0.1-0.1,0.1c0.1,0,0.4-0.4,0.3-0.2
								c-0.3,0.3-0.1,0.1-0.3,0.4l0.1-0.1l0.1-0.2c0,0,0.2-0.2,0.1-0.1l-0.1,0.1l0.1,0l0.1-0.1c0.1-0.1,0.3-0.4,0.2-0.3
								c0,0,0,0-0.1,0.2c0,0,0,0,0,0c0.1-0.1,0.2-0.2,0.1-0.1c-0.1,0.1-0.2,0.3-0.3,0.4c0.2-0.2,0.1,0,0.3-0.3
								c0,0.1-0.2,0.2-0.2,0.3l0.2-0.2c0,0.1-0.1,0.1-0.2,0.2c0,0.1,0.3-0.4,0.2-0.2c0,0,0,0-0.1,0.1c0,0.1,0.2-0.1,0.1,0
								c-0.2,0.3-0.1,0.1-0.3,0.3c0.1,0,0.4-0.3,0.3-0.2l0,0c0.3-0.4-0.1,0.2,0,0c0,0-0.2,0.2-0.1,0.2c0,0.1,0.1-0.1,0.3-0.2
								l-0.1,0.1c-0.1,0.1,0,0.1,0,0.2c0.1-0.1,0.1-0.1,0.2-0.2c-0.4,0.7,0.3-0.3,0,0.3c0,0-0.1,0.1-0.1,0.1l0.1-0.1
								c0.1-0.2,0.1-0.1,0.2-0.3c0.1-0.1,0.2-0.2,0.2-0.2c-0.1,0.1-0.2,0.3-0.3,0.4c0-0.1,0.1-0.1,0.1-0.2c-0.2,0.3,0.3-0.4,0.1-0.1
								l-0.1,0.1c0,0,0.2-0.2,0.1-0.1c-0.2,0.2-0.1,0.1-0.2,0.3c0,0,0.3-0.4,0.2-0.2c-0.1,0.1-0.1,0-0.1,0.1
								c-0.2,0.3-0.1,0.2-0.1,0.3l0,0l-0.1,0.1l0-0.1c0.4-0.5,0.1-0.1,0.4-0.4c-0.3,0.3-0.2,0.2-0.3,0.4c0,0.1-0.1,0.2-0.1,0.2
								c0.2-0.2-0.1,0.2,0.1-0.1c-0.1,0.1,0,0-0.1,0.2c0.1,0,0.1-0.1,0.2-0.2c0.2-0.3-0.2,0.4,0.1,0c0.1-0.1,0.3-0.4,0.5-0.5
								c-0.1,0.1-0.2,0.3-0.2,0.3c-0.1,0.1,0,0.1,0,0c-0.1,0.1-0.1,0.1-0.2,0.2c0,0,0.2-0.3,0.1-0.2c-0.1,0.1-0.2,0.2-0.2,0.3
								c0.1-0.1,0.2-0.2,0.3-0.3c-0.1,0.1-0.2,0.2-0.2,0.3c0.1,0,0.1-0.1,0.3-0.3l0-0.1c0,0-0.1,0.2-0.2,0.2c-0.1,0.2,0-0.1,0.1-0.2
								l0,0c0.3-0.5-0.1,0-0.1,0l0.3-0.3l-0.2,0.3c0.1-0.1,0.2-0.3,0.2-0.3c0.1-0.2-0.1,0.1,0-0.1c0,0,0,0,0-0.1l-0.1,0.1
								c0.1-0.1,0.2-0.2,0.1-0.2c0.1-0.2-0.2,0.2-0.1,0l0,0c-0.1,0.1-0.2,0.2-0.4,0.5l0.4-0.6l-0.2,0.2c0,0,0,0,0.1-0.1
								c-0.1,0.2-0.1,0.1-0.2,0.3c0.1-0.2-0.1,0.1,0.2-0.3c-0.1,0.2-0.1,0.2-0.2,0.3c0.3-0.4-0.1,0.1,0-0.2c0.2-0.2,0.1-0.1,0.2-0.3
								c-0.3,0.4,0-0.1,0,0c-0.2,0.3-0.1,0.1-0.2,0.2c0.1-0.1,0.1-0.2,0.1-0.3l0,0c-0.2,0.3-0.2,0.2-0.3,0.3
								c0.1-0.2,0.2-0.2,0.3-0.3l0,0c-0.1,0.1-0.1,0.1-0.1,0.2l0.2-0.2c0,0-0.2,0.2-0.2,0.1c-0.2,0.2-0.4,0.6-0.5,0.7
								c0.1-0.1,0.2-0.3,0.3-0.3c0,0-0.1,0.1,0,0l0.1-0.2c0-0.1-0.1,0.2-0.1,0.1c0.1-0.2,0.1-0.1,0.2-0.2c0,0,0,0.1,0,0
								c0,0,0.1-0.1,0.1-0.3c-0.1,0.1-0.2,0.2-0.2,0.2c0,0,0.1-0.2,0.2-0.3c-0.1,0.1,0,0-0.2,0.2c0,0,0.1-0.1,0.1-0.2
								c-0.1,0.1-0.1,0-0.2,0.3l0,0c0,0,0,0,0,0c0,0,0,0,0,0l0,0c-0.2,0.2,0-0.2-0.1-0.1l0.1-0.1c-0.1,0.1-0.1,0-0.2,0.2
								c0,0,0.1-0.2,0.2-0.3c-0.1,0-0.1,0.1-0.1,0c0.1-0.1,0.1-0.1,0.1-0.1c0-0.1,0.1-0.2-0.1,0c0.2-0.2,0.2-0.3,0.1-0.2l-0.1,0.2
								c0,0,0,0,0,0l0.2-0.3c0.2-0.4-0.5,0.5-0.1-0.1c-0.1,0.2-0.1,0.2-0.2,0.4c0-0.1,0.3-0.5,0.3-0.5c0.1-0.2-0.3,0.4-0.3,0.3
								c-0.1,0.1-0.2,0.4-0.3,0.4c0-0.1,0.3-0.4,0.3-0.5c0,0,0,0,0,0.1c0,0,0.1-0.1,0.1-0.2l-0.1,0.1c0.1-0.1,0-0.1,0.1-0.3
								c-0.1,0.1-0.1,0.2-0.1,0.2c0.1-0.2,0,0,0-0.1c0,0.1-0.1,0.2-0.1,0.2c0-0.1-0.1,0.2-0.2,0.2c0.1-0.2,0.3-0.3,0.1-0.2
								c0.1-0.1,0.2-0.3,0.2-0.3c-0.2,0.2,0-0.2,0.1-0.2l0.1-0.1c0,0,0,0-0.1,0l-0.1,0.2c0,0,0,0,0.1-0.1c-0.1,0.1-0.2,0.3-0.4,0.5
								c0.1-0.1-0.1,0.1,0.1-0.2c0,0.1,0.2-0.3,0.2-0.3c0,0,0,0,0,0c0,0,0-0.1,0.1-0.1c0.1-0.3-0.2,0.3-0.3,0.2
								c0.1-0.1,0.2-0.3,0.2-0.3c0,0-0.2,0.2-0.3,0.3c0.1-0.1-0.1,0.1-0.1,0l0,0.1c-0.1,0.1-0.1,0.1-0.2,0.1
								c0.1-0.1,0.1-0.1,0.1-0.1c-0.2,0.2,0.2-0.3,0-0.1c0.1-0.1,0.2-0.3,0.2-0.3c-0.2,0.2,0.1-0.2,0-0.1c-0.1,0.2-0.1,0.2-0.3,0.3
								l0.1-0.1l-0.2,0.3c0,0,0.1-0.1,0.1-0.1c-0.1,0.1-0.1,0.1-0.2,0.3c0.2-0.3-0.2,0.1,0-0.1l0.3-0.5c0.1-0.2-0.2,0.2-0.2,0.1
								l0,0.1c-0.1,0.2,0,0-0.1,0.1c0.1-0.2,0.2-0.2,0.2-0.3c-0.1,0.1,0,0-0.3,0.3l0.1-0.2c0-0.1-0.4,0.4-0.4,0.4
								c0.1-0.2,0.2-0.3,0.3-0.4c0,0,0,0-0.1,0.1c0.1-0.1-0.2,0.2-0.1,0c-0.1,0.1-0.2,0.2-0.2,0.2c0,0,0.1-0.1,0.1-0.1
								c-0.1,0.1-0.1,0.1-0.2,0.3c0.3-0.5-0.1,0,0.2-0.5c-0.1,0-0.1,0.1-0.2,0.1c0,0,0.1-0.1,0-0.1c0.1-0.2-0.3,0.4-0.3,0.3
								c0.2-0.3,0.1-0.1,0.2-0.2c0.4-0.5-0.1,0,0.1-0.3l0,0c0.1-0.2-0.2,0.2-0.2,0.1c0,0,0,0,0.1-0.1c-0.2,0.3-0.3,0.3-0.4,0.4
								c0.2-0.2,0.1-0.1,0.2-0.3c0,0-0.2,0.3-0.3,0.4c0.1-0.1,0.1-0.2,0.3-0.5l0,0c0.2-0.3,0,0,0-0.1l0.1-0.1
								c-0.1,0-0.3,0.3-0.3,0.3l-0.1,0.1c-0.2,0.3,0.1-0.2-0.1,0l0.2-0.3c-0.1,0.1-0.3,0.3-0.3,0.3c0.2-0.2,0.3-0.3,0.4-0.5
								c0,0-0.1,0-0.2,0.1c0,0,0.1-0.1,0.1,0c-0.2,0.2-0.3,0.3-0.3,0.3c0.5-0.6,0-0.2,0.4-0.7c-0.2,0.2,0-0.2-0.1-0.2
								c-0.3,0.5,0,0-0.4,0.5c0,0,0,0,0,0l0.2-0.3c0.1-0.2,0.1-0.1,0.2-0.2c0-0.1,0.1-0.2,0.2-0.4c-0.1,0.2-0.2,0.2-0.2,0.2
								l-0.1,0.2c-0.2,0.2,0.3-0.4,0-0.2l0.1-0.1c-0.1,0.1-0.1-0.1-0.4,0.3c0-0.1,0.1-0.2,0.2-0.2c0-0.1-0.4,0.3-0.3,0.1l0.1-0.1
								c0,0-0.2,0.2-0.1,0.1c0,0,0.1-0.1,0.1-0.1c0,0-0.2,0.2-0.1,0.1l0.1-0.1c0.1-0.2-0.3,0.3-0.4,0.3c0.3-0.4,0.3-0.5,0.3-0.6
								l0-0.1c0-0.1-0.3,0.2-0.5,0.3c0.2-0.4,0-0.2,0.1-0.5c0,0.1-0.2,0.3-0.2,0.3c0-0.1-0.2,0.2,0-0.1l0,0c0.2-0.3,0.1-0.3,0.1-0.3
								l-0.3,0.4c0.4-0.7-0.3,0.1,0.1-0.4c-0.1,0.1-0.1,0.1-0.2,0.2l0.2-0.2c0-0.1,0-0.1-0.1-0.1l0.1-0.2c0,0-0.5,0.6-0.5,0.6
								l0.2-0.3c0,0,0.1-0.4-0.1-0.1c0,0,0.1-0.1,0.1-0.2c0,0,0.1-0.3-0.2,0.2c0.2-0.3,0-0.1-0.1,0.1l0.2-0.2
								c-0.2,0.3-0.3,0.4-0.4,0.4c0,0,0.1-0.2,0.1-0.1c0.1-0.1-0.2,0.2-0.1,0.1l0.1-0.1c0,0-0.1,0-0.2,0.2c-0.1,0.1,0-0.1,0.1-0.3
								c-0.1,0.1-0.2,0.3-0.2,0.2c0.1-0.1,0.1-0.1,0.1-0.1c0.1-0.2-0.2,0.2-0.1,0c0.1-0.1,0.1-0.1,0.1-0.1c0,0,0,0.1,0,0.1
								c0.2-0.2,0.2-0.3,0.4-0.5c-0.1,0.1-0.4,0.5-0.4,0.4c0,0,0,0,0-0.1l0,0c0,0,0,0,0,0c0,0,0-0.1,0-0.1c0.1-0.2,0-0.1,0-0.1
								c-0.2,0.2-0.2,0.2-0.3,0.4c0,0,0,0,0,0c0,0,0,0,0,0c0,0,0,0,0,0c0,0,0,0,0,0c-0.1,0.1-0.2,0.2-0.1,0.1
								c-0.1,0.1-0.2,0.3-0.3,0.4c0.2-0.3,0.3-0.5,0.4-0.7c-0.1,0.1-0.1,0-0.5,0.4c0,0,0.1-0.1,0.1-0.2c0,0,0,0,0.1-0.1
								c-0.1,0.1-0.1,0-0.3,0.3c0.1-0.2,0.2-0.3,0.1-0.2l0.1-0.1c0.3-0.5-0.7,0.7-0.3,0c0,0,0,0.1-0.1,0.1c0.1-0.3-0.3,0.1-0.1-0.4
								c0-0.1-0.1,0.1-0.2,0.2l0.2-0.2l-0.2,0.3c-0.2,0.2,0.4-0.6,0.1-0.3l-0.1,0.2c0,0-0.1,0.1,0-0.1c0,0-0.1,0.2-0.1,0.1l0.1-0.1
								l-0.2,0.2c0-0.1,0.4-0.5,0.3-0.6c-0.1,0-0.3,0.3-0.4,0.4c0,0,0,0.1-0.1,0.2l-0.1,0.1c-0.3,0.4-0.6,0.8-0.7,1l0.2-0.2
								l-0.1,0.2l0,0c-0.1,0.2,0,0,0.1-0.1c-0.1,0.1-0.1,0.2-0.1,0.2l0.3-0.3c-0.1,0.1-0.2,0.3-0.3,0.4c0.1-0.2,0.2-0.3,0.3-0.4
								c-0.1,0.2-0.2,0.3-0.1,0.2c-0.1,0.1-0.1,0.2-0.2,0.2c0.1-0.1,0.1,0,0.2-0.2c-0.1,0.2,0.1,0-0.2,0.3c0.1-0.1,0.2-0.3,0.2-0.3
								c-0.3,0.4,0,0.1-0.3,0.5c0.3-0.4,0.2-0.1,0.4-0.3c0,0-0.1,0.1-0.1,0.1c0,0-0.1,0.2-0.1,0.2c0.2-0.3,0.3-0.4,0.5-0.6
								c-0.2,0.3-0.3,0.4-0.5,0.7c0.2-0.3,0.2-0.2,0.4-0.5c-0.1,0.2-0.1,0.1-0.2,0.4c0.3-0.4,0.1-0.1,0.3-0.3
								c-0.1,0.2-0.3,0.4-0.2,0.3C180,121.2,179.9,121.3,179.9,121.3z M180.9,121C180.9,121,180.9,121,180.9,121
								C180.9,121,180.9,121,180.9,121C180.9,121,180.9,121,180.9,121z M181,121.1C181,121,181,121,181,121.1c0-0.1,0.1-0.2,0.1-0.2
								C181.1,120.9,181,121,181,121.1z M182,119.4C182.1,119.4,182,119.4,182,119.4C182,119.5,182,119.5,182,119.4
								c-0.1,0.1-0.1,0.1-0.1,0.1C182,119.5,182,119.4,182,119.4z"/>
							<path fill="#A6A6A6" d="M181.8,119.7C181.8,119.7,181.8,119.7,181.8,119.7C181.8,119.7,181.8,119.8,181.8,119.7
								C181.8,119.7,181.8,119.7,181.8,119.7C181.8,119.7,181.8,119.7,181.8,119.7z"/>
							<path fill="#A6A6A6" d="M185.7,123L185.7,123C185.7,123,185.7,123,185.7,123C185.7,123,185.7,123,185.7,123z"/>
							<polygon fill="#A6A6A6" points="181.3,121.9 181.3,121.9 181.3,121.9 							"/>
							<path fill="#A6A6A6" d="M185.4,124C185.3,124,185.3,124,185.4,124C185.3,124,185.3,124,185.4,124z"/>
							<path fill="#A6A6A6" d="M185.4,124.1L185.4,124.1C185.4,124.1,185.4,124.1,185.4,124.1z"/>
							<path fill="#A6A6A6" d="M185.4,124.3C185.5,124.2,185.5,124.2,185.4,124.3C185.5,124.2,185.5,124.2,185.4,124.3L185.4,124.3z
								"/>
							<path fill="#A6A6A6" d="M183.9,123.6C183.9,123.6,183.9,123.6,183.9,123.6C183.9,123.6,183.9,123.6,183.9,123.6z"/>
							<path fill="#A6A6A6" d="M184.7,123.3C184.7,123.4,184.6,123.4,184.7,123.3C184.6,123.5,184.6,123.5,184.7,123.3z"/>
							<polygon fill="#A6A6A6" points="183.3,123.5 183.3,123.5 183.3,123.5 							"/>
							<path fill="#A6A6A6" d="M184.6,123.4C184.6,123.5,184.6,123.5,184.6,123.4C184.6,123.4,184.6,123.4,184.6,123.4z"/>
							<path fill="#A6A6A6" d="M185.7,124.6L185.7,124.6C185.7,124.6,185.7,124.6,185.7,124.6L185.7,124.6z"/>
							<path fill="#A6A6A6" d="M185.7,124.6L185.7,124.6C185.8,124.6,185.8,124.6,185.7,124.6z"/>
							<path fill="#A6A6A6" d="M185.8,124.5L185.8,124.5C185.8,124.6,185.8,124.6,185.8,124.5z"/>
							<path fill="#A6A6A6" d="M185.7,124.5L185.7,124.5C185.6,124.5,185.7,124.5,185.7,124.5z"/>
							<path fill="#A6A6A6" d="M185.6,124.5c0,0-0.1,0.2-0.1,0.1L185.6,124.5C185.5,124.7,185.7,124.3,185.6,124.5z"/>
							<path fill="#A6A6A6" d="M186.2,123.3L186.2,123.3c0,0,0.1-0.1,0.1-0.1C186.5,122.9,186.2,123.4,186.2,123.3z"/>
							<path fill="#A6A6A6" d="M186.2,123.1c0,0,0.1-0.1,0.1-0.2C186.3,123,186.3,123.1,186.2,123.1z"/>
							<path fill="#A6A6A6" d="M185.6,122.7l0.2-0.2C185.7,122.5,185.7,122.6,185.6,122.7z"/>
							<polygon fill="#A6A6A6" points="184.7,123.7 184.6,123.8 184.8,123.6 							"/>
							<polygon fill="#A6A6A6" points="185.7,122.1 185.7,122.1 185.7,122.2 							"/>
							<path fill="#A6A6A6" d="M184.6,121.5l-0.2,0.3C184.5,121.7,184.7,121.4,184.6,121.5z"/>
							<path fill="#A6A6A6" d="M184,121.4c0.1-0.1,0.1-0.2,0-0.1C184,121.3,183.9,121.4,184,121.4z"/>
							<polygon fill="#A6A6A6" points="182.9,120 183,119.9 182.9,120 							"/>
						</g>
					</g>
				</g>
			</g>
		</g>
		<g>
			<g>
				<g>
					<g>
						<g>
							<path fill="#A6A6A6" d="M190.8,116.1c0.1-0.1,0.2-0.2,0.2-0.2L190.8,116.1L190.8,116.1z"/>
							<path fill="#A6A6A6" d="M191.2,115.6c-0.1,0.1-0.4,0.3-0.6,0.5c0.3-0.2,0.2-0.1,0.5-0.3c0,0-0.1,0.1-0.2,0.2
								c0.1-0.1,0,0.1,0.1-0.1c0.2-0.2,0.2-0.2,0-0.1C191.1,115.7,191.2,115.7,191.2,115.6z"/>
							<path fill="#A6A6A6" d="M190.5,114L190.5,114C190.5,114,190.5,114,190.5,114z"/>
							<path fill="#A6A6A6" d="M189.9,113C189.9,113,189.9,113,189.9,113C189.9,113,189.9,113,189.9,113z"/>
							<path fill="#A6A6A6" d="M190.1,112.6C190.1,112.7,190.1,112.7,190.1,112.6C190.1,112.6,190.1,112.6,190.1,112.6z"/>
							<path fill="#A6A6A6" d="M190.5,114L190.5,114C190.5,113.9,190.5,113.9,190.5,114z"/>
							<path fill="#A6A6A6" d="M190.5,116C190.5,116,190.5,115.9,190.5,116C190.5,115.9,190.5,115.9,190.5,116
								C190.5,115.9,190.5,116,190.5,116z"/>
							<path fill="#A6A6A6" d="M191,114.2L191,114.2c0,0,0.1,0,0.1-0.1L191,114.2z"/>
							<path fill="#A6A6A6" d="M191.3,114.4c0,0-0.2,0.2-0.3,0.2c0.1-0.1,0.1-0.1,0.2-0.1C191.2,114.5,191.2,114.5,191.3,114.4z"/>
							<path fill="#A6A6A6" d="M191.3,115.2L191.3,115.2C191.3,115.1,191.3,115.2,191.3,115.2z"/>
							<path fill="#A6A6A6" d="M190.9,113.9C190.9,113.9,190.9,113.9,190.9,113.9C190.9,113.9,190.9,113.9,190.9,113.9z"/>
							<path fill="#A6A6A6" d="M182.6,107.5C182.6,107.5,182.6,107.5,182.6,107.5C182.6,107.5,182.6,107.5,182.6,107.5z"/>
							<path fill="#A6A6A6" d="M183.4,106.3L183.4,106.3c0.1,0,0.1-0.1,0.1-0.1L183.4,106.3z"/>
							<path fill="#A6A6A6" d="M190.1,112.2C190.1,112.2,190.1,112.2,190.1,112.2C190.1,112.1,190.1,112.1,190.1,112.2z"/>
							<path fill="#A6A6A6" d="M187.9,109.9c-0.2,0.2-0.3,0.2-0.5,0.4C187.6,110.2,187.8,110.1,187.9,109.9z"/>
							<path fill="#A6A6A6" d="M190.5,115.9C190.5,115.9,190.5,115.9,190.5,115.9C190.5,115.9,190.5,115.9,190.5,115.9z"/>
							<path fill="#A6A6A6" d="M187.5,110.3C187.5,110.3,187.5,110.3,187.5,110.3L187.5,110.3C187.5,110.3,187.5,110.3,187.5,110.3z
								"/>
							<path fill="#A6A6A6" d="M189.5,111.7C189.4,111.7,189.4,111.7,189.5,111.7C189.4,111.7,189.4,111.7,189.5,111.7z"/>
							<path fill="#A6A6A6" d="M189.6,112.4L189.6,112.4C189.6,112.4,189.6,112.4,189.6,112.4z"/>
							<path fill="#A6A6A6" d="M189,111.7C189,111.7,189,111.7,189,111.7C189,111.7,189,111.7,189,111.7
								C189,111.7,189,111.7,189,111.7z"/>
							<path fill="#A6A6A6" d="M188.8,111.5C188.8,111.5,188.8,111.5,188.8,111.5C188.7,111.5,188.8,111.5,188.8,111.5L188.8,111.5z
								"/>
							<path fill="#A6A6A6" d="M183.3,108.1c0.1-0.1,0.1-0.1,0.2-0.2C183.4,108.1,183.3,108.1,183.3,108.1z"/>
							<path fill="#A6A6A6" d="M190.6,115.9C190.5,115.9,190.5,115.9,190.6,115.9C190.5,115.9,190.5,115.9,190.6,115.9
								C190.5,115.9,190.6,115.9,190.6,115.9z"/>
							<path fill="#A6A6A6" d="M187.3,113.1L187.3,113.1C187.3,113.1,187.3,113.1,187.3,113.1z"/>
							<path fill="#A6A6A6" d="M184.8,109.8L184.8,109.8C184.8,109.9,184.8,109.9,184.8,109.8z"/>
							<path fill="#A6A6A6" d="M187.2,113c0.1-0.1,0.1-0.1,0.1-0.1c0,0,0,0-0.1,0L187.2,113z"/>
							<path fill="#A6A6A6" d="M183.5,108C183.5,108,183.5,108,183.5,108C183.5,108,183.5,108,183.5,108z"/>
							<path fill="#A6A6A6" d="M182.8,108.2c0,0,0.3-0.2,0.5-0.3c0.1,0-0.2,0.2-0.3,0.3c0.1,0,0.4-0.2,0.4-0.2c0,0-0.1,0.1-0.1,0.1
								c0.2-0.2,0.1,0.1,0.4-0.1c0,0,0,0-0.1,0.1c0.1-0.1,0.3-0.2,0.4-0.3c0,0,0.2-0.1,0,0c0,0-0.1,0-0.1,0.1l0.1-0.1
								c-0.3,0.2-0.1,0.1-0.3,0.2c0.1,0,0.4-0.2,0.3-0.1c-0.3,0.2-0.1,0-0.3,0.2l0.1-0.1c-0.4,0.4,0,0-0.4,0.4
								c0,0.1,0.2-0.1,0.1,0.1c0.2-0.1,0.2-0.2,0.4-0.3c0.3-0.1-0.6,0.6-0.2,0.4c0.2-0.1,0.5-0.4,0.4-0.2l-0.3,0.2
								c0,0.1,0.4-0.3,0.3-0.1c-0.1,0.1-0.1,0-0.2,0.1c-0.2,0.2,0.2-0.1,0.2-0.1l-0.3,0.2c0.1,0,0.3-0.1,0.4-0.1
								c-0.1,0.1-0.2,0.1-0.2,0.2c0.2,0,0.1,0.2,0,0.4l0.2-0.2c0,0-0.1,0.1-0.1,0.1c-0.1,0.1,0.1-0.1,0.2-0.2c0,0-0.1,0.1-0.2,0.2
								c0.2-0.1,0.5-0.2,0.3,0l-0.1,0c-0.1,0.1,0.5-0.3,0.3-0.1l0,0c0,0.2,0.3,0.1,0,0.4c0.3-0.3-0.1,0.2,0.4-0.2
								c-0.2,0.2-0.3,0.3-0.4,0.5c0,0,0.3-0.2,0.4-0.2l-0.2,0.2l0.3-0.2l-0.3,0.3l0.1,0c0,0,0.1-0.1,0.2-0.2
								c0.1-0.1-0.1,0.2-0.2,0.3l0.3-0.1c-0.1,0.1-0.1,0.1-0.2,0.1c0.3-0.2-0.2,0.2,0,0.1c0-0.1,0.1-0.1,0.2-0.2
								c-0.1,0.1-0.1,0.2,0,0.2l-0.2,0.1c0,0.1,0.2,0.1,0.2,0.1c0.1-0.1,0.3-0.3,0.4-0.3l-0.2,0.2c0.2-0.1,0.1-0.1,0.3-0.2
								c0,0-0.3,0.3-0.4,0.3l0.1,0c-0.1,0.1-0.1,0.1-0.2,0.2c0.2-0.1-0.2,0.3,0.1,0.1l-0.1,0.1c0.1,0.1,0.2,0,0.2,0.1
								c0.2-0.2,0.2-0.1,0.4-0.3c0,0.1-0.2,0.3-0.1,0.3c0.1-0.1,0.2-0.1,0.3-0.2c-0.2,0.2-0.1,0.2-0.3,0.3c0.1,0,0.1,0,0.3,0
								c0.1-0.1,0.1-0.1,0.2-0.2c0,0-0.1,0.1-0.2,0.2l0,0c0.4-0.2-0.4,0.7,0.1,0.4l0,0l0.3-0.1c0,0.1-0.2,0.1-0.3,0.2
								c0.4-0.2,0.1,0.2,0.3,0c-0.5,0.5,0.2,0.1-0.1,0.5l0.1-0.1c0.1-0.1-0.1,0.1-0.1,0.1c0.1-0.1,0.1-0.1,0.2-0.2
								c0.3,0,0,0.5,0,0.7c0,0.1,0.7-0.6,0.5-0.2l-0.3,0.2c0.4-0.2,0.2,0.2,0.5,0.1c-0.1,0-0.1,0.1-0.1,0.1c-0.2,0.2,0.1,0.1,0.2,0
								c0,0-0.1,0.1-0.2,0.2c-0.1,0.1,0.3-0.1,0.1,0c0,0-0.1,0-0.1,0.1c0.1-0.1,0,0.1,0.2-0.1c-0.1,0.1,0.2,0,0.1,0.1
								c0.3-0.2-0.1,0.2,0.3-0.1c-0.3,0.3-0.2,0.3,0,0.2c-0.1,0.1-0.1,0.1-0.2,0.2c0,0,0.1,0,0.3-0.2c-0.4,0.4,0.4-0.2-0.1,0.3
								c0.3-0.1,0.4-0.1,0.6-0.1c-0.3,0.3-0.1-0.1-0.5,0.3c0.2-0.1,0.5-0.3,0.5-0.1c0,0.1-0.2,0.1-0.2,0.2c0.2-0.1,0.1,0.2,0.3,0.1
								c0,0-0.1,0.1-0.1,0.1c0,0,0,0.1,0.1-0.1l-0.1,0c0.2-0.2,0.5-0.4,0.6-0.5c-0.5,0.4-0.1,0.2-0.7,0.6c0,0,0.1-0.1,0.2-0.2
								c0,0-0.1,0.1-0.2,0.2c0.1,0,0.3-0.2,0.3-0.1c-0.1,0.1-0.1,0.1-0.2,0.2c0.2-0.1,0.3-0.2,0.3-0.1c0,0-0.1,0.1-0.1,0.1
								c0.1,0,0.5-0.2,0.4-0.1c-0.3,0.3-0.1,0.1-0.4,0.4l0.1,0l0.1-0.1c0,0,0.3-0.1,0.2,0l-0.1,0.1l0.1,0l0.1-0.1
								c0.2-0.1,0.4-0.3,0.3-0.2c0,0,0,0-0.1,0.2c0,0,0,0,0,0c0.1-0.1,0.2-0.1,0.2,0c-0.1,0.1-0.3,0.3-0.4,0.3
								c0.2-0.2,0.1,0,0.4-0.2c-0.1,0-0.2,0.2-0.2,0.2l0.2-0.2c0,0.1-0.1,0.1-0.2,0.2c0,0.1,0.3-0.3,0.2-0.1c0,0,0,0-0.1,0.1
								c0,0.1,0.2,0,0.1,0.1c-0.3,0.3-0.1,0-0.3,0.2c0.1,0,0.5-0.2,0.4,0l0,0c0.4-0.3-0.2,0.2,0.1,0.1c0,0-0.2,0.2-0.2,0.1
								c0,0.1,0.2,0,0.4,0l-0.1,0.1c-0.1,0.1,0,0.1,0,0.2c0.1-0.1,0.1,0,0.2-0.2c-0.5,0.6,0.5-0.1,0,0.4c0,0-0.1,0.1-0.1,0.1l0.2,0
								c0.2-0.2,0.1-0.1,0.2-0.2c0.1-0.1,0.2-0.1,0.2-0.1c-0.1,0.1-0.3,0.2-0.4,0.3c0.1,0,0.1-0.1,0.2-0.1c-0.3,0.3,0.4-0.3,0.2-0.1
								l-0.1,0.1c0.1,0,0.2-0.1,0.2-0.1c-0.2,0.2-0.1,0.1-0.3,0.2c0,0,0.4-0.3,0.2-0.1c-0.1,0-0.1,0-0.1,0.1
								c-0.2,0.2-0.2,0.2-0.2,0.2l0,0l-0.1,0.1l0.1-0.1c0.6-0.4,0.2,0,0.5-0.3c-0.4,0.2-0.2,0.2-0.4,0.3c-0.1,0.1-0.1,0.1-0.2,0.2
								c0.2-0.1-0.1,0.2,0.2,0c-0.1,0.1,0,0-0.2,0.2c0.1,0,0.1-0.1,0.2-0.2c0.3-0.2-0.2,0.4,0.2,0.1c0.2-0.1,0.4-0.3,0.6-0.3
								c-0.1,0.1-0.3,0.2-0.3,0.2c-0.1,0.1,0,0.1,0.1,0.1c-0.1,0.1-0.1,0.1-0.2,0.2c0,0,0.3-0.2,0.2-0.1c-0.1,0.1-0.2,0.2-0.3,0.2
								c0.1,0,0.2-0.1,0.3-0.2c-0.1,0.1-0.2,0.2-0.3,0.2c0.1,0,0.2,0,0.4-0.2l0.1-0.1c0,0-0.2,0.2-0.2,0.2c-0.2,0.1,0-0.1,0.1-0.2
								l0.1,0c0.4-0.4-0.1,0-0.1-0.1l0.3-0.3l-0.3,0.2c0.1-0.1,0.2-0.2,0.3-0.3c0.1-0.2-0.1,0.1,0-0.1c0,0,0,0,0.1,0l-0.1,0.1
								c0.1-0.1,0.2-0.2,0.2-0.1c0.1-0.2-0.3,0.1-0.1-0.1l0,0c-0.2,0-0.2,0.2-0.5,0.4l0.5-0.5L191,115c0,0,0,0,0.1-0.1
								c-0.2,0.1-0.1,0.1-0.3,0.2c0.2-0.2-0.2,0,0.2-0.3c-0.2,0.1-0.1,0.1-0.3,0.2c0.4-0.3-0.1,0,0.1-0.2c0.2-0.2,0.1,0,0.3-0.2
								c-0.4,0.3,0-0.1-0.1-0.1c-0.3,0.2-0.2,0-0.3,0.1c0.1-0.1,0.1-0.2,0.2-0.3l0,0c-0.3,0.2-0.3,0.1-0.3,0.2
								c0.2-0.1,0.2-0.2,0.3-0.2l0,0c-0.1,0.1-0.1,0.1-0.2,0.1l0.2-0.2c0,0-0.3,0.1-0.2,0c-0.2,0.2-0.5,0.5-0.7,0.6
								c0.1-0.1,0.3-0.2,0.3-0.3c0,0-0.1,0.1-0.1,0l0.2-0.1c0.1-0.1-0.2,0.1-0.2,0.1c0.2-0.1,0.1-0.1,0.2-0.2c0,0-0.1,0.1,0,0
								c0,0,0.1-0.1,0.2-0.2c-0.1,0.1-0.2,0.2-0.2,0.2c0,0,0.2-0.2,0.2-0.3c-0.1,0.1,0,0-0.2,0.2c0,0,0.1-0.1,0.2-0.2
								c-0.1,0.1-0.1-0.1-0.3,0.2l0,0c0,0,0,0,0,0c0,0,0,0,0,0l0,0c-0.3,0.1,0-0.2-0.1-0.2l0.1-0.1c-0.1,0-0.1,0-0.3,0.1
								c0,0,0.1-0.1,0.2-0.2c-0.1,0-0.2,0.1-0.1-0.1c0.2-0.1,0.1-0.1,0.1-0.1c0-0.1,0.1-0.2-0.1-0.1c0.2-0.2,0.2-0.2,0.1-0.2
								l-0.1,0.1c0,0,0,0,0-0.1l0.3-0.2c0.2-0.3-0.6,0.3-0.2-0.2c-0.2,0.1-0.1,0.1-0.3,0.3c0-0.1,0.3-0.4,0.3-0.4
								c0.1-0.2-0.4,0.3-0.3,0.1c-0.1,0.1-0.3,0.3-0.4,0.3c0-0.1,0.3-0.4,0.4-0.4c0,0,0,0,0,0.1c0,0,0.1,0,0.2-0.1l-0.1,0.1
								c0.1-0.1,0-0.1,0.2-0.2c-0.1,0-0.2,0.1-0.2,0.2c0.1-0.2-0.1-0.1,0-0.2c0,0-0.1,0.1-0.1,0.1c0.1-0.2-0.2,0.1-0.3,0.1
								c0.1-0.1,0.3-0.3,0.2-0.2c0.1-0.1,0.2-0.2,0.3-0.3c-0.2,0.1,0.1-0.2,0.1-0.2l0.1,0c-0.1,0-0.1,0-0.1,0l-0.2,0.2
								c0,0,0,0,0.1-0.1c-0.1,0.1-0.3,0.3-0.5,0.4c0.1-0.1-0.1,0,0.1-0.2c0,0.1,0.2-0.2,0.3-0.2c0,0,0,0,0,0c0,0,0.1,0,0.1,0
								c0.2-0.2-0.3,0.2-0.3,0.2c0.1-0.1,0.2-0.2,0.2-0.2c0,0-0.2,0.2-0.3,0.3c0.1-0.1-0.1,0-0.1,0l0,0.1c-0.1,0.1-0.1,0.1-0.2,0.1
								c0.1-0.1,0.1,0,0.1-0.1c-0.3,0.2,0.2-0.3,0-0.2c0.1-0.1,0.3-0.2,0.3-0.3c-0.2,0.1,0.1-0.2,0-0.1c-0.2,0.2-0.1,0.1-0.3,0.3
								l0.2,0l-0.3,0.2c0,0,0.2-0.1,0.1,0c-0.2,0.1-0.1,0.1-0.3,0.2c0.2-0.3-0.2,0.1,0-0.1l0.4-0.4c0.2-0.2-0.3,0.1-0.2,0l-0.1,0.1
								c-0.2,0.1-0.1,0-0.1,0c0.2-0.1,0.2-0.2,0.3-0.3c-0.1,0.1,0-0.1-0.3,0.2l0.2-0.2c0-0.1-0.5,0.3-0.5,0.2
								c0.2-0.1,0.3-0.2,0.4-0.3c0,0,0-0.1-0.1,0c0.1-0.1-0.2,0.1-0.1,0c-0.1,0-0.2,0.2-0.2,0.2c0,0,0.1-0.1,0.1-0.1
								c-0.1,0.1-0.1,0.1-0.3,0.2c0.4-0.4-0.2-0.1,0.2-0.5c-0.1,0-0.2,0-0.2,0c0,0,0.1-0.1,0.1,0c0.1-0.2-0.5,0.3-0.3,0.2
								c0.2-0.2,0.2-0.1,0.2-0.2c0.5-0.4-0.1,0,0.1-0.3l0,0c0.1-0.2-0.2,0.1-0.2,0c0,0,0,0,0.1-0.1c-0.3,0.2-0.4,0.2-0.5,0.2
								c0.2-0.2,0.1-0.1,0.3-0.2c0,0-0.3,0.3-0.4,0.3c0.1-0.1,0.2-0.2,0.4-0.4l0,0c0.3-0.2,0,0,0-0.1l0.1-0.1
								c-0.1,0-0.4,0.2-0.4,0.2l-0.1,0.1c-0.3,0.2,0.1-0.2-0.1,0l0.3-0.3c-0.1,0-0.4,0.2-0.4,0.2c0.2-0.2,0.4-0.2,0.5-0.3
								c0,0-0.1,0-0.2,0.1c0,0,0.1-0.1,0.1,0c-0.3,0.2-0.4,0.2-0.4,0.2c0.6-0.5,0.1-0.2,0.5-0.6c-0.3,0.1,0-0.2-0.1-0.3
								c-0.4,0.4,0,0-0.5,0.4c0,0,0,0,0,0l0.2-0.3c0.1-0.1,0.1-0.1,0.2-0.2c0-0.1,0.2-0.2,0.3-0.3c-0.2,0.1-0.3,0.2-0.2,0.1
								l-0.2,0.2c-0.3,0.2,0.3-0.4,0.1-0.2l0.2-0.1c-0.1,0-0.1-0.1-0.5,0.2c0-0.1,0.2-0.2,0.2-0.2c0-0.1-0.5,0.2-0.4-0.1l0.1-0.1
								c0,0-0.2,0.2-0.1,0c0,0,0.1-0.1,0.1-0.1c0,0-0.2,0.1-0.2,0.1l0.1-0.1c0.1-0.2-0.4,0.2-0.5,0.2c0.3-0.3,0.4-0.4,0.4-0.5l0,0
								c0-0.1-0.4,0.1-0.6,0.1c0.3-0.4,0-0.3,0.2-0.5c-0.1,0.1-0.3,0.2-0.3,0.2c0.1-0.1-0.3,0.1,0-0.1l0,0c0.3-0.3,0.2-0.2,0.2-0.3
								l-0.4,0.3c0.5-0.6-0.4,0,0.1-0.5c-0.1,0.1-0.1,0-0.2,0.1l0.2-0.2c0-0.1,0-0.1-0.1-0.2l0.2-0.1c0,0-0.7,0.5-0.7,0.5l0.3-0.3
								c-0.1-0.1,0.2-0.4-0.2-0.2c0,0,0.1-0.1,0.2-0.1c0,0,0.1-0.3-0.3,0.1c0.3-0.2,0-0.1-0.2,0l0.2-0.2c-0.3,0.2-0.4,0.3-0.5,0.3
								c0,0,0.2-0.2,0.1-0.1c0.1-0.1-0.2,0.1-0.1,0l0.1-0.1c0,0-0.1,0-0.3,0.1c-0.1,0.1,0-0.1,0.2-0.3c-0.1,0.1-0.3,0.2-0.3,0.1
								c0.1-0.1,0.1-0.1,0.1-0.1c0.1-0.2-0.3,0.1-0.1-0.1c0.1-0.1,0.1-0.1,0.1-0.1c0,0,0,0.1,0,0.1c0.2-0.2,0.2-0.2,0.5-0.4
								c-0.2,0.1-0.5,0.3-0.5,0.2c0,0,0,0,0.1-0.1l0,0c0,0,0,0,0,0c0,0,0-0.1,0-0.1c0.2-0.1,0.1-0.1,0-0.1c-0.2,0.2-0.2,0.1-0.4,0.3
								c0,0,0,0,0,0c0,0,0,0,0,0c0,0,0,0,0,0c0,0,0,0,0.1,0c-0.1,0.1-0.2,0.1-0.1,0c-0.1,0.1-0.3,0.2-0.4,0.3
								c0.3-0.3,0.4-0.5,0.6-0.6c-0.2,0.1-0.2-0.1-0.6,0.3c-0.1,0,0.1-0.1,0.2-0.2c0,0,0,0,0.1-0.1c-0.1,0.1-0.1-0.1-0.4,0.2
								c0.1-0.1,0.3-0.2,0.2-0.2l0.1-0.1c0.4-0.5-0.9,0.5-0.4-0.2c0,0,0,0.1-0.1,0.1c0.1-0.3-0.5-0.1-0.2-0.5c0.1-0.1-0.1,0-0.3,0.1
								l0.2-0.2l-0.3,0.2c-0.2,0.1,0.5-0.6,0.1-0.3l-0.1,0.1c0,0-0.2,0,0-0.1c0,0-0.2,0.1-0.1,0.1l0.1-0.1l-0.3,0.1
								c0-0.1,0.5-0.4,0.4-0.5c-0.1,0-0.4,0.2-0.5,0.3c0,0-0.1,0.1-0.2,0.2l-0.1,0c-0.4,0.3-0.7,0.6-0.9,0.9l0.2-0.1l-0.2,0.2l0,0
								c-0.1,0.2,0,0,0.1,0c-0.1,0.1-0.1,0.1-0.2,0.2l0.4-0.3c-0.1,0.1-0.3,0.2-0.3,0.3c0.2-0.1,0.3-0.3,0.4-0.3
								c-0.1,0.2-0.3,0.3-0.1,0.2c-0.1,0.1-0.2,0.1-0.2,0.2c0.1-0.1,0.1,0,0.3-0.1c-0.2,0.2,0.1,0-0.2,0.3c0.1-0.1,0.3-0.2,0.3-0.2
								c-0.4,0.3,0,0.1-0.4,0.4c0.4-0.3,0.2-0.1,0.5-0.2c0,0-0.1,0.1-0.1,0c0,0-0.1,0.1-0.2,0.2c0.3-0.3,0.4-0.3,0.6-0.4
								c-0.3,0.3-0.4,0.3-0.6,0.5c0.2-0.2,0.3-0.2,0.5-0.3c-0.2,0.2-0.1,0.1-0.3,0.3c0.4-0.3,0.1,0,0.3-0.2
								c-0.2,0.2-0.3,0.3-0.2,0.2C183,108.1,182.8,108.2,182.8,108.2z M184.2,108.4C184.2,108.4,184.2,108.5,184.2,108.4
								C184.1,108.4,184.1,108.4,184.2,108.4C184.1,108.4,184.1,108.4,184.2,108.4z M184.2,108.5
								C184.2,108.5,184.2,108.5,184.2,108.5c0.1-0.1,0.1-0.2,0.1-0.2C184.3,108.4,184.3,108.5,184.2,108.5z M185.6,107.1
								C185.6,107.1,185.6,107.1,185.6,107.1C185.5,107.2,185.5,107.2,185.6,107.1c-0.1,0.1-0.1,0.1-0.1,0.1
								C185.5,107.2,185.5,107.1,185.6,107.1z"/>
							<path fill="#A6A6A6" d="M185.3,107.3C185.3,107.3,185.3,107.3,185.3,107.3C185.2,107.3,185.2,107.4,185.3,107.3
								C185.2,107.4,185.3,107.3,185.3,107.3C185.3,107.3,185.3,107.3,185.3,107.3z"/>
							<path fill="#A6A6A6" d="M190.4,114L190.4,114C190.4,114,190.4,114,190.4,114C190.4,114,190.4,114,190.4,114z"/>
							<polygon fill="#A6A6A6" points="184.6,109.8 184.7,109.8 184.6,109.8 							"/>
							<path fill="#A6A6A6" d="M190,115C190,115,190,115.1,190,115C190,115.1,190,115,190,115z"/>
							<path fill="#A6A6A6" d="M190.1,115.2L190.1,115.2C190.1,115.3,190.1,115.2,190.1,115.2z"/>
							<path fill="#A6A6A6" d="M190.1,115.5C190.2,115.4,190.2,115.4,190.1,115.5C190.2,115.4,190.2,115.4,190.1,115.5L190.1,115.5z
								"/>
							<path fill="#A6A6A6" d="M188.1,113.6C188.1,113.6,188.1,113.6,188.1,113.6C188.1,113.6,188.1,113.6,188.1,113.6z"/>
							<path fill="#A6A6A6" d="M189.2,113.8c0,0-0.1,0.1-0.1,0.1C189,113.9,189,113.9,189.2,113.8z"/>
							<polygon fill="#A6A6A6" points="187.3,113.1 187.3,113.1 187.3,113.1 							"/>
							<path fill="#A6A6A6" d="M189,113.8C189,113.9,189,113.9,189,113.8C189,113.8,189.1,113.8,189,113.8z"/>
							<path fill="#A6A6A6" d="M190.5,116.1L190.5,116.1C190.5,116.1,190.6,116.1,190.5,116.1L190.5,116.1z"/>
							<path fill="#A6A6A6" d="M190.6,116.1L190.6,116.1C190.6,116.1,190.6,116.1,190.6,116.1z"/>
							<path fill="#A6A6A6" d="M190.7,116L190.7,116C190.6,116.1,190.6,116.1,190.7,116z"/>
							<path fill="#A6A6A6" d="M190.5,115.8L190.5,115.8C190.4,115.9,190.4,115.9,190.5,115.8z"/>
							<path fill="#A6A6A6" d="M190.4,115.8c0,0-0.1,0.2-0.1,0.1L190.4,115.8C190.3,116,190.6,115.7,190.4,115.8z"/>
							<path fill="#A6A6A6" d="M191.2,114.8L191.2,114.8c0.1,0,0.2-0.1,0.2-0.1C191.6,114.4,191.2,114.9,191.2,114.8z"/>
							<path fill="#A6A6A6" d="M191.2,114.5c0.1,0,0.1-0.1,0.2-0.1C191.3,114.4,191.2,114.5,191.2,114.5z"/>
							<path fill="#A6A6A6" d="M190.4,113.6l0.2-0.2C190.5,113.4,190.5,113.5,190.4,113.6z"/>
							<polygon fill="#A6A6A6" points="189.2,114.2 189.1,114.3 189.3,114.2 							"/>
							<polygon fill="#A6A6A6" points="190.5,112.9 190.5,112.9 190.4,112.9 							"/>
							<path fill="#A6A6A6" d="M189,111.3l-0.2,0.2C188.8,111.5,189.1,111.3,189,111.3z"/>
							<path fill="#A6A6A6" d="M188.2,110.8c0.1-0.1,0.2-0.2,0-0.1C188.2,110.8,188.1,110.9,188.2,110.8z"/>
							<polygon fill="#A6A6A6" points="186.7,108.4 186.8,108.3 186.7,108.4 							"/>
						</g>
					</g>
				</g>
			</g>
		</g>
		<g>
			<g>
				<g>
					<g>
						<g>
							<path fill="#A6A6A6" d="M196.3,111.1c0.1,0,0.3-0.1,0.2-0.1L196.3,111.1L196.3,111.1z"/>
							<path fill="#A6A6A6" d="M196.9,110.9c-0.2,0-0.4,0.1-0.7,0.1c0.3,0,0.2,0,0.6-0.1c0,0-0.1,0-0.2,0.1c0.1,0-0.1,0,0.1,0
								c0.2-0.1,0.3-0.1,0-0.1C196.8,110.9,196.9,110.9,196.9,110.9z"/>
							<path fill="#A6A6A6" d="M197.2,109.4L197.2,109.4C197.1,109.5,197.1,109.5,197.2,109.4z"/>
							<path fill="#A6A6A6" d="M197.2,108.6C197.2,108.6,197.2,108.6,197.2,108.6C197.2,108.6,197.2,108.6,197.2,108.6z"/>
							<path fill="#A6A6A6" d="M197.5,108.3C197.5,108.3,197.5,108.4,197.5,108.3C197.5,108.3,197.5,108.3,197.5,108.3z"/>
							<path fill="#A6A6A6" d="M197.2,109.4L197.2,109.4C197.1,109.4,197.2,109.4,197.2,109.4z"/>
							<path fill="#A6A6A6" d="M196.1,110.9C196.1,110.9,196.2,110.9,196.1,110.9C196.2,110.9,196.2,110.9,196.1,110.9
								C196.1,110.9,196.1,110.9,196.1,110.9z"/>
							<path fill="#A6A6A6" d="M197.5,109.8L197.5,109.8c0,0,0.1,0,0.1,0L197.5,109.8z"/>
							<path fill="#A6A6A6" d="M197.6,110c0,0-0.3,0-0.4,0.1c0.1,0,0.2,0,0.2,0C197.5,110.1,197.5,110.1,197.6,110z"/>
							<path fill="#A6A6A6" d="M197.2,110.6L197.2,110.6C197.2,110.6,197.2,110.6,197.2,110.6z"/>
							<path fill="#A6A6A6" d="M197.5,109.6C197.5,109.5,197.6,109.5,197.5,109.6C197.6,109.5,197.5,109.5,197.5,109.6z"/>
							<path fill="#A6A6A6" d="M193.8,101.9C193.8,101.9,193.8,101.9,193.8,101.9C193.8,101.9,193.8,101.9,193.8,101.9z"/>
							<path fill="#A6A6A6" d="M195.1,101.3L195.1,101.3c0.1,0,0.1,0,0.2,0L195.1,101.3z"/>
							<path fill="#A6A6A6" d="M197.8,108C197.8,108,197.8,108,197.8,108C197.8,108,197.8,108,197.8,108z"/>
							<path fill="#A6A6A6" d="M197.1,105.6c-0.2,0.1-0.3,0-0.6,0.1C196.6,105.7,196.9,105.7,197.1,105.6z"/>
							<path fill="#A6A6A6" d="M196.1,110.9C196.1,110.9,196.1,110.9,196.1,110.9C196.1,110.9,196.1,110.9,196.1,110.9z"/>
							<path fill="#A6A6A6" d="M196.5,105.7C196.5,105.7,196.5,105.7,196.5,105.7L196.5,105.7C196.5,105.7,196.5,105.7,196.5,105.7z
								"/>
							<path fill="#A6A6A6" d="M197.5,107.4c0,0-0.1,0-0.1,0C197.4,107.5,197.4,107.4,197.5,107.4z"/>
							<path fill="#A6A6A6" d="M197.2,108L197.2,108C197.2,108,197.2,108,197.2,108z"/>
							<path fill="#A6A6A6" d="M197,107.3C197.1,107.3,197.1,107.2,197,107.3C197.1,107.3,197,107.3,197,107.3
								C197.1,107.3,197.1,107.3,197,107.3z"/>
							<path fill="#A6A6A6" d="M197,107C197,107,197,107,197,107C196.9,107,197,107,197,107L197,107z"/>
							<path fill="#A6A6A6" d="M194.1,102.7c0.1,0,0.2,0,0.2-0.1C194.1,102.6,194,102.6,194.1,102.7z"/>
							<path fill="#A6A6A6" d="M196.3,110.9c-0.1,0-0.1,0-0.1,0c0,0,0,0,0,0C196.2,110.9,196.2,110.9,196.3,110.9z"/>
							<path fill="#A6A6A6" d="M194.9,107.7L194.9,107.7C194.9,107.7,194.9,107.7,194.9,107.7z"/>
							<path fill="#A6A6A6" d="M194.5,104.4L194.5,104.4C194.4,104.4,194.4,104.4,194.5,104.4z"/>
							<path fill="#A6A6A6" d="M194.8,107.6c0.1,0,0.2,0,0.2-0.1c0,0,0,0-0.1,0L194.8,107.6z"/>
							<path fill="#A6A6A6" d="M194.3,102.6C194.3,102.6,194.3,102.6,194.3,102.6C194.3,102.6,194.3,102.6,194.3,102.6z"/>
							<path fill="#A6A6A6" d="M193.6,102.5c0,0,0.4-0.1,0.6-0.1c0.1,0-0.3,0.1-0.4,0.1c0.1,0,0.4,0,0.4,0c-0.1,0-0.1,0-0.2,0
								c0.3,0,0,0.1,0.4,0c0,0-0.1,0-0.1,0c0.2,0,0.4-0.1,0.5-0.1c0,0,0.2,0,0,0c0,0-0.1,0-0.2,0l0.1,0c-0.3,0.1-0.1,0-0.4,0.1
								c0.1,0,0.4,0,0.3,0c-0.3,0.1-0.1,0-0.4,0.1l0.1-0.1c-0.5,0.1,0,0-0.5,0.1c-0.1,0.1,0.2,0,0.1,0.1c0.2,0,0.3-0.1,0.5-0.1
								c0.3,0-0.8,0.2-0.4,0.2c0.2,0,0.6-0.1,0.4,0l-0.4,0.1c0,0.1,0.5-0.1,0.3,0c-0.1,0-0.1,0-0.2,0c-0.3,0.1,0.2,0,0.2,0l-0.3,0.1
								c0.1,0,0.3,0.1,0.4,0.1c-0.1,0-0.2,0-0.3,0.1c0.2,0,0,0.2-0.2,0.3l0.3,0c0,0-0.1,0-0.2,0c-0.1,0.1,0.2,0,0.3,0
								c0,0-0.2,0.1-0.2,0.1c0.3,0,0.6,0,0.3,0.2l-0.1,0c-0.1,0.1,0.6-0.1,0.3,0l-0.1,0c-0.1,0.1,0.2,0.2-0.2,0.3
								c0.4-0.1-0.2,0.1,0.4,0c-0.3,0.1-0.4,0.1-0.6,0.2c0,0,0.4,0,0.4,0l-0.3,0.1l0.3,0l-0.4,0.1l0.1,0c0,0,0.1,0,0.2-0.1
								c0.1,0-0.2,0.1-0.3,0.2l0.3,0c-0.1,0-0.2,0-0.2,0c0.3,0-0.3,0.1,0,0.1c0.1,0,0.2,0,0.2,0c-0.2,0.1-0.2,0.1-0.1,0.1l-0.2,0
								c0,0.1,0.1,0.1,0.1,0.2c0.1,0,0.5-0.1,0.5-0.1l-0.3,0.1c0.2,0,0.1,0,0.4-0.1c0,0-0.4,0.1-0.5,0.1l0.1,0c-0.1,0-0.1,0-0.3,0
								c0.2,0-0.3,0.1,0,0.1l-0.1,0c0,0.1,0.1,0.1,0.2,0.1c0.3-0.1,0.2,0,0.4-0.1c-0.1,0.1-0.3,0.2-0.3,0.2c0.1,0,0.2,0,0.4-0.1
								c-0.3,0.1-0.2,0.1-0.4,0.1c0.1,0.1,0.1,0.1,0.3,0.1c0.1,0,0.1,0,0.2-0.1c0,0-0.1,0.1-0.2,0.1l0,0c0.4,0-0.7,0.3-0.2,0.3l0,0
								l0.3,0c0,0-0.2,0-0.3,0.1c0.4,0,0,0.1,0.3,0.1c-0.7,0.2,0.1,0.2-0.4,0.3l0.2,0c0.2,0-0.1,0-0.1,0.1c0.1,0,0.2-0.1,0.2-0.1
								c0.2,0.1-0.2,0.3-0.3,0.5c0,0.1,0.9-0.2,0.5,0l-0.3,0c0.4,0,0,0.2,0.4,0.3c-0.1,0-0.2,0-0.2,0c-0.2,0.1,0,0.1,0.2,0
								c0,0-0.2,0-0.3,0.1c-0.1,0.1,0.3,0,0.1,0.1c0,0-0.1,0-0.1,0c0.1,0,0,0.1,0.3,0c-0.1,0.1,0.1,0.1,0,0.1c0.3,0-0.1,0.1,0.3,0
								c-0.4,0.1-0.3,0.1-0.1,0.1c-0.1,0-0.1,0.1-0.3,0.1c0,0,0.1,0,0.3,0c-0.5,0.2,0.4,0-0.2,0.2c0.3,0,0.4,0.1,0.6,0.1
								c-0.4,0.1-0.1-0.1-0.5,0c0.2,0,0.6,0,0.5,0.1c-0.1,0-0.2,0-0.3,0c0.2,0,0,0.1,0.2,0.2c0,0-0.1,0-0.1,0c0,0-0.1,0,0.1,0
								l-0.1,0c0.3-0.1,0.6-0.1,0.8-0.1c-0.6,0.1-0.1,0.1-0.9,0.2c0,0,0.1,0,0.3,0c0,0-0.1,0-0.3,0.1c0.1,0,0.3,0,0.3,0
								c-0.1,0-0.1,0-0.3,0c0.2,0,0.4,0,0.3,0c-0.1,0-0.1,0-0.1,0c0,0.1,0.5,0,0.4,0.1c-0.4,0.1-0.1,0.1-0.5,0.1l0.1,0l0.2-0.1
								c0,0,0.3,0,0.2,0.1l-0.2,0l0.1,0l0.1-0.1c0.2,0,0.5-0.1,0.4,0c0,0,0,0-0.2,0.1c0,0,0,0,0,0c0.1,0,0.2,0,0.2,0
								c-0.1,0-0.4,0.1-0.5,0.1c0.3,0,0.1,0.1,0.4,0c-0.1,0-0.3,0-0.3,0.1l0.3,0c-0.1,0-0.1,0-0.3,0.1c0,0.1,0.5-0.1,0.3,0
								c0,0-0.1,0-0.1,0c-0.1,0.1,0.2,0.1,0.1,0.1c-0.4,0.1-0.1,0-0.4,0.1c0.1,0.1,0.5,0.1,0.4,0.1l0,0c0.5-0.1-0.2,0.1,0,0.1
								c0,0-0.3,0-0.2,0c-0.1,0.1,0.1,0.1,0.3,0.1l-0.1,0c-0.1,0.1-0.1,0.1-0.1,0.1c0.1,0,0.1,0,0.3,0c-0.7,0.2,0.4,0.1-0.2,0.3
								c0,0-0.1,0-0.1,0l0.1,0c0.2-0.1,0.1,0,0.3-0.1c0.1,0,0.2,0,0.2,0c-0.2,0-0.4,0.1-0.5,0.1c0.1,0,0.1,0,0.2,0
								c-0.4,0.1,0.5-0.1,0.2,0l-0.1,0c0.1,0,0.2,0,0.2,0c-0.3,0.1-0.1,0-0.3,0c0,0,0.5,0,0.3,0c-0.1,0-0.1,0-0.2,0
								c-0.3,0.1-0.2,0.1-0.3,0.1l0,0l-0.1,0.1l0.1,0c0.7-0.1,0.1,0,0.6,0c-0.4,0-0.2,0-0.5,0.1c-0.1,0-0.2,0.1-0.3,0.1
								c0.2,0-0.2,0.1,0.2,0c-0.1,0,0,0-0.2,0.1c0.1,0,0.2,0,0.3-0.1c0.3,0-0.4,0.2,0.1,0.2c0.2,0,0.5,0,0.7,0
								c-0.1,0-0.4,0.1-0.4,0.1c-0.1,0.1-0.1,0.1,0,0.1c-0.1,0-0.2,0-0.3,0.1c0,0,0.4-0.1,0.2,0c-0.1,0-0.3,0-0.4,0.1
								c0.1,0,0.3,0,0.4,0c-0.2,0-0.3,0-0.4,0.1c0.1,0,0.2,0,0.4,0l0.1,0c0,0-0.2,0.1-0.3,0.1c-0.2,0,0.1-0.1,0.2-0.1l0.1,0
								c0.6-0.1-0.1-0.1-0.1-0.1l0.4-0.1l-0.3,0c0.1,0,0.3-0.1,0.4-0.1c0.2-0.1-0.1,0,0.1-0.1c0,0,0.1,0,0.1,0l-0.1,0
								c0.1,0,0.3-0.1,0.2,0c0.2-0.1-0.3,0,0-0.1l0,0c-0.2,0-0.3,0.1-0.7,0.1l0.7-0.2l-0.3,0.1c0,0,0,0,0.1,0c-0.2,0-0.1,0-0.3,0.1
								c0.3-0.1-0.1-0.1,0.3-0.2c-0.2,0-0.2,0.1-0.3,0.1c0.5-0.1-0.1,0,0.1-0.1c0.3,0,0.1,0,0.4-0.1c-0.5,0.1,0.1-0.1,0-0.1
								c-0.4,0.1-0.2,0-0.3,0c0.1,0,0.2-0.1,0.3-0.2l0.1,0c-0.4,0.1-0.3,0-0.4,0c0.2,0,0.3-0.1,0.4-0.1l0,0c-0.1,0-0.2,0-0.2,0
								l0.3,0c0,0-0.3,0-0.2-0.1c-0.3,0-0.7,0.2-0.9,0.2c0.1,0,0.4-0.1,0.4-0.1c0,0-0.1,0-0.1,0l0.2,0c0.1,0-0.2,0-0.2,0
								c0.2,0,0.1,0,0.3-0.1c0,0-0.1,0,0,0c0,0,0.1-0.1,0.3-0.1c-0.1,0-0.3,0.1-0.3,0c0,0,0.2-0.1,0.3-0.1c-0.1,0,0,0-0.3,0
								c0,0,0.1,0,0.2-0.1c-0.1,0-0.1-0.1-0.4,0l0,0c0,0,0,0,0,0c0,0,0,0,0,0l0,0c-0.3,0,0.1-0.2,0-0.2l0.1,0c-0.1,0-0.1-0.1-0.3,0
								c0,0,0.2-0.1,0.3-0.1c-0.1,0-0.2,0,0-0.1c0.2,0,0.1,0,0.1,0c0.1-0.1,0.2-0.1,0-0.1c0.3,0,0.3-0.1,0.2-0.1l-0.2,0.1
								c0,0,0,0,0-0.1l0.3-0.1c0.4-0.2-0.7,0,0-0.2c-0.2,0-0.2,0.1-0.4,0.1c0,0,0.5-0.2,0.5-0.2c0.2-0.1-0.5,0.1-0.4,0
								c-0.1,0-0.4,0.1-0.5,0.1c0,0,0.5-0.1,0.6-0.1c0,0,0,0-0.1,0c0,0,0.1,0,0.2,0l-0.1,0c0.1,0,0.1-0.1,0.3-0.1
								c-0.1,0-0.2,0-0.2,0.1c0.2-0.1,0-0.1,0.1-0.1c-0.1,0-0.2,0.1-0.2,0c0.1-0.1-0.2,0-0.3,0c0.2-0.1,0.4-0.1,0.3-0.1
								c0.1-0.1,0.3-0.1,0.4-0.1c-0.2,0,0.1-0.1,0.2-0.1l0.1,0c-0.1,0-0.1,0-0.1,0l-0.2,0.1c0,0,0,0,0.1-0.1c-0.2,0-0.4,0.1-0.6,0.1
								c0.1,0-0.1,0,0.2-0.1c-0.1,0.1,0.3-0.1,0.4,0c0,0,0,0,0,0c0,0,0.1,0,0.1,0c0.3-0.1-0.4,0-0.4,0c0.2,0,0.3-0.1,0.3-0.1
								c0,0-0.3,0.1-0.4,0.1c0.1-0.1-0.1,0-0.1,0l-0.1,0c-0.2,0-0.2,0-0.2,0c0.1,0,0.1,0,0.2,0c-0.3,0,0.3-0.1,0.1-0.1
								c0.1,0,0.3-0.1,0.4-0.1c-0.2,0,0.2-0.1,0-0.1c-0.2,0.1-0.2,0.1-0.4,0.1l0.2,0l-0.3,0c0,0,0.2,0,0.1,0c-0.2,0-0.1,0-0.3,0.1
								c0.3-0.1-0.2,0,0-0.1l0.6-0.1c0.2-0.1-0.3,0-0.2-0.1l-0.1,0c-0.2,0,0,0-0.1,0c0.2,0,0.3-0.1,0.4-0.1c-0.1,0,0,0-0.4,0
								l0.2-0.1c0.1-0.1-0.6,0.1-0.5,0c0.2,0,0.3-0.1,0.5-0.1c0,0,0,0-0.1,0c0.1,0-0.3,0-0.1,0c-0.1,0-0.3,0.1-0.3,0
								c0,0,0.1,0,0.1,0c-0.1,0-0.1,0-0.3,0.1c0.6-0.2-0.1-0.1,0.4-0.3c-0.1,0-0.1-0.1-0.2-0.1c0.1,0,0.1,0,0.1,0
								c0.2-0.1-0.6,0.1-0.4,0c0.3-0.1,0.2,0,0.3,0c0.6-0.1-0.1,0,0.3-0.2l0,0c0.2-0.1-0.3,0-0.2-0.1c0,0,0.1,0,0.1,0
								c-0.3,0-0.4,0-0.5,0c0.3,0,0.1,0,0.4-0.1c0,0-0.4,0.1-0.5,0.1c0.1,0,0.2-0.1,0.5-0.2l0,0c0.3-0.1,0,0,0-0.1l0.2,0
								c-0.1,0-0.4,0-0.4,0l-0.1,0c-0.4,0,0.2-0.1-0.1,0l0.4-0.1c-0.1,0-0.4,0-0.5,0c0.3,0,0.4,0,0.6,0c0,0,0-0.1-0.2,0
								c0,0,0.1,0,0.1,0c-0.3,0-0.5,0-0.5,0c0.8-0.1,0.2-0.1,0.7-0.3c-0.3,0,0.1-0.2,0-0.2c-0.6,0.2,0,0-0.6,0.1c0,0,0,0,0,0
								l0.3-0.1c0.2-0.1,0.1,0,0.3,0c0-0.1,0.3-0.1,0.4-0.1c-0.2,0.1-0.3,0-0.2,0l-0.3,0.1c-0.3,0,0.5-0.2,0.2-0.2l0.2,0
								c-0.1,0,0-0.1-0.5,0c0.1,0,0.2-0.1,0.3-0.1c0.1-0.1-0.5-0.1-0.3-0.2l0.1,0c0,0-0.3,0-0.1,0c0.1,0,0.1,0,0.2,0
								c-0.1,0-0.3,0-0.2,0l0.2,0c0.2-0.1-0.4,0-0.5-0.1c0.4-0.1,0.6-0.2,0.6-0.2l0.1,0c0-0.1-0.4-0.1-0.6-0.1
								c0.5-0.1,0.2-0.2,0.4-0.3c-0.1,0-0.3,0.1-0.4,0.1c0.1,0-0.3,0,0.1-0.1l0,0c0.4-0.1,0.3-0.1,0.3-0.1l-0.5,0.1
								c0.7-0.2-0.3-0.1,0.3-0.3c-0.1,0-0.1,0-0.3,0l0.3-0.1c0.1-0.1,0.1-0.1,0-0.1l0.2,0c0,0-0.8,0.1-0.8,0.1l0.4-0.1
								c0-0.1,0.3-0.2-0.1-0.2c0.1,0,0.2,0,0.2,0c0,0,0.3-0.2-0.3,0c0.4-0.1,0-0.1-0.1-0.1l0.3-0.1c-0.4,0-0.5,0.1-0.6,0
								c0,0,0.2-0.1,0.1,0c0.1-0.1-0.3,0-0.1,0l0.2,0c0,0-0.1,0-0.3,0c-0.1,0,0.1-0.1,0.3-0.1c-0.2,0-0.4,0.1-0.3,0
								c0.1,0,0.2,0,0.2,0c0.2-0.1-0.3,0-0.1-0.1c0.1,0,0.1,0,0.2,0c0,0,0,0.1,0,0.1c0.3-0.1,0.3-0.1,0.6-0.1c-0.2,0-0.6,0-0.5,0
								c0,0,0,0,0.1,0l0,0c0,0,0,0,0,0c0,0,0.1,0,0.1,0c0.2,0,0.1-0.1,0.1-0.1c-0.3,0.1-0.2,0-0.5,0.1c0,0,0,0,0,0c0,0,0,0,0,0
								c0,0,0,0,0,0c0,0,0,0,0,0c-0.1,0-0.3,0-0.1,0c-0.2,0-0.4,0.1-0.4,0.1c0.4-0.1,0.6-0.2,0.8-0.2c-0.2,0-0.1-0.1-0.7,0
								c-0.1,0,0.1,0,0.2-0.1c0.1,0,0,0,0.1,0c-0.1,0-0.1-0.1-0.4,0c0.2-0.1,0.3,0,0.3-0.1l0.1,0c0.6-0.2-1,0-0.2-0.2
								c0,0-0.1,0-0.1,0c0.3-0.2-0.4-0.2,0.1-0.4c0.1-0.1-0.1,0-0.3,0l0.3-0.1l-0.3,0c-0.3,0,0.7-0.2,0.2-0.2l-0.2,0.1
								c0,0-0.1-0.1,0.1-0.1c0,0-0.2,0-0.1,0l0.2,0l-0.3,0c0.1-0.1,0.6-0.1,0.6-0.2c-0.1,0-0.5,0-0.6,0.1c0,0-0.1,0-0.2,0.1l-0.1,0
								c-0.5,0.1-0.9,0.2-1.2,0.3l0.3,0l-0.2,0.1l0,0c-0.2,0.1,0,0,0.1,0c-0.1,0-0.2,0.1-0.2,0.1l0.4-0.1c-0.2,0-0.4,0.1-0.5,0.1
								c0.2,0,0.4-0.1,0.5-0.1c-0.2,0.1-0.4,0.1-0.2,0.1c-0.1,0-0.2,0-0.2,0c0.1,0,0.1,0,0.3,0c-0.3,0.1,0.1,0.1-0.4,0.1
								c0.1,0,0.3,0,0.4,0c-0.5,0.1,0,0.1-0.6,0.2c0.5-0.1,0.2,0,0.5,0c0,0-0.1,0-0.1,0c0,0-0.2,0.1-0.3,0.1
								c0.4-0.1,0.5-0.1,0.7-0.1c-0.4,0.1-0.5,0.1-0.8,0.2c0.3-0.1,0.3,0,0.6-0.1c-0.2,0.1-0.1,0-0.4,0.1c0.5-0.1,0.1,0,0.4,0
								c-0.2,0.1-0.4,0.1-0.3,0.1C193.8,102.5,193.6,102.5,193.6,102.5z M194.6,103.2C194.6,103.2,194.6,103.2,194.6,103.2
								C194.6,103.2,194.6,103.2,194.6,103.2C194.6,103.2,194.6,103.2,194.6,103.2z M194.6,103.2
								C194.6,103.2,194.6,103.2,194.6,103.2c0.1-0.1,0.2-0.1,0.2-0.1C194.8,103.2,194.7,103.2,194.6,103.2z M196.5,102.7
								C196.6,102.7,196.5,102.7,196.5,102.7c-0.1,0-0.1,0-0.1,0c0,0,0,0,0,0C196.4,102.7,196.5,102.7,196.5,102.7z"/>
							<path fill="#A6A6A6" d="M196.1,102.7C196.1,102.7,196.1,102.7,196.1,102.7C196.1,102.8,196.1,102.8,196.1,102.7
								C196.1,102.8,196.1,102.8,196.1,102.7C196.1,102.7,196.1,102.7,196.1,102.7z"/>
							<path fill="#A6A6A6" d="M197.1,109.5L197.1,109.5C197.1,109.5,197.1,109.5,197.1,109.5C197.1,109.5,197.1,109.5,197.1,109.5z
								"/>
							<polygon fill="#A6A6A6" points="194.3,104.4 194.4,104.3 194.3,104.4 							"/>
							<path fill="#A6A6A6" d="M196.2,110.1C196.2,110.1,196.2,110.1,196.2,110.1C196.2,110.1,196.2,110.1,196.2,110.1z"/>
							<path fill="#A6A6A6" d="M196.2,110.3L196.2,110.3C196.2,110.3,196.2,110.3,196.2,110.3z"/>
							<path fill="#A6A6A6" d="M196.1,110.4c0,0,0.1,0,0.1,0c0,0,0,0,0,0L196.1,110.4z"/>
							<path fill="#A6A6A6" d="M195.3,108.4C195.3,108.4,195.3,108.4,195.3,108.4C195.3,108.3,195.3,108.4,195.3,108.4z"/>
							<path fill="#A6A6A6" d="M196.1,108.9c-0.1,0-0.1,0-0.1,0C196,108.9,196,108.9,196.1,108.9z"/>
							<polygon fill="#A6A6A6" points="194.9,107.7 194.9,107.7 194.9,107.7 							"/>
							<path fill="#A6A6A6" d="M196,108.8C195.9,108.9,195.9,108.9,196,108.8C196,108.8,196,108.8,196,108.8z"/>
							<path fill="#A6A6A6" d="M196.1,111L196.1,111C196.1,111,196.1,111,196.1,111L196.1,111z"/>
							<path fill="#A6A6A6" d="M196.1,111L196.1,111C196.2,111,196.2,111,196.1,111z"/>
							<path fill="#A6A6A6" d="M196.2,111L196.2,111C196.2,111,196.2,111,196.2,111z"/>
							<path fill="#A6A6A6" d="M196.2,110.8l-0.1,0C196.1,110.8,196.2,110.8,196.2,110.8z"/>
							<path fill="#A6A6A6" d="M196.2,110.8c0,0-0.2,0.1-0.1,0.1L196.2,110.8C195.9,110.9,196.3,110.7,196.2,110.8z"/>
							<path fill="#A6A6A6" d="M197.3,110.3L197.3,110.3c0,0,0.2,0,0.2,0C197.9,110.2,197.3,110.4,197.3,110.3z"/>
							<path fill="#A6A6A6" d="M197.5,110.1c0.1,0,0.2,0,0.2,0C197.6,110.1,197.6,110.1,197.5,110.1z"/>
							<path fill="#A6A6A6" d="M197.3,109.1l0.3,0C197.5,109,197.4,109.1,197.3,109.1z"/>
							<polygon fill="#A6A6A6" points="195.9,109.2 195.8,109.2 196,109.2 							"/>
							<polygon fill="#A6A6A6" points="197.7,108.7 197.7,108.7 197.6,108.7 							"/>
							<path fill="#A6A6A6" d="M197.2,107l-0.3,0.1C197,107.1,197.3,107,197.2,107z"/>
							<path fill="#A6A6A6" d="M196.8,106.3C196.9,106.3,197,106.3,196.8,106.3C196.9,106.3,196.7,106.3,196.8,106.3z"/>
							<polygon fill="#A6A6A6" points="196.8,104 196.9,104 196.8,104 							"/>
						</g>
					</g>
				</g>
			</g>
		</g>
	</g>
	<rect x="21.7" y="25.7" fill="none" width="71.7" height="12"/>
	<text transform="matrix(1 0 0 1 21.6665 34.3906)" font-family="'AdobeMyungjoStd-Medium-KSCpc-EUC-H'" font-size="12">2011 </text>
	
		<text id="__________." transform="matrix(1 0 0 1 125.6667 253.667)"><tspan x="0" y="0" font-family="'AdobeMyungjoStd-Medium-KSCpc-EUC-H'" font-size="11">    </tspan><tspan x="0" y="13.2" font-family="'AdobeMyungjoStd-Medium-KSCpc-EUC-H'" font-size="11">    </tspan><tspan x="0" y="26.4" font-family="'AdobeMyungjoStd-Medium-KSCpc-EUC-H'" font-size="11">.</tspan></text>
</g>
</svg>
