<?xml version="1.0" encoding="utf-8"?>
<!-- Generator: Adobe Illustrator 18.1.0, SVG Export Plug-In . SVG Version: 6.00 Build 0)  -->
<svg version="1.1" id="Layer_1" xmlns="http://www.w3.org/2000/svg" xmlns:xlink="http://www.w3.org/1999/xlink" x="0px" y="0px"
	 viewBox="0 0 300 300" enable-background="new 0 0 300 300" xml:space="preserve">
<g>
	<path d="M134.8,194.8c-11.2-0.4-22.1-0.8-33.2-1.1c0,1.9,0.1,3.4,0,5c-0.1,0.9-0.3,1.9-0.7,2.6c-0.4,0.6-1.4,1.2-1.9,1.1
		c-0.5-0.2-1.1-1.2-1.2-1.9c-0.2-2.1-0.1-4.2-0.1-6.5c-2,0.1-4,0.3-5.9,0.3c-6.7,0.1-13.3,0.2-20,0.3c-6.7,0.1-13.5,0.4-20.2,0.2
		c-10.3-0.2-20.7-0.7-31-1c-1.1,0-2.2-0.3-3.3-0.2c-1.1,0.1-2.2,0.2-3.2,0.6c-3.4,1.2-9.1-3.5-9.1-7.3c-0.1-8-0.6-16-0.6-24.1
		c0-9.3,0.2-18.6,0.4-27.9c0.2-9.7,0.3-19.4,0.5-29c0.2-11.1,0.4-22.2,0.5-33.3c0.1-4.9-0.1-9.8-0.2-14.7c0-9.6-0.2-19.2,0-28.7
		c0.1-6.6,2.1-8.2,8.6-9.1c7-1,14.2-1.2,21.3-1.4c14.8-0.4,29.6-0.4,44.4-0.7c10.6-0.2,21.2-0.8,31.8-1c13.7-0.3,27.4-0.4,41.1-0.8
		c12.3-0.4,24.7-1.3,37-2c5.2-0.3,10.3-0.4,15.5-0.6c5.9-0.2,11.8-0.6,17.7-0.6c3.5,0,7,0.6,10.5,1.1c2.5,0.4,3.4,2.1,3.6,4.8
		c1,11.1-0.5,22.2-1,33.3c-0.5,9.3-0.4,18.6-0.5,27.9c-0.2,14.3-0.4,28.6-0.7,43c-0.3,12.8-0.6,25.6-1,38.5
		c-0.3,8.8-0.7,17.6-1.2,26.4c-0.1,2.9-3.6,6.4-6.4,6.5c-12.7,0.2-25.5,0.5-38.2,0.5c-15.8,0-31.5-0.1-47.3-0.3
		c-1.5,0-2.2,0.4-2.3,2c-0.1,1.2-0.2,2.3-0.3,3.5c-0.1,0.7-0.1,1.6-0.5,2c-0.9,0.9-2,1.6-3,2.3c-0.2-1.3-0.7-2.6-0.7-3.9
		C134.1,198.4,134.5,196.6,134.8,194.8z M40.1,20.6c0,0.2,0,0.4,0,0.6c-3.4,0-6.8-0.2-10.1,0c-5.6,0.4-11.3,0.7-16.9,1.6
		c-4,0.6-5.6,3.1-5.7,7.2c-0.1,3-0.1,6.1-0.1,9.2c0.1,10.8,0.4,21.6,0.3,32.4C7.6,81.4,7,91.2,6.8,101c-0.1,6.7,0.3,13.4,0,20.1
		c-0.6,13.5-1.5,27-0.8,40.5c0.4,7.6,0.4,15.1,0.7,22.7c0.1,4.5,1.2,5.8,5.3,6c7.3,0.5,14.6,1,22,1.2c10.2,0.3,20.4,0.4,30.6,0.3
		c9.9-0.1,19.9-0.7,29.8-0.7c7.1,0,14.3,0.6,21.4,0.7c10.8,0.2,21.6,0.3,32.4,0.4c8.9,0.1,17.8,0.1,26.7,0.1c11.8,0,23.7,0,35.5-0.1
		c5.1,0,10.3-0.3,15.4-0.6c2.4-0.2,4.7-2.3,4.9-4.3c0.5-5,1-10.1,1.3-15.1c0.4-8.7,0.6-17.5,0.8-26.2c0.2-7.6,0.5-15.1,0.7-22.7
		c0.2-8.5,0.2-17,0.3-25.6c0.1-8.5,0.5-17,0.5-25.6c0-11.6,0.2-23.2,1.3-34.9c0.5-5.7-0.1-11.5-0.2-17.3c0-3.4-1.7-5.2-5-5.2
		c-0.7,0-1.3,0.1-2,0.1c-5.3,0.3-10.6,0.6-15.9,0.8c-21.9,1-43.7,2.1-65.6,2.9c-10.3,0.4-20.6,0.5-30.9,0.8
		c-7.6,0.3-15.2-0.3-22.7,1.6c-0.3,0.1-0.6,0-0.9-0.1c-1.4-0.3-2.7-0.9-4.1-0.9c-2.9,0-5.9,0.3-8.8,0.3
		C66.4,20.6,53.2,20.6,40.1,20.6z"/>
	<path fill="#FFFFFF" d="M40.1,20.6c13.1,0,26.2,0,39.3,0c2.9,0,5.9-0.4,8.8-0.3c1.4,0,2.7,0.6,4.1,0.9c0.3,0.1,0.6,0.2,0.9,0.1
		c7.5-2,15.1-1.4,22.7-1.6c10.3-0.4,20.6-0.4,30.9-0.8c21.9-0.9,43.7-1.9,65.6-2.9c5.3-0.2,10.6-0.6,15.9-0.8c0.7,0,1.3-0.1,2-0.1
		c3.3,0,4.9,1.8,5,5.2c0.1,5.8,0.7,11.6,0.2,17.3c-1,11.6-1.2,23.2-1.3,34.9c0,8.5-0.4,17-0.5,25.6c-0.1,8.5-0.1,17-0.3,25.6
		c-0.1,7.6-0.4,15.1-0.7,22.7c-0.3,8.7-0.4,17.5-0.8,26.2c-0.2,5-0.8,10.1-1.3,15.1c-0.2,2-2.5,4.1-4.9,4.3
		c-5.1,0.3-10.3,0.6-15.4,0.6c-11.8,0.1-23.7,0.1-35.5,0.1c-8.9,0-17.8,0-26.7-0.1c-10.8-0.1-21.6-0.1-32.4-0.4
		c-7.1-0.1-14.3-0.8-21.4-0.7c-9.9,0-19.9,0.6-29.8,0.7c-10.2,0.1-20.4,0-30.6-0.3c-7.3-0.2-14.6-0.7-22-1.2c-4.1-0.3-5.2-1.6-5.3-6
		c-0.2-7.6-0.3-15.1-0.7-22.7c-0.6-13.5,0.2-27,0.8-40.5c0.3-6.7-0.1-13.4,0-20.1C7,91.2,7.6,81.4,7.7,71.5
		c0.1-10.8-0.2-21.6-0.3-32.4c0-3.1,0-6.1,0.1-9.2c0.1-4.1,1.7-6.6,5.7-7.2c5.6-0.8,11.2-1.2,16.9-1.6c3.4-0.2,6.8,0,10.1,0
		C40.1,21,40.1,20.8,40.1,20.6z M230.4,84.2c-0.2,0-0.3,0-0.5,0c0-8.5,0-16.9,0-25.4c0-6.6-0.3-13.3-0.1-19.9
		c0.1-4.8,1-9.7-1.7-14.1c-0.6-0.9-1.5-2.1-2.4-2.2c-5-0.5-10-0.8-15-0.9c-7.2,0-14.4,0.2-21.7,0.3c-10.2,0.2-20.3,0.3-30.5,0.6
		c-7.1,0.2-14.1,1-21.2,1.3c-12.2,0.6-24.5,1-36.7,1.4c-10.8,0.4-21.5,0.7-32.3,0.9c-14.2,0.3-28.5,0.5-42.7,0.8
		c-2.2,0-4.4,0.6-6.6,0.4c-2.8-0.2-4.3,1-4.4,4c-0.1,1.2-0.2,2.5-0.2,3.7c0,6.9-0.2,13.7,0,20.6c0.3,8.9,1.1,17.8,1.4,26.7
		c0.2,5.9-0.1,11.9-0.1,17.8c0,8.1,0.2,16.1,0.3,24.2c0.1,5.2,0.1,10.3,0.2,15.5c0.1,8.1,0.4,16.3,0.4,24.4c0,2.5-0.4,5-1.1,7.3
		c-0.9,3-0.1,4.3,2.9,4.3c3.2,0,6.5,0,9.7,0c13.9,0.2,27.9,0.3,41.8,0.5c10.9,0.2,21.8,0.7,32.7,0.9c9.2,0.2,18.4,0.4,27.6,0.3
		c8.8-0.1,17.7-0.9,26.5-1c11.3-0.1,22.6,1.3,33.9,0.6c3.7-0.2,7.5,0.3,11.2,0.2c5.9-0.2,11.8-0.6,17.7-0.8c4.5-0.2,7.5-4.8,7.6-8.4
		c0.3-7,0.6-14.1,0.8-21.1c0.3-9.1,0.5-18.3,0.9-27.4C229.3,107.9,229.9,96.1,230.4,84.2z"/>
	<path d="M230.4,84.2c-0.5,11.9-1.1,23.8-1.6,35.7c-0.4,9.1-0.6,18.3-0.9,27.4c-0.2,7-0.5,14.1-0.8,21.1c-0.1,3.6-3.1,8.2-7.6,8.4
		c-5.9,0.3-11.8,0.7-17.7,0.8c-3.7,0.1-7.5-0.4-11.2-0.2c-11.3,0.7-22.6-0.7-33.9-0.6c-8.8,0.1-17.7,0.9-26.5,1
		c-9.2,0.1-18.4-0.1-27.6-0.3c-10.9-0.2-21.8-0.7-32.7-0.9c-13.9-0.3-27.9-0.4-41.8-0.5c-3.2,0-6.5-0.1-9.7,0c-3,0-3.7-1.2-2.9-4.3
		c0.7-2.4,1.1-4.9,1.1-7.3c0-8.1-0.3-16.3-0.4-24.4c-0.1-5.2-0.2-10.3-0.2-15.5c-0.1-8.1-0.2-16.1-0.3-24.2c0-5.9,0.3-11.9,0.1-17.8
		c-0.3-8.9-1.1-17.8-1.4-26.7c-0.2-6.9,0-13.7,0-20.6c0-1.2,0.1-2.5,0.2-3.7c0.2-3,1.6-4.1,4.4-4c2.2,0.1,4.4-0.4,6.6-0.4
		c14.2-0.3,28.5-0.5,42.7-0.8c10.8-0.2,21.5-0.6,32.3-0.9c12.2-0.4,24.5-0.9,36.7-1.4c7.1-0.3,14.1-1,21.2-1.3
		c10.2-0.3,20.3-0.4,30.5-0.6c7.2-0.1,14.4-0.4,21.7-0.3c5,0,10,0.4,15,0.9c0.9,0.1,1.8,1.3,2.4,2.2c2.7,4.4,1.9,9.2,1.7,14.1
		c-0.2,6.6,0.1,13.3,0.1,19.9c0,8.5,0,16.9,0,25.4C230.1,84.2,230.2,84.2,230.4,84.2z M20.2,156.4c0.1,0,0.2,0,0.4,0
		c0,4.2,0,8.5,0,12.7c0,1.5,0.6,2.1,2,2.2c4.6,0.3,9.3,0.8,13.9,0.8c16.6,0.2,33.2,0,49.8,0.3c11,0.2,22,1,32.9,1
		c12.4,0,24.7-0.7,37.1-0.9c7.7-0.2,15.5,0,23.2-0.1c2.7,0,5.4-0.5,8.1-0.3c6.7,0.6,13.3,1.7,20.1,0.8c3.9-0.5,7.9-0.5,11.9-0.8
		c2.1-0.1,3.5-1,3.4-3.6c0-1.6,0-3.3,0.1-4.9c0.3-4.4,0.9-8.9,1.1-13.3c0.7-17.7,1.5-35.3,2-53c0.3-11.4,0.3-22.9,0.2-34.3
		c0-6.3-0.6-12.7-0.6-19c0.1-5.1,1.4-10.2-0.3-15.3c-0.4-1.3-0.8-1.9-1.9-2c-4.5-0.2-9-0.5-13.4-0.5c-5.5,0-10.9,0.2-16.4,0.3
		c-12.4,0.2-24.7,0.2-37.1,0.6c-9.9,0.3-19.9,1-29.8,1.5c-12.4,0.6-24.7,1.2-37.1,1.6c-9.1,0.3-18.1,0.3-27.2,0.4
		c-9.7,0.1-19.4,0.2-29.1,0.4c-4.4,0.1-8.8,0.6-13.1,0.9c-1.3,0.1-2.2,0.6-2.2,2.1c0,3.4-0.1,6.8-0.1,10.3c0.1,6.3,0.2,12.7,0.4,19
		c0.3,11.2,0.9,22.4,1.1,33.6C19.8,116.8,19.9,136.6,20.2,156.4z"/>
	<path fill="#FFFFFF" d="M20.2,156.4c-0.2-19.8-0.3-39.6-0.7-59.4c-0.2-11.2-0.7-22.4-1.1-33.6c-0.2-6.3-0.3-12.7-0.4-19
		c0-3.4,0-6.8,0.1-10.3c0-1.5,0.9-2,2.2-2.1c4.4-0.3,8.8-0.8,13.1-0.9c9.7-0.3,19.4-0.3,29.1-0.4c9.1-0.1,18.1-0.1,27.2-0.4
		c12.4-0.4,24.7-1.1,37.1-1.6c9.9-0.5,19.9-1.2,29.8-1.5c12.4-0.4,24.7-0.4,37.1-0.6c5.5-0.1,10.9-0.3,16.4-0.3
		c4.5,0,9,0.3,13.4,0.5c1.1,0.1,1.5,0.7,1.9,2c1.7,5.1,0.4,10.2,0.3,15.3c-0.1,6.3,0.5,12.7,0.6,19c0.1,11.4,0.1,22.9-0.2,34.3
		c-0.5,17.7-1.2,35.3-2,53c-0.2,4.4-0.8,8.9-1.1,13.3c-0.1,1.6-0.2,3.3-0.1,4.9c0.1,2.6-1.3,3.4-3.4,3.6c-4,0.3-7.9,0.3-11.9,0.8
		c-6.7,0.8-13.4-0.3-20.1-0.8c-2.7-0.2-5.4,0.3-8.1,0.3c-7.7,0.1-15.5-0.1-23.2,0.1c-12.4,0.2-24.8,0.9-37.1,0.9
		c-11,0-22-0.9-32.9-1c-16.6-0.2-33.2-0.1-49.8-0.3c-4.6,0-9.3-0.6-13.9-0.8c-1.3-0.1-2-0.6-2-2.2c0.1-4.2,0-8.5,0-12.7
		C20.4,156.4,20.3,156.4,20.2,156.4z M39.8,44.6c-0.3-0.6-0.6-1.1-0.8-1.7c-1-2.6-1-2.6-2.9-2.7c-0.4-0.4-0.9-0.9-1.3-1.2
		c-0.4,0.7-0.7,1.2-1,1.7c-0.4-0.3-0.7-0.6-1.1-0.9c-0.3-0.3-0.6-0.5-0.9-0.7c-0.2,0.4-0.6,0.7-0.7,1.1c-0.4,1.7-0.7,3.4-1.2,5.3
		c-1.1-0.5-1.9-0.8-2.9-1.3c1.5-1.2,3.3-2.1,1.8-4.2c-1-1.3-3.1-1.4-4.2-0.1c-1.5,1.8,0,2.7,1.2,3.7c-0.3,0.4-0.6,0.8-1,1.2
		c0.8,0.2,1.5,0.4,2.1,0.6c0,0.2,0,0.3-0.1,0.5c-0.8,0-1.6-0.1-2.8-0.1c0.2,0.8,0.2,1.9,0.6,2.1c1.3,0.5,2.7,0.7,4.1,1
		c0-0.3,0.1-0.5,0.1-0.8c-0.5-0.1-1.1-0.2-1.6-0.3c-0.5-0.1-1-0.3-1.5-0.4c-0.1-0.3-0.1-0.6-0.2-0.9c3.5,1.9,5.9,1.5,6.2-3.5
		c1.4,3,3.1,2.3,4.7,1.7c0-1.1,0-2,0-2.9c0.2,0,0.3-0.1,0.5-0.1c0.6,1.6,1.2,3.3,1.7,4.9c0.2,0,0.4-0.1,0.6-0.1
		C39.6,45.8,39.7,45.2,39.8,44.6c0.8,1.5,1.7,1.3,2.6,0c-1-2-2-3.8-3-5.7c-0.2,0.1-0.4,0.2-0.6,0.3C39.2,41.1,39.5,42.8,39.8,44.6z
		 M221.8,50.5c-66.6,0-133.1,0-199.7,0c0,2.3,0,4.4,0,6.7c66.6,0,133.1,0,199.7,0C221.8,55,221.8,52.9,221.8,50.5z M58.7,44
		c-0.8,0-1.6-0.2-2.2,0.1c-0.7,0.3-1.6,1.1-1.7,1.8c-0.1,0.6,0.8,1.5,1.5,1.9c0.6,0.3,1.4,0.2,2.1,0.2c1.8-0.1,3.7-0.5,5.5-0.5
		c10.5,0,21,0,31.5,0c0-0.3,0-0.5,0-0.8c-10,0-19.9,0-29.9,0c-0.9,0-1.7-0.5-2.8-0.9c-0.9,1.3-1.1,1.3-2.3-0.1
		c0.9-0.6,1.8-1.1,2.6-1.6c0.8,0.5,1.6,0.9,2.3,1.3c0.1-0.1,0.1-0.2,0.2-0.3c-0.8-1-1.7-1.9-2.4-2.7c-0.9,0.8-1.9,1.7-2.9,2.6
		c-0.2-0.2-0.4-0.4-0.5-0.6c0.7-1.1,1.5-2.2,2.1-3.2c-0.4-0.5-0.8-1.1-1.2-1.6c-0.3-0.3-0.8-0.6-1.1-0.5c-0.3,0.2-0.7,0.7-0.7,1.2
		C58.6,41.3,58.7,42.5,58.7,44z M52.8,39.1c-0.2,1.2-0.5,2.5-0.7,3.7c-0.8,0.1-1.4,0.3-2.1,0.4c0,0.1,0,0.3,0,0.4
		c0.7,0.1,1.5,0.3,2.2,0.4c0.1,1.7,0.2,3.2,0.3,4.7c1.4-2.2-0.4-5.4,2.7-6.6c0.8,0.4,1.7,0.8,2.6,1.2c0.1-0.2,0.1-0.3,0.2-0.5
		c-0.6-0.8-1.3-1.5-2.1-2.4c0.8-0.4,1.3-0.6,1.9-0.9c0-0.1,0-0.3-0.1-0.4C56.2,39.1,54.6,39.1,52.8,39.1z M220.1,78.3
		c-4.6,0-8.9,0-13.3,0c-3,0-3.2,0.3-2.4,3.5c5.2,0,10.5,0,15.7,0C220.1,80.6,220.1,79.6,220.1,78.3z M50.2,46.8
		c-2.2-2.7-2.5-4.6-0.4-6.3c-1.4,0-2.8,0-3.7,0c0.3,1,1,2.1,0.8,2.9c-0.2,1.1-1.2,2.1-1.8,3.1c0.1,0.1,0.2,0.2,0.2,0.3
		c0.8-0.5,1.6-1,2.3-1.4C48.5,45.9,49.4,46.3,50.2,46.8z M72.4,44.4c-1.7,0-3.2,0-5,0C68.7,46,71.4,46,72.4,44.4z"/>
	<path d="M221.8,50.5c0,2.4,0,4.5,0,6.7c-66.6,0-133.1,0-199.7,0c0-2.3,0-4.4,0-6.7C88.7,50.5,155.2,50.5,221.8,50.5z"/>
	<path d="M39.8,44.5c-0.1,0.6-0.2,1.2-0.3,1.8c-0.2,0-0.4,0.1-0.6,0.1c-0.6-1.6-1.2-3.3-1.7-4.9c-0.2,0-0.3,0.1-0.5,0.1
		c0,0.9,0,1.9,0,2.9c-1.7,0.6-3.3,1.3-4.7-1.7c-0.3,5-2.7,5.4-6.2,3.5c0.1,0.3,0.1,0.6,0.2,0.9c0.5,0.1,1,0.3,1.5,0.4
		c0.5,0.1,1.1,0.2,1.6,0.3c0,0.3-0.1,0.5-0.1,0.8c-1.4-0.3-2.8-0.5-4.1-1c-0.3-0.1-0.4-1.2-0.6-2.1c1.2,0.1,2,0.1,2.8,0.1
		c0-0.2,0-0.3,0.1-0.5c-0.6-0.2-1.3-0.4-2.1-0.6c0.4-0.5,0.7-0.8,1-1.2c-1.2-1-2.7-1.8-1.2-3.7c1-1.2,3.2-1.2,4.2,0.1
		c1.5,2.1-0.3,3-1.8,4.2c1,0.5,1.8,0.8,2.9,1.3c0.4-1.9,0.8-3.6,1.2-5.3c0.1-0.4,0.4-0.7,0.7-1.1c0.3,0.2,0.6,0.5,0.9,0.7
		c0.4,0.3,0.7,0.6,1.1,0.9c0.3-0.5,0.6-1,1-1.7c0.4,0.4,0.8,0.8,1.3,1.2C38,40.4,38,40.4,39,43C39.3,43.5,39.6,44.1,39.8,44.5
		C39.8,44.6,39.8,44.5,39.8,44.5z"/>
	<path d="M58.7,44c0-1.6-0.1-2.7,0-3.9c0-0.4,0.4-1,0.7-1.2c0.2-0.1,0.8,0.2,1.1,0.5c0.5,0.5,0.9,1.1,1.2,1.6
		c-0.6,0.9-1.4,2.1-2.1,3.2c0.2,0.2,0.4,0.4,0.5,0.6c1-0.9,2-1.8,2.9-2.6c0.7,0.8,1.6,1.8,2.4,2.7c-0.1,0.1-0.1,0.2-0.2,0.3
		c-0.7-0.4-1.4-0.8-2.3-1.3c-0.8,0.5-1.7,1-2.6,1.6c1.2,1.4,1.4,1.4,2.3,0.1c1.1,0.3,2,0.9,2.8,0.9c10,0.1,19.9,0,29.9,0
		c0,0.3,0,0.5,0,0.8c-10.5,0-21,0-31.5,0c-1.8,0-3.6,0.3-5.5,0.5c-0.7,0-1.6,0.1-2.1-0.2c-0.7-0.4-1.5-1.3-1.5-1.9
		c0.1-0.7,1-1.4,1.7-1.8C57.1,43.8,57.9,44,58.7,44z"/>
	<path d="M52.8,39.1c1.8,0,3.4,0,5,0c0,0.1,0,0.3,0.1,0.4c-0.5,0.3-1.1,0.5-1.9,0.9c0.8,0.9,1.4,1.7,2.1,2.4
		c-0.1,0.2-0.1,0.3-0.2,0.5c-0.9-0.4-1.7-0.8-2.6-1.2c-3.1,1.2-1.3,4.5-2.7,6.6c-0.1-1.5-0.2-3-0.3-4.7c-0.7-0.1-1.5-0.3-2.2-0.4
		c0-0.1,0-0.3,0-0.4c0.7-0.1,1.3-0.3,2.1-0.4C52.3,41.6,52.5,40.3,52.8,39.1z"/>
	<path d="M220.1,78.3c0,1.3,0,2.3,0,3.5c-5.2,0-10.5,0-15.7,0c-0.8-3.3-0.6-3.5,2.4-3.5C211.1,78.3,215.5,78.3,220.1,78.3z
		 M211.8,81.2C211.8,81.2,211.8,81.2,211.8,81.2c2,0,4,0.1,6-0.1c0.5,0,1-0.7,1.6-1.1c-0.5-0.5-0.9-1.3-1.4-1.3
		c-3.9-0.1-7.8-0.1-11.7,0c-0.5,0-1,0.8-1.4,1.3c0.5,0.4,1,1.1,1.5,1.2C208.1,81.3,210,81.2,211.8,81.2z"/>
	<path d="M50.2,46.8c-0.9-0.5-1.7-1-2.6-1.5c-0.7,0.5-1.5,0.9-2.3,1.4c-0.1-0.1-0.2-0.2-0.2-0.3c0.6-1,1.6-2,1.8-3.1
		c0.2-0.8-0.5-1.9-0.8-2.9c0.9,0,2.3,0,3.7,0C47.8,42.2,48,44.2,50.2,46.8z"/>
	<path d="M39.8,44.6c-0.3-1.8-0.7-3.6-1-5.3c0.2-0.1,0.4-0.2,0.6-0.3c1,1.9,1.9,3.7,3,5.7C41.6,45.9,40.7,46.1,39.8,44.6
		C39.8,44.5,39.8,44.6,39.8,44.6z"/>
	<path d="M72.4,44.4c-1,1.5-3.7,1.6-5,0C69.2,44.4,70.8,44.4,72.4,44.4z"/>
	<path fill="#FFFFFF" d="M211.8,81.2c-1.8,0-3.7,0.1-5.5-0.1c-0.5,0-1-0.8-1.5-1.2c0.5-0.4,0.9-1.3,1.4-1.3c3.9-0.1,7.8-0.1,11.7,0
		c0.5,0,0.9,0.9,1.4,1.3c-0.5,0.4-1,1.1-1.6,1.1C215.8,81.3,213.8,81.2,211.8,81.2C211.8,81.2,211.8,81.2,211.8,81.2z"/>
	
		<image overflow="visible" width="504" height="268" id="img1" xlink:href="3D96CB8B.jpg"  transform="matrix(0.3927 0 0 0.4029 22.5865 62)">
	</image>
	<rect x="90" y="224" fill="none" width="187" height="29"/>
	<text transform="matrix(1 0 0 1 90 232.7236)"><tspan x="0" y="0" font-family="'AdobeMyungjoStd-Medium-KSCpc-EUC-H'" font-size="12">[고난과 역경의 일본 자전거 여행]</tspan><tspan x="0" y="14.4" font-family="'AdobeMyungjoStd-Medium-KSCpc-EUC-H'" font-size="12">이라는 자전거 여행기 였는데</tspan></text>
</g>
</svg>
