<?xml version="1.0" encoding="utf-8"?>
<!-- Generator: Adobe Illustrator 18.1.0, SVG Export Plug-In . SVG Version: 6.00 Build 0)  -->
<svg version="1.1" id="Layer_1" xmlns="http://www.w3.org/2000/svg" xmlns:xlink="http://www.w3.org/1999/xlink" x="0px" y="0px"
	 viewBox="0 0 300 300" enable-background="new 0 0 300 300" xml:space="preserve">
<g>
	<path fill="#FEFEFE" d="M150.2,239.8c-49.3,0-98.7,0-148,0c-1.5,0-1.9-0.3-1.9-1.9c0-61.5,0-123.1,0-184.6c0-1.5,0.3-1.9,1.9-1.9
		c98.8,0,197.6,0,296.4,0c1.5,0,1.9,0.3,1.9,1.9c0,61.5,0,123.1,0,184.6c0,1.5-0.3,1.9-1.9,1.9C249.1,239.8,199.7,239.8,150.2,239.8
		z"/>
	<path fill="#030303" d="M28,114.8c-0.4-8.1-0.3-18.1-0.3-28.1c0-5.9,0.5-11.7,0.3-17.6c0-1.3,0.8-2.6,0-3.9
		c-0.3-0.5,0.2-1.1,0.7-1.3c2.3-1.3,4.6-2.6,7.4-2.3c5.1,0.6,10.1,0,15.1-0.4c4.2-0.4,8.5-0.2,12.7,0c3.9,0.2,7.8-0.4,11.7-0.3
		c8,0.2,16,0.1,24,0.1c9.3-0.1,18.6,0.5,27.9-0.5c2.9-0.3,5.2,0.9,7.5,2.4c0.7,0.5,1.2,1.2,1.3,2c0.4,2.1,1.1,4.2,1,6.3
		c-0.2,4.8,0.3,9.6,0.4,14.3c0.1,8.2-0.3,16.3-0.4,24.4c-0.2,9.9-0.7,19.7-1,29.6c0,1,0.9,1.9,0.6,3.1c-0.7,2.8-2.6,4-5.1,4.5
		c-5.6,1.2-11.3,1.3-17,1.2c-5-0.1-10,0-15,0.1c-3,0-3,0.2-2.8,3.1c0.2,2.8,0.3,5.5,0.4,8.3c0,0.9,0.3,1.1,1.2,1.1
		c8.1,0.5,16.2,0.3,24.2,0.6c9.9,0.4,19.8,0.1,29.7,0.1c5.5,0,11-0.3,16.5-0.5c0.8,0,1.6,0,2.4,0.1c0.9,0.1,1.4,0.7,1.4,1.5
		c0,1-0.8,1.1-1.6,1.1c-3.8,0.1-7.6,0.1-11.4,0.3c-6,0.3-11.9,0-17.9,0.3c-3.6,0.2-7.2,0-10.8-0.1c-5.2-0.3-10.5-0.2-15.7-0.4
		c-5-0.1-9.9-0.2-14.9-0.3c-0.8,0-1.9-0.2-2.3,0.4c-0.4,0.8,0.4,1.6,0.9,2.3c1.8,2.2,4.5,2.2,7,2.3c4.9,0.2,9.8-0.3,14.7,0.1
		c3.3,0.3,5.9,1.3,6.8,4.8c0.2,0.9,0.3,1.7-0.1,2.5c-2,3.9-5,7-9,8.8c-1.7,0.7-3.6,0.8-5.5,1.1c-10.9,1.7-21.8,2-32.8,1.1
		c-6.3-0.6-12.6-1.1-18.9-1.8c-3.1-0.3-5.7-1.6-7.5-4.4c-1.9-2.9-1.6-5.9,1.4-7.5c3-1.6,6.1-3.2,9.7-3.3c1.4-0.1,2.8-0.9,3.5-2
		c1.2-2-0.1-3.8-2.7-3.6c-9.2,0.8-18.5,0.2-27.7,0.8c-7.3,0.5-14.7-0.5-22,0.5c-1,0.1-2,0-2.9-0.7c-0.4-0.3-0.9-0.7-0.7-1.3
		c0.2-0.6,0.8-0.7,1.3-0.7c4.2,0.1,8.5-0.6,12.7-0.2c5.6,0.5,11.2-0.1,16.8-0.4c4.6-0.3,9.2,0.2,13.7-0.2c3.4-0.3,6.8-0.5,10.3-0.7
		c1.1-0.1,1.7-0.3,1.6-1.5c0-3.6,0-7.1,0-10.7c0-1.1-0.8-1.1-1.5-1.2c-3.5-0.4-7,0-10.5,0.1c-5.2,0.1-10.3,0.6-15.5,0.5
		c-2.8,0-5.6-0.2-8.3-0.9c-2.7-0.7-3.7-1.7-3.9-4.4C28.7,134.4,28.1,125.5,28,114.8z"/>
	<path fill="#030303" d="M187.5,105.4c-2.8-3.6-4.7-7.8-5.8-12.1c-0.9-3.8-0.5-7.8,0.3-11.8c1-5,3.3-9.4,6-13.7
		c0.1-0.2,0.4-0.4,0.6-0.5c5.7-2.6,10.7-6.7,17-7.9c4.9-0.9,9.8-1.6,14.8-1.6c7,0,12.1,3.4,16.6,8.1c7.6,8.1,7.9,17.8,6.2,28
		c-0.9,5-3.3,9.2-5.9,13.5c-2.2,3.6-5.2,5.8-8.8,7.9c2.6,3.6,4.6,7.5,6.9,11.2c2,3.3,3.3,6.9,3.8,10.7c0.8,5,1.1,10,1.5,15.1
		c0.1,1.9-0.2,3.8-0.5,5.6c-0.2,1.1,0.1,1.6,1.4,1.5c8.2-0.5,16.4,0.3,24.7,0.2c6.7-0.1,13.3-0.7,20-1c1.2-0.1,2.4-0.1,3.6,0.3
		c0.6,0.2,1.1,0.6,1,1.3c-0.1,0.7-0.6,1-1.3,1c-8.3-0.2-16.5,1-24.7,0.8c-11.1-0.2-22.2-0.3-33.3,0.6c-7.6,0.7-15.3,1.3-23,1.4
		c-4.3,0.1-8.7,0.2-13,0.3c-0.5,0-0.8,0.2-1,0.5c-2.5,4-6.5,4.4-10.5,4.1c-2.8-0.2-5.7-0.2-8.4-1.6c-2.5-1.3-3-3.3-1.7-5.9
		c2.7-5.5,7.8-5.8,12.8-5.9c1.5,0,3.1-0.1,4.5,0.7c2.6,0.7,4.7-0.1,6.7-1.7c1.6-1.1,3.2-2,4.5-3.5c0.2-0.2,0.4-0.4,0.6-0.6
		c3-3.4,6.1-6.8,9.1-10.4c0.4-0.5,0.6-1.1,1.1-1.6c1.9-2.1,2.9-4.8,4.7-7c2.6-3.7,4.8-7.6,5.5-12.2c0.1-0.8,0.3-1.6,0.3-2.4
		c-0.1-1.2-2.2-1.8-1.1-3.4c1.9-0.9,4-1.2,5.8-2.2c4.6-2.5,6.7-6.9,9.1-11.1c2-3.4,2.3-7.2,2.7-10.9c0.5-5.4,0.2-10.7-2.1-15.8
		c-2.6-5.8-7.1-9.3-12.8-11.6c-4.8-1.9-9.7-1.4-14.5-0.4c-1.1,0.2-2.3,0.4-3.4,0.6c-6.1,1.1-11,4.3-15.8,8.1c-2.4,1.9-3.9,4.2-5,6.8
		c-0.6,0.8-0.7,1.8-1.2,2.6c-1.1,1.3-1.2,2.7-0.7,4.2c0,0.6,0,1.2,0,1.8c-0.7,6.6,2,12.1,5.4,17.5c0.5,0.8,1.3,1.5,1.3,2.7
		c-0.2,0.5-0.6,0.9-1,0.6C189.5,105.9,188.3,106,187.5,105.4z"/>
	<path fill="#020202" d="M223.1,183.9c23.1,0,46.3,0,69.4-0.1c1.9,0,2.2,0.5,2.1,2.2c-0.1,16.1-0.1,32.2,0,48.4c0,1.6-0.4,2-2,2
		c-46.5,0-93,0-139.5,0c-1.7,0-1.9-0.7-1.9-2.1c0-16.2,0.1-32.4,0-48.6c0-1.6,0.4-2,2-1.9C176.6,183.9,199.9,183.9,223.1,183.9z"/>
	<path fill="#040303" d="M187.5,105.4c1,0.1,2.3-0.5,3,1c0.1,0.3,0.6,0,0.7-0.3c1.4-0.8,1.4-2,1.1-3.3c-0.3-1.3-0.8-2.6,0.5-3.7
		c0.6-0.5,0-0.8-0.3-1.1c-1.2-1.5-1.1-2.3,0.6-3.4c4.5-2.7,9.4-3.9,14.6-4.2c4.2-0.2,8.3,0.3,12.3,1.7c0.9,0.3,1.9,0.1,2.8,0.1
		c2.5-0.2,4,1.7,2.8,3.9c-2.1,3.8-2,7.5-0.7,11.5c0.7,2.1-0.3,3.2-2.5,3c-0.8-0.6-1.7-0.8-2.7-0.3c-1.9,0.4-3.8,0.5-5.6,1
		c-0.7,0.1-1.3,0.1-2,0.1c-2.3-0.2-4.5-1.1-6.8-0.8c-1.8,0.1-3.6-0.1-5.4-0.4c-0.3,0-0.6-0.1-0.9-0.1c-1.4,0-2.9-0.1-4.2-0.8
		c0.9,0.6,1.6,1.4,2.4,2c0.4,0.3,0.9,0.7,1.4,0.9c1.4,0.6,2.8,1.2,4.3,1.6c0.9,0.4,2-0.1,2.7,0.8c0,0.8-0.9,0.6-1.3,1.1
		c1.8,1.2,0.9-1.2,1.7-1.1c1.7-0.1,3.5,0.3,5.2,0.1c0.3,0,0.7,0,1,0c2-0.1,4.1,0.1,6.1-0.2c0.5-0.1,1.1-0.2,1.6-0.2
		c0.9,0.1,1.7-0.7,2.7-0.2c0,0.7,0,1.5,0.9,1.8c0.7,0.2,0.8,0.8,0.8,1.4c-1.9,1-4.1,0.4-6.1,0.9c-2.2,0.1-4.4,0.1-6.6,0
		c-0.4,0-0.7,0-1.1,0c-2.1,0.2-4.1-0.2-6.2-0.4c-2.6-0.9-5.4-1.1-7.6-2.9c-1-0.6-2.1-1.3-3.2-1.8c-0.9-0.3-1.3-1.1-1.6-1.8
		C190.2,109.4,188.7,107.5,187.5,105.4z"/>
	<path fill="#F42812" d="M192,111.1c0.5,0.5,1.1,1,1.6,1.5c-2.1,2.2-3,4.9-2.6,7.8c0.9,6.3,0.6,12.7,1.5,18.9
		c0.6,3.9,1.4,7.8,1.5,11.8c0,1.9,2,1.2,2.6,2.3c0.7-0.5,0.4-1.1,0.4-1.5c-0.1-3.8,0.3-7.6-0.2-11.3c-0.1-0.6-0.2-1.4,0.6-1.8
		c0.8,0.4,1,1.3,1.1,2c0.2,4.7,0.4,9.5-0.1,14.2c-0.6,0.4-1.1,0.9-1.7,1.3c-1.7,1.1-3.5,1.5-5.3,0.2c2.3-5.4,0.8-10.7,0-16.1
		c-0.4-2.2-0.3-4.4-0.6-6.6c-0.5-4.4,0.1-8.8-1-13.1c-0.5-2.2,0.2-4.2,1-6.2C191.3,113.5,191.6,112.3,192,111.1z"/>
	<path fill="#FEFEFE" d="M31.3,119.6c-0.4-11.9-0.8-23.7-0.5-35.6c0.2-5.3,0.2-10.6,0.4-15.9c0.1-2,1.1-2.8,3-3.2
		c3.5-0.6,7.1-0.1,10.7-0.4c6.8-0.6,13.7-0.5,20.6-0.7c8.7-0.2,17.3,0.2,26-0.2c3.3-0.1,6.6,0.5,9.9,0.3c8.7-0.4,17.4,0.5,26.2-0.4
		c1.2-0.1,2.5-0.1,2.8,1.6c0.1,0.4,0.7,1,1.1,1c2.1,0.2,2.2,1.7,2.3,3.2c0.4,6.4,0.8,12.8,0.9,19.2c0.1,9-0.2,18.1-0.4,27.1
		c-0.2,7.1-0.4,14.1-1,21.2c-0.2,1.9-0.7,3.9-1.2,5.8c-0.1,0.5-0.5,0.7-0.9,0.9c-3.2,1.3-6.5,2-10,2.1c-7.5,0.2-15.1,0.2-22.6,0.4
		c-1.3,0-1.6-0.2-1.8-1.6c-0.8-7.1-1.5-14.2-0.8-21.3c0.1-1,0.1-2,0.3-3c0.1-1.4-0.5-2-1.9-1.9c-1.4,0.1-1.8,0.6-1.5,2.1
		c0.3,1.1,0.2,2.3,0.1,3.4c-0.7,8,0.2,15.9,1.1,23.8c0.6,5.3-0.1,10.7,0.5,16c0.4,3.4,2.8,7.3,7.8,7.2c5.3-0.1,10.6-0.1,15.9,0
		c0.5,0,1.1,0.1,1.6,0.3c4.6,1,5.6,3.8,2.8,7.6c-2.1,2.8-5.3,4.1-8.5,4.5c-3.7,0.5-7.4,1.4-11.1,1.8c-5.4,0.5-10.9,0.6-16.3,0.3
		c-7.3-0.5-14.6-1.2-21.9-2c-3.1-0.3-5.9-1.1-7.9-3.9c-1.1-1.6-1.1-2.9,0.4-4c2.6-1.9,5.5-2.7,8.7-2.7c0.4,0,0.7,0.2,1,0.5
		c1.8,1.6,4.1,0.7,4.5-1.8c1-5.4,0.6-10.9,0.7-16.3c0.1-6.2,0-12.5-0.1-18.7c-0.1-4.7-0.4-9.4-0.6-14.1c-0.1-1.4,0-2.7,0.8-3.9
		c0.5-0.7,0.3-1.3-0.1-1.9c-0.6-0.8-1.4-0.5-2.2-0.5c-1,0-0.9,0.8-1.1,1.4c-0.9,3.2-0.6,6.4-0.4,9.6c0.3,5.4,0.9,10.9,0.4,16.3
		c-0.1,1.2-0.2,1.7-1.6,1.9c-6.3,0.9-12.6,0.6-18.9,1c-4.1,0.3-8-0.2-12.1-0.6c-3-0.3-3.7-0.8-3.8-3.8c-0.4-6.3-1-12.6-0.9-19
		C31.3,121.6,31.3,120.6,31.3,119.6z"/>
	<path fill="#FEFEFE" d="M222.7,114c-0.8,0.2-1.6,0.5-2.4,0.7c0-1.9,0.3-3.7,2-4.8c0.7,0.4,1.4,0.5,2-0.1c0.6-0.6,0.5-1.4,0.2-2.1
		c-1.3-2.8-1.1-5.8-0.8-8.7c0.1-0.9,0.4-1.7,1-2.3c1.1-1.1,0.9-2.4,0.3-3.5c-0.6-1.2-1.8-0.7-2.7-0.4c-0.7,0.3-1.4,0.2-2.1,0
		c-7.3-2.8-14.6-2.2-21.9-0.1c-1.9,0.5-3.6,1.7-5.4,2.7c-1.4,0.8-1.4,1.5,0.1,2.3c0.6,0.3,1.4,0.4,1.4,1.2c0,0.7-0.8,0.5-1.3,0.7
		c-0.8,0.4-1.1,0.9-0.7,1.8c0.5,1.1,0.7,2.2,0.6,3.3c-0.1,1-0.2,2.3-1.9,1.5c-2.2-3.2-4.1-6.6-5.5-10.3c-1.3-3.2-1.7-6.4-1.4-9.8
		c0.5-0.3,0.7-1.1,1.5-1c1.2,0.8,2.2,1.9,3.8,2.1c2.2,0.3,3.7-0.2,4.7-1.8c1.4-2,1.4-4,0-6c-1-1.5-2.8-2-4.8-1.6
		c-1,0.2-1.8,0.9-2.9,0.7c-0.5-0.3-0.5-0.6-0.3-1c1-2.7,1.8-5.1,4.6-6.8c2-1.2,3.6-3,5.7-4.3c3.1-1.9,6.2-3.6,9.9-4.2
		c4.2-0.7,8.3-1.7,12.5-1.7c9.3,0.1,19.1,7.4,21.1,17.3c1.6,7.9,1.1,15.5-2,22.9c-1.3,3-3.1,5.8-5.3,8.3
		C230.1,112,226.5,113.3,222.7,114z"/>
	<path fill="#FBFBFB" d="M218.2,138.4c0.6-2.2,1.9-4.1,3.2-5.8c2.4-3.2,4.3-6.6,5.6-10.9c3,10.3,3,20.2,0.8,30
		c-0.5,2.3-1.2,4.5-1.8,6.8c-0.4,1.4-1,2.2-2.6,2.2c-1.6,0-3.2,0.2-4.8,0.3c-0.8-2.5-1.2-5.1-0.7-7.7c0.5-2.8,0.4-5.6,0-8.4
		C217.5,142.8,217.2,140.5,218.2,138.4z"/>
	<path fill="#FBE002" d="M198.4,155.2c-0.6-3.3-0.3-6.7-0.4-10c-0.1-2.1,0.3-4.3-0.8-6.3c-1.2-0.4-1.3-1.5-1.2-2.5
		c0.3-2.9-0.2-5.7-0.8-8.6c-0.8-4.2-0.6-8.4,0.5-12.5c0.1-0.5,0.3-0.9,0.7-1.2c2.2,1.7,5,2.1,7.6,3c0.2,0.3,0.1,0.7-0.1,1
		c-1.9,3.4-1.3,7-0.8,10.6c0.9,6.1,2,12.2,0.6,18.4c-0.3,1.4,0,3-0.8,4.3C201.9,153.3,200.1,154.2,198.4,155.2z"/>
	<path fill="#FBFBFB" d="M228.5,160.4c3.4-11.4,5.1-22.7,3-34.4c2,3.4,4.1,6.8,4.7,10.9c0.9,6.1,1.9,12.1,1.5,18.3
		c0,0.7-0.1,1.5-0.2,2.2c-0.2,1.7-0.8,2.7-2.8,2.6C232.7,159.8,230.6,160,228.5,160.4z"/>
	<path fill="#5DF803" d="M202.9,151.5c-0.2-4.1,1.1-8.1,0.9-12.2c0-0.6,0.2-1.1,0-1.8c-0.9-4.6-1.7-9.3-1.8-14
		c-0.1-2.4,0.3-4.6,2-6.3c2.2,0.2,4.4,0.3,6.5,0.5c0.8,0.8,0.6,1.8,0.5,2.7c-0.7,4.9-0.2,9.8-0.3,14.7c-0.8,1.7-2.6,2-4,2.8
		c-1.6,1-2.3,2.2-2.2,4c0.1,2.6-0.3,5.2-0.7,7.8c-0.1,0.6-0.3,1-0.7,1.4C203.1,151.2,203,151.3,202.9,151.5z"/>
	<path fill="#2B43C0" d="M211.3,117.7c2.3-0.3,4.6-0.2,6.8-0.1c1,1.5,1.1,3.2,0.9,4.9c-0.4,3.3,0,6.6-0.9,9.8
		c-1.2,2-2.4,3.9-3.6,5.9c-0.3,0.5-0.7,0.8-1.2,0.9c-1.5-1.7-3-3.6-3-6c0-4.6-0.2-9.3,0.4-13.9C210.9,118.7,210.9,118.1,211.3,117.7
		z"/>
	<path fill="#1427DD" d="M218.2,138.4c-0.1,3.1,0.4,6.2,0.5,9.3c0.1,4.5-0.6,8.9-0.2,13.4c-2.1,0.4-4.3-0.1-6.4,0.4
		c-0.7-0.3-0.6-1-0.5-1.6c0.6-2.2,0.5-4.4,0.1-6.6c-0.2-1.2-0.2-2.4,0.4-3.6c1-2,1.7-4.1,1.8-6.3
		C215.4,141.8,216.4,139.8,218.2,138.4z"/>
	<path fill="#37F406" d="M214,143.5c1.1,2.2-0.2,4.1-1,5.9c-0.6,1.2-0.9,2.4-0.7,3.7c0.5,2.6,0.7,5.2-0.3,7.7
		c-0.1,0.2,0.1,0.5,0.1,0.8c-2.8,0-5.7,0-8.5,0c-0.1-0.2-0.1-0.4-0.1-0.6c0-2.1-1-4.1,0.1-6.2C207.1,151,210.5,147.2,214,143.5z"/>
	<path fill="#28F00B" d="M203.2,151c0.1-3.3,1.1-6.4,0.9-9.7c-0.1-1.6,0.3-3.1,2.4-3.8c1.3-0.5,2.3-1.9,3.9-2.1
		c1.8,1.3,3,2.9,2.3,5.2C209.7,144.2,206.6,147.8,203.2,151z"/>
	<path fill="#F6F7F8" d="M218.2,132.3c-0.5-0.5-0.3-1.1-0.2-1.7c0.4-4.3,0.7-8.6,0.2-13c2-0.4,4-0.7,6.1-0.4
		C223.9,122.9,221.7,127.8,218.2,132.3z"/>
	<path fill="#F6F6F6" d="M181.3,159.4c2.8-1.9,5.6-1.5,8.3-0.4c1.8,0.7,2.5,3.3,1.6,5.2c-0.8,1.7-3.3,2.9-4.9,2.5
		c-0.5-0.1-0.6-0.4-0.6-0.8C185.8,162.7,183.9,161,181.3,159.4z"/>
	<path fill="#EBD808" d="M203.6,154.8c0.2,1.9-0.2,3.9,0.6,5.7c0.3,0.7-0.2,0.8-0.7,0.8c-0.8,0.4-1.7,0.2-2.5,0.2
		c-2.4,0-2.8-0.6-2.2-3C200.4,157.2,202,156,203.6,154.8z"/>
	<path fill="#22876E" d="M212.6,140.6c0.2-2.2-1.2-3.6-2.3-5.2c-0.5-4.7-0.4-9.4,0-14.2c0.1-1.2,0.3-2.4,0.2-3.6
		c0.3,0,0.5,0.1,0.8,0.1c-0.8,4.8-0.6,9.6-0.8,14.4c-0.1,1.3,0.2,2.6,1.1,3.6c0.9,1,1.3,2.2,1.7,3.4
		C213.3,139.6,213.1,140.2,212.6,140.6z"/>
	<path fill="#EB3610" d="M198.7,158.4c0.6,3,0.6,3,4.8,2.8c0.1,0.1,0.1,0.2,0.1,0.3c-2.9,0.2-5.7-0.2-8.7,0.2
		C195.1,159.4,197.5,159.6,198.7,158.4z"/>
	<path fill="#C7C7C7" d="M185.5,85.1c-0.6,0-0.2,1.5-1.3,0.8c0-0.6,0-1.3,0-1.9c0.2-1.4,0.1-2.8,0.8-4.1c0.7-0.7,0.2-2,1.2-2.5
		c0.1,0.4,0.2,0.8,0.6,1C186.7,80.7,186,82.9,185.5,85.1z"/>
	<path fill="#EDEDED" d="M182.4,165c0.2,0.9-0.1,1.5-1.1,1.4c-0.6-0.1-1.5,0-1.4-1c0.1-0.9,0.6-1.7,1.6-1.8
		C182.6,163.5,182.4,164.4,182.4,165z"/>
	<path fill="#040404" d="M185,79.9c-0.1,1.4-0.1,2.8-0.8,4.1C183.7,82.5,183.7,81,185,79.9z"/>
	<path fill="#AFAFAF" d="M177.1,164.5c-0.5-1.2-0.3-1.9,0.8-2.3C178.1,163.2,177.8,163.7,177.1,164.5z"/>
	<path fill="#FEFEFE" d="M222.9,186.1c22.5,0,44.9,0,67.4,0c1.8,0,2.2,0.4,2.2,2.2c-0.1,14.7-0.1,29.4,0,44.1c0,1.7-0.5,1.9-2,1.9
		c-44.9,0-89.9,0-134.8,0c-1.7,0-2.3-0.3-2.2-2.1c0.1-14.6,0.1-29.3,0-43.9c0-1.9,0.5-2.2,2.2-2.2
		C178.1,186.1,200.5,186.1,222.9,186.1z"/>
	<path fill="#FB0B02" d="M196.4,114.1c-0.5,3.9-1.5,7.7-0.9,11.7c0.3,2,1.1,3.8,1,5.9c0,1.6,0.5,3.3,0,5c-0.3,0.9,0.3,1.5,0.7,2.2
		c0.6,5.3,0.3,10.6,0.4,15.9c-0.9,0-1.1-0.7-1.6-1c-0.3-0.2-0.5-0.5-0.7-0.7c-1.6-0.8-2-1.2-2.1-3.4c-0.5-7.9-2.4-15.8-2.1-23.8
		c0.1-1.3-0.1-2.7-0.5-4c-0.9-3.1,0.3-5.8,1.3-8.6c0.3-0.9,1-0.7,1.7-0.7C194.8,112.6,195.4,113.7,196.4,114.1z"/>
	<path fill="#E8E9E3" d="M217.8,101.2c-0.9,0.8-2.1,1.1-3.2,1.4c-1.5,0-3-1.3-4.6-0.2c-0.1,0.1-0.2,0.1-0.3,0.3
		c-1.1,0.6-2.1,1-3.3,0.3c-0.4-0.2-1.1-0.1-1.6-0.1c-1.6,0.3-3.1,0.4-4.4-0.8c-0.5-0.3-1.8,0.2-1.3-1.2c0.7-1.3,1.4-1.7,2.7-0.3
		c1.3,1.4,3.4,1.1,5.2-0.5c0.7-0.6,1.1-0.9,1.7-0.1c0.2,0.2,0.5,0.4,0.7,0.4C212.3,100,215,100.8,217.8,101.2L217.8,101.2z"/>
	<path fill="#4050A8" d="M214.2,110.6c1.8-0.8,3.8-0.7,5.7-1.1c1,0.1,1.1,0.7,0.9,1.6c-0.4,1.4-1.1,2.6-2.1,3.6
		c-2.1,0.7-4.3,0.3-6.5,0.4C211.6,113.5,212.2,112.1,214.2,110.6z"/>
	<path fill="#9BEB0A" d="M205.3,109.9c2.4-0.5,4.6,0.4,6.9,0.8c0.8,1.7-0.3,3-0.8,4.4c-1.9,0.1-3.8-0.1-5.7-0.4l0,0
		c-0.9-0.7-2-0.1-2.9-0.7c0.1-0.2,0.2-0.3,0.4-0.4C205.7,112.7,205.8,112.4,205.3,109.9z"/>
	<path fill="#EFE108" d="M205.3,109.9c1,0.4,1,1.1,0.7,2c-0.3,0.9-0.4,1.9-1.6,2c-0.5,0.1-1.1,0.1-1.6,0.1c-1.6-0.3-3.1-0.8-4.5-1.7
		c-0.8-1.4-0.2-2.1,1.1-2.6C201.4,109.7,203.4,109.8,205.3,109.9z"/>
	<path fill="#465483" d="M213.8,107c0.8-0.4,1.2-1,1.6-1.8c0.5-1.1,1.6-1.1,2.6-1c0.9,0.1,1.3,1,1.6,1.7c0.4,0.8-0.4,1-1,1.2
		c-1.7,0.5-3.4,0.7-5.2,0.7C213.1,107.3,213.5,107.2,213.8,107z"/>
	<path fill="#E8E8E8" d="M205.6,93.7c0.5-0.1,1.2-0.1,0.8,0.8c-0.6,1.5-0.2,3.7-2.4,3.9c-1.2,0.1-1.2-1.3-1.3-2.3
		C202.5,93.9,203.8,93.5,205.6,93.7z"/>
	<path fill="#E2E2E2" d="M212.1,93.5c0.5,0.6,1.8-0.4,1.8,1.1c0,1.5-1.4,3.7-2.4,3.6c-1.8-0.2-1.3-1.9-1.5-3
		C209.6,93.2,211.4,94.2,212.1,93.5z"/>
	<path fill="#B10F09" d="M199.1,107.3c-0.9-0.4-2.5-0.1-2.6-1.6c0-0.9,1.1-1.5,2-1.4c1.1,0.1,2,0.9,2,2.2
		C200.4,107.4,199.8,107.4,199.1,107.3z"/>
	<path fill="#92AE20" d="M213.8,107c-0.1,0.2-0.3,0.5-0.4,0.7c-1.4-0.1-2.8-0.3-4.1-0.4c-0.9-0.1-0.8-0.4-0.4-1
		c0.9-1.4,2-1.4,3.2-0.6C212.7,106.1,213.3,106.6,213.8,107z"/>
	<path fill="#657398" d="M218.6,114.7c0.5-1.2,1.1-2.3,1.6-3.5c0.3-0.6,0.4-1.3-0.4-1.7c0.9-0.4,1.7-0.5,2.4,0.3
		c-0.7,1.6-1.3,3.2-2,4.8C219.7,114.7,219.2,114.7,218.6,114.7z"/>
	<path fill="#E3E3E3" d="M219.4,96.4c-0.2,0.1-0.4,0.1-0.6,0.2c-0.8,0.4-0.9,2.1-2,1.5c-0.9-0.4-0.2-1.7-0.4-2.6
		c-0.1-0.2-0.1-0.5-0.1-0.7c1.2-0.2,1.8,0.8,2.7,0.8C219.2,95.9,219.7,96,219.4,96.4z"/>
	<path fill="#C11716" d="M197.1,111.4c-1.4-0.7-2.4-1.8-3.4-2.9c1.7,0.3,3.3,1.1,5,1C198.5,110.4,197.9,111,197.1,111.4z"/>
	<path fill="#BFB32B" d="M205.8,107.3c-0.9,0.1-1.4,0.2-1.9,0.1c-0.5-0.1-1.3,0.3-1.5-0.5c-0.1-0.5,0.2-1.1,0.7-1.3
		c0.6-0.3,1.2-0.3,1.7,0.1C205.2,106,205.4,106.6,205.8,107.3z"/>
	<path fill="#030303" d="M217,115.6c-0.8,1.6-0.8,1.6-4.7,0C214.1,115.6,215.6,115.6,217,115.6z"/>
	<path fill="#5D7678" d="M211.4,115.1c0.3-1.5,0.5-3,0.8-4.4c0.6,0,1.3,0,1.9,0c-0.6,1.5-2.1,2.6-2,4.5
		C211.9,115.1,211.7,115.1,211.4,115.1z"/>
	<path fill="#C6DA5D" d="M209.7,102.7c2-1.8,2.1-1.8,4.8-0.1C213,103.5,211.3,102.2,209.7,102.7z"/>
	<path fill="#030303" d="M205.7,114.6c0.3,0.6,1.3,1.1,0.4,1.8c-1.2,0.8-1.6-0.6-2.7-0.8C204,114.6,204.9,114.7,205.7,114.6
		C205.7,114.7,205.7,114.6,205.7,114.6z"/>
	<path fill="#BA9294" d="M199.2,100.9c-0.1,0.9,1,0.6,1.3,1.2c-1.3,0-2.5-0.1-3.8,0.1c-0.5,0.1-0.9-0.1-0.9-0.7
		c0.1-0.7,0.5-0.7,1-0.5C197.6,101.5,198.4,101.4,199.2,100.9z"/>
	<path fill="#565656" d="M219.4,96.4c-0.1-0.2-0.3-0.5-0.4-0.7c1.8-0.3,2.4,0.5,1.9,2.2c-0.2,0.6,0.1,1.4-0.5,1.9
		c-0.3-0.1-0.6,0.2-0.9-0.1C219.4,98.6,221.9,97.5,219.4,96.4z"/>
	<path fill="#C3C3C5" d="M219.4,99.7c0.3,0,0.7-0.7,0.9,0.1c-0.1,2.3-0.3,2.4-2.6,1.4c0,0,0,0.1,0,0
		C218.4,100.7,219.1,100.5,219.4,99.7z"/>
	<path fill="#E7C354" d="M197.1,111.4c0.3-0.9,0.9-1.4,1.6-1.9c0.3,0.1,0.5,0.1,0.8,0.2c-0.8,0.7-1.2,1.5-1.1,2.6
		C197.8,112.2,197.4,111.9,197.1,111.4z"/>
	<path fill="#020202" d="M233.5,80.3c-0.1,5.1-2.7,6.7-6.8,7c-3.5,0.2-5.9-2.6-5.8-6.1c0.1-3.4,3.3-6.3,6.7-6.2
		C231.1,75.3,233.6,77.5,233.5,80.3z"/>
	<path fill="#040404" d="M185.5,85.1c-0.6-2.5,0.5-4.6,1.3-6.8c4-2.4,7.3-1.5,8.6,2.2c0.8,2.3,0,5.1-2,6.4c-1.8,1.2-5,1-6.8-0.5
		C186.2,86.1,185.9,85.6,185.5,85.1z"/>
	<path fill="#1D1C1E" d="M243.6,197.2c0,1.1,0,2.1,0,3.2c0,0.4-0.1,0.8-0.7,0.8c-0.5,0-0.4-0.4-0.4-0.7c0-0.3,0-0.7,0-1
		c0.2-1.8-0.9-1.8-1.9-1.1c-1,0.7-2,1.1-2.9,0.2c-1.1-1-1.1-2.3-0.6-3.5c0.5-1.4,1.8-1.8,3.1-1c1,0.6,2.1,1.7,2.4-0.6
		c0-0.3,0.4-0.3,0.7-0.3c0.3,0.1,0.4,0.3,0.4,0.6C243.6,194.9,243.6,196.1,243.6,197.2z"/>
	<path fill="#28272A" d="M160.8,216.7c-0.4,0.3-0.8,0.4-1-0.1c-0.1-0.4,0-0.8-0.1-1.2c-0.2-0.8,0.5-1.9-0.5-2.4
		c-1.1-0.5-1.3,0.8-2,1.3c-0.4,0.4-0.8,1.2-1.4,0.6c-0.8-0.7,0.4-0.9,0.6-1.3c0.6-0.9,1.2-1.8,1.4-2.8c-0.5-0.7-1.6,0.1-2-0.8
		c2.2-1,2.9-0.7,3,1.2c0,0.3-0.1,0.6,0.3,0.6c0.5,0,0.4-0.4,0.5-0.7c0.3-0.7-0.8-2,1-2.1C161.7,211.6,161.6,214.2,160.8,216.7z"/>
	<path fill="#1F1C20" d="M192.7,196.7c0.7-1.2,0.4-1.9,0.5-2.6c0-0.4,0.1-0.8,0.6-0.9c0.6,0,0.6,0.4,0.6,0.8c0,2.1,0,4.3,0,6.4
		c0,0.4,0,0.9-0.6,0.8c-0.5-0.1-0.5-0.5-0.5-0.9c-0.1-1,0.2-2-0.3-3.1c-0.6,1-0.3,1.9-0.3,2.8c0,0.5,0,1-0.7,1
		c-0.6,0-0.5-0.5-0.5-0.9c0-1.9,0-3.8,0-5.6c0-0.4,0-0.9,0.5-1c0.7-0.1,0.6,0.5,0.7,1C192.6,195,192.7,195.6,192.7,196.7z"/>
	<path fill="#1D1C1E" d="M196.9,211.2c1.2,0,2.4,0,3.5,0c0.4,0,0.9,0,0.8-0.6c-0.1-0.4-0.5-0.3-0.8-0.4c-1.1-0.1-2.2,0.2-3.8-0.4
		c2.1-0.8,3.7-0.5,5.3-0.4c1,0.1,0.5,1.1,0.5,1.7c0,1-0.2,2.1,1.1,2.7c-2.5,0-5,0-7.5,0c1.2-1.1,2.6-0.5,3.9-0.7
		c0.5-0.1,1.3,0.3,1.3-0.5c0-0.8-0.8-0.4-1.3-0.5C198.9,211.9,197.8,212.5,196.9,211.2z"/>
	<path fill="#171A1C" d="M252.2,211.5c0,0.4,0,0.8,0,1.2c0,0.4,0.1,0.9-0.4,1c-0.7,0.1-0.7-0.4-0.7-0.9c-0.2-1.5-0.8-1.1-1.5-0.3
		c-1,1.1-2.1,1.5-3.4,0.5c-1-0.8-1.1-1.9-0.2-2.8c1-1.1,2.4-1.1,3.4,0c1,1.1,1.6,1.7,1.7-0.4c0-0.4,0.3-0.6,0.7-0.5
		c0.4,0.1,0.5,0.4,0.5,0.8C252.2,210.4,252.2,210.9,252.2,211.5z"/>
	<path fill="#121311" d="M209.6,214.2c-0.2,0.2-0.5,0.5-0.7,0.7c-0.3,0.3-0.6,0.3-0.9,0.1c-0.3-0.3-0.1-0.6,0.2-0.8
		c0.2-0.2,0.4-0.4,0.5-0.6c1.6-2,1.5-2.5-0.6-3.3c1.8-0.9,2.8-0.7,3.5,0.7c0.9-0.2-0.2-2,1.4-1.6c1,2.4,0.9,4.8,0.1,7.3
		c-0.9-0.1-1-0.1-1-1.1c0.1-1.1-0.3-1.6-1.4-1.4c-0.7-0.7,0.2-0.9,0.4-1.3C210.4,213.2,210.2,213.9,209.6,214.2z"/>
	<path fill="#1F1D1F" d="M241.4,210.3c-0.8,0.7-1.5,0.3-2.2,0.4c-0.6,0.1-1,0.1-1,0.9c0,0.8,0.3,1,1.1,1.1c0.7,0,1.5-0.3,2.2,0.2
		c-0.1,1-2.1,0.2-1.6,1.7c0.4,1.3,1.8,0.1,2.5,1.3c-2.1,0-4,0-6.1,0c0.4-0.9,1.2-0.6,1.8-0.6c0.5-0.1,0.7-0.3,0.7-0.8
		c0-0.4,0.1-0.8-0.5-1c-2.1-0.4-1-2.1-1-3.1c0-1.2,1.3-0.5,2-0.6C239.9,209.8,240.6,209.6,241.4,210.3z"/>
	<path fill="#1D1D1D" d="M156.1,194.5c2-0.6,3.7-0.3,5.3-0.3c0.5,0,0.5,0.5,0.5,0.9c0,0.8,0.1,1.6-0.1,2.4c-0.2,1.1-0.1,2,1.2,2.4
		c-2.5,0-5,0-7.8,0c1.3-1.1,2.6-0.7,3.7-0.6c2.4,0.2,1.5-1.6,1.8-2.7c0.3-1.5-0.5-1.7-1.7-1.6C158.2,195,157.3,195.2,156.1,194.5z"
		/>
	<path fill="#1D1B1C" d="M164.4,213.1c0.4,0,0.8,0,1.2,0c0.3,0,0.7,0,0.7-0.5c0-0.3-0.2-0.5-0.5-0.5c-1.6-0.1-1-1.4-0.9-2.2
		c0.1-1,1.1-0.6,1.6-0.6c0.8,0,1.6-0.3,2.4,0.4c-0.6,0.8-1.4,0.4-2,0.5c-0.4,0.1-0.9-0.1-0.8,0.5c0,0.4,0.5,0.4,0.8,0.4
		c0.7,0.2,1.5-0.3,2.2,0.5c-0.2,0.1-0.3,0.2-0.5,0.3c-0.4,0.2-1.1,0-0.9,0.7c0.1,0.5,0.7,0.3,1,0.3c0.3,0,0.7,0,1,0.1
		c0.1,0.1,0.2,0.3,0.1,0.4c-0.8,0.9-4.7,1-5.5,0.1C164.1,213.4,164.3,213.3,164.4,213.1z"/>
	<path fill="#0A0909" d="M173.6,200.6c-0.7,0.7-4.8,1-5.3,0.5c-0.3-0.4-0.2-0.9-0.2-1.4c0-0.6,0.5-0.6,1-0.7c1-0.1,2.1,0.2,3.2-0.2
		c-0.8-0.4-1.6-0.2-2.3-0.2c-0.6-0.1-1.3,0.2-2.3-0.5c2-0.6,3.7-0.2,5.4-0.3c0.4,2.3,0.4,2.4-2.1,2.4
		C171.9,200.3,172.9,199.8,173.6,200.6z"/>
	<path fill="#272728" d="M260.3,200.5c0.1,0.7-0.2,0.8-0.8,0.8c-1.1,0-2.3,0-3.4,0c-0.8,0-1.2-0.2-1.2-1.1c0-0.8,0.2-1.3,1.1-1.2
		c0.9,0,1.8,0,3.3,0c-1.5-0.7-2.5-0.3-3.4-0.4c-0.6-0.1-1.1,0-0.9-0.9c1.7-0.9,3.4-0.9,5.1,0c0,0.7,0,1.3,0.1,2
		c-0.8,0.8-1.9,0.2-2.8,0.5C258.4,200.3,259.4,199.8,260.3,200.5z"/>
	<path fill="#1B1C1E" d="M167.8,193.7c1.9-0.6,3.4-0.3,4.9-0.3c0.8,0,0.9,0.6,0.8,1.1c-0.3,1.1,0,1.7,1.1,2.3c-2.5,0-5,0-8,0
		c1.8-1,3.2-0.5,4.5-0.6c0.6-0.1,1.4,0.2,1.4-0.9c0-1.1-0.7-0.9-1.3-1C170.1,194.1,169.1,194.5,167.8,193.7z"/>
	<path fill="#18181A" d="M180.3,196.4c-0.1,1.5-0.5,2.7-2.2,2.7c-1.8-0.1-2.1-1.4-2.1-2.9c0.1-1.4,0.6-2.6,2.2-2.5
		C179.9,193.8,180.2,195.1,180.3,196.4z"/>
	<path fill="#2E3031" d="M288.3,193.2c1.2-0.4,1.1,0.5,1.2,1.2c0.1,0.8-0.6,2,0.9,2.2c0.1,0,0.2,0.3,0.2,0.5c-2,0.7-0.9,2.5-1.2,3.7
		c-0.2,0.6-0.6,0.4-1,0.4C287.9,198.6,287.1,195.9,288.3,193.2z"/>
	<path fill="#1B1A1A" d="M207.6,194.1c1.7-0.3,3.2-0.3,4.7-0.1c0.1,1.3-2,0.2-1.7,1.7c0.2,1,0.7,1.7,1.4,2.4
		c0.2,0.2,0.6,0.4,0.2,0.8c-0.4,0.5-0.8,0.1-1-0.2c-0.8-1.1-1.6-1.1-2.4,0c-0.2,0.3-0.6,0.6-1,0.2c-0.5-0.5,0.2-0.6,0.3-0.9
		c0.1-0.1,0.2-0.2,0.3-0.3C209.9,196.2,209.8,195.4,207.6,194.1z"/>
	<path fill="#131413" d="M229.2,196.5c1.3,0,1.9-0.6,1.7-2c-0.1-0.5-0.4-1.4,0.6-1.4c0.9,0,0.5,1,0.5,1.5c0.1,1.9,0,3.7,0,5.6
		c0,0.4,0.1,0.9-0.5,0.9c-0.7,0.1-0.7-0.5-0.7-1c0-0.3,0-0.5,0-0.8c0.3-1.4-0.1-2.4-1.7-2.6c-0.1-0.1-0.2-0.2-0.1-0.2
		C229.1,196.6,229.1,196.5,229.2,196.5z"/>
	<path fill="#171819" d="M216,193.8c2-0.3,3.4-0.3,5.4,0c-2.5,0.9-2.6,1.9-0.8,3c0.3,0.2,0.6,0.4,0.3,0.8c-0.3,0.3-0.7,0.2-0.9,0
		c-0.9-1.1-1.6-0.7-2.3,0.3c-0.2,0.4-0.7,0.8-1.1,0.3c-0.5-0.6,0.3-0.7,0.5-1C218.6,195.4,218.5,194.9,216,193.8z"/>
	<path fill="#282A28" d="M213,197.1c0-0.9,0-1.9,0-2.8c0-0.5-0.1-1,0.6-1.1c0.7,0,0.6,0.5,0.6,1c0.1,0.9-0.5,2.1,1,2.4
		c0.1,0,0.1,0.5,0.1,0.5c-2,0.5-0.8,2.2-1.1,3.3c-0.1,0.4,0,0.9-0.5,0.9c-0.7,0.1-0.7-0.5-0.7-1C213,199.2,213,198.1,213,197.1
		C213,197.1,213,197.1,213,197.1z"/>
	<path fill="#1A191C" d="M232.9,212.7c-2,0.4-1.2,1.8-1.4,2.8c-0.1,0.6,0.4,1.6-0.6,1.6c-1,0-0.5-1.1-0.5-1.6c-0.1-1.8,0-3.6,0-5.4
		c0-0.4-0.1-0.9,0.4-1c0.7-0.1,0.7,0.5,0.7,0.9C231.6,211.1,231.1,212.3,232.9,212.7z"/>
	<path fill="#212123" d="M258.5,210c-1.1,1.2-3.4-0.3-3.2,2.4c0.2,2.8,2.6,0.6,3.6,2.3c-1.6,0-3.5,0.6-4.4-0.3
		c-0.9-0.9-0.7-3.1-0.1-4.2C255.1,209.2,256.8,209.8,258.5,210z"/>
	<path fill="#271D26" d="M262,212.7c-2.1,0.2-1.5,1.5-1.7,2.5c-0.1,0.7,0.7,1.9-0.6,1.9c-1.1,0-0.5-1.3-0.6-2c-0.1-1.7,0-3.3,0-5
		c0-0.5,0-1,0.6-1c0.8,0,0.5,0.7,0.5,1.1C260.5,211.1,259.6,212.6,262,212.7z"/>
	<path fill="#181617" d="M273.9,193.6c2-0.4,3.3-0.4,5.3,0.1c-2.7,0.6-2.4,1.5-0.9,2.5c0.2,0.2,0.7,0.2,0.5,0.7
		c-0.3,0.5-0.7,0.4-1,0.1c-0.8-0.9-1.5-0.8-2.2,0.1c-0.3,0.4-0.8,0.7-1.2,0.1c-0.3-0.5,0.3-0.6,0.5-0.9
		C276.4,194.8,276.3,194.6,273.9,193.6z"/>
	<path fill="#191819" d="M188.2,213.9c1.3,0.2,2.8,0.2,2.8,1.8c0,1.4-1.4,1.6-2.6,1.6c-1.2,0-2.7,0-2.7-1.7
		C185.7,214,187.2,214,188.2,213.9z"/>
	<path fill="#181717" d="M183.9,209.7c2.1-0.5,3.5-0.5,5.5-0.1c-2.2,0.8-2.8,1.6-0.8,2.6c0.4,0.2,0.5,0.4,0.3,0.8
		c-0.2,0.3-0.6,0.4-0.9,0.1c-0.8-0.9-1.6-1-2.4,0.1c-0.2,0.3-0.7,0.6-1,0.2c-0.4-0.5,0.1-0.7,0.4-0.9
		C186.6,211.3,186.7,210.3,183.9,209.7z"/>
	<path fill="#372F3C" d="M243.6,213.2c0,1,0,2,0,3c0,0.5,0,1-0.7,1c-0.6,0-0.5-0.5-0.5-0.9c0-2.1,0-4.3,0-6.4c0-0.4,0-0.9,0.6-0.8
		c0.4,0.1,0.5,0.4,0.5,0.7C243.6,210.9,243.6,212.1,243.6,213.2C243.6,213.2,243.6,213.2,243.6,213.2z"/>
	<path fill="#353333" d="M161.6,209.1c0.5,0,1-0.1,1,0.6c0,2.3,0,4.5,0,6.8c0,0.8-0.5,0.8-1.1,0.7
		C160.9,214.4,160.8,211.7,161.6,209.1z"/>
	<path fill="#383038" d="M223.1,213.1c0,1.1,0,2.1,0,3.2c0,0.4,0,0.8-0.6,0.8c-0.4,0-0.6-0.3-0.6-0.7c0-2.3,0-4.6,0-6.8
		c0-0.4,0.2-0.6,0.6-0.6c0.4,0,0.5,0.3,0.5,0.7C223.1,210.9,223.1,212,223.1,213.1z"/>
	<path fill="#050402" d="M182.6,197.1c0,1.1,0,2.3,0,3.4c0,0.3-0.1,0.7-0.5,0.7c-0.4,0-0.5-0.3-0.5-0.7c0-2.2,0-4.4,0-6.6
		c0-0.4,0.1-0.7,0.5-0.7c0.4,0,0.5,0.4,0.5,0.7C182.6,195,182.6,196,182.6,197.1C182.6,197.1,182.6,197.1,182.6,197.1z"/>
	<path fill="#1A1717" d="M272.4,197.1c0,1.1,0,2.3,0,3.4c0,0.3-0.1,0.7-0.5,0.7c-0.6,0.1-0.6-0.4-0.6-0.8c0-2.1,0-4.3,0-6.4
		c0-0.4,0-0.9,0.6-0.9c0.5,0,0.6,0.5,0.6,0.9C272.4,195.1,272.4,196.1,272.4,197.1z"/>
	<path fill="#1C1B1C" d="M178.9,210.9c-0.9-0.4-1.9,0.2-3-0.7c1.4-0.5,2.6-0.3,3.7-0.3c0.7,0,0.6,0.5,0.5,1c-0.4,1.8-1.5,3.1-3,4.1
		c-0.4,0.3-0.8,0.3-1-0.1c-0.2-0.4,0.2-0.6,0.4-0.8C177.5,213.3,178.5,212.4,178.9,210.9z"/>
	<path fill="#1F1F20" d="M229.2,196.5c0,0.1,0,0.2,0,0.4c-1.4,0.1-1.5,1.8-2.6,2.2c-0.4,0.2-0.8,0.6-1.2,0.2c-0.6-0.6,0.3-0.7,0.5-1
		c0.3-0.3,0.6-0.5,0.9-0.8c0.6-0.7,1.5-1.4,1.2-2.4c-0.3-0.8-1.3-0.2-2-0.3c-0.3-0.1-0.5-0.2-0.5-0.5
		C228.4,193.2,229.2,193.7,229.2,196.5z"/>
	<path fill="#1E1E1E" d="M251.9,198.9c0.8,0.9,0.4,1.6-0.5,2.1c-0.9,0.5-1.9,0.5-2.9,0.3c-0.7-0.2-1.5-0.4-1.6-1.3
		c-0.1-0.9,0.5-1.3,1.3-1.5c0.5-0.5,1.3-0.3,1.8-0.9c0.3-0.1,0.5-0.1,0.7,0C251.1,197.9,251.6,198.3,251.9,198.9z"/>
	<path fill="#191918" d="M225.4,210.1c1.1-0.6,2.4-0.3,3.6-0.2c0.7,0.1,0.3,0.8,0.2,1.2c-0.4,1.6-1.4,2.7-2.6,3.7
		c-0.4,0.3-0.8,0.7-1.2,0.2c-0.5-0.6,0.3-0.7,0.5-1c0.3-0.3,0.6-0.5,0.9-0.8c0.6-0.6,1.3-1.2,1.1-2c-0.2-1-1.3-0.2-1.9-0.4
		C225.8,210.6,225.5,210.7,225.4,210.1z"/>
	<path fill="#1D1C1D" d="M216.7,210.1c1.1-0.5,2.2-0.2,3.2-0.3c0.8-0.1,0.9,0.4,0.8,1c-0.3,1.8-1.4,3.1-2.9,4.1
		c-0.4,0.3-0.8,0.3-1.1-0.1c-0.3-0.5,0.3-0.6,0.6-0.8c0.4-0.3,0.7-0.6,1.1-0.9c0.6-0.6,1.3-1.3,1.1-2c-0.3-0.9-1.3-0.2-1.9-0.4
		C217.2,210.6,216.9,210.7,216.7,210.1z"/>
	<path fill="#1D1F1E" d="M199.1,195c-0.9-0.6-1.9,0.2-2.8-0.7c1.2-0.8,2.4-0.3,3.6-0.4c0.6,0,0.5,0.5,0.4,0.9
		c-0.5,1.7-1.5,3.1-3,4.1c-0.4,0.3-0.8,0.3-1.1-0.1c-0.4-0.5,0.2-0.7,0.4-0.8C197.9,197.3,198.8,196.4,199.1,195z"/>
	<path fill="#1A191C" d="M287.3,198.4c-0.6,0.6-1.3,1.1-2.3,0.9c-0.8-0.1-1.5-0.5-1.8-1.4c-0.3-1.2,0.2-1.9,1.3-2.3
		c0.4-0.4,0.8-0.4,1.3-0.4C287.9,196.1,288.2,196.6,287.3,198.4z"/>
	<path fill="#0B0C0F" d="M250.5,197.7c-0.2,0-0.4,0-0.5,0c-1.1-1.3-0.9-2.7-0.2-4.1c0.9,0.1,0.9,0.1,1,1.5c0.1,0,0.3,0,0.3-0.1
		c0.5-0.5-0.4-1.8,0.6-1.8c1,0.1,0.4,1.3,0.5,2c0.1,0.9,0,1.9,0,2.8C251.4,198.9,251.2,197.3,250.5,197.7z"/>
	<path fill="#1B1A1C" d="M256.2,196.1c-0.7-0.1-1.3-0.5-1.3-1.3c0-0.8,0.6-1.1,1.3-1.3c0.9-0.3,1.8-0.3,2.7,0
		c0.7,0.2,1.3,0.4,1.4,1.2c0.1,0.8-0.4,1.2-1.2,1.4C258.2,196.8,257.2,196.8,256.2,196.1z"/>
	<path fill="#0E0E0E" d="M270.5,198.8c-0.2,0.1-0.3,0.2-0.5,0.3c-0.4,0.2-0.6-0.1-0.8-0.4c-0.8-1-1.5-1.2-2.3,0
		c-0.3,0.4-0.7,0.7-1.2,0.2c-0.4-0.5,0.1-0.7,0.4-0.9c1.1-1,1.5-2.2,1.4-3.6c0-0.3,0-0.7,0.4-0.8c0.4-0.1,0.6,0.2,0.6,0.6
		c-0.1,1.6,0.3,3.1,1.7,4.1C270.3,198.4,270.4,198.6,270.5,198.8z"/>
	<path fill="#0C0B0A" d="M203.9,196.7c-2.1,0.6-1.2,2.2-1.4,3.3c-0.1,0.4,0.2,1.1-0.4,1.2c-0.9,0.1-0.6-0.7-0.6-1.2
		c0-1.9,0-3.8,0-5.7c0-0.4-0.2-1.1,0.5-1.1c0.9,0,0.5,0.8,0.5,1.2C202.6,195.4,202.2,196.5,203.9,196.7z"/>
	<path fill="#08080A" d="M183.9,212.8c-2.3,0.4-1.5,1.9-1.7,3c-0.1,0.5,0.3,1.2-0.4,1.3c-0.8,0.1-0.6-0.8-0.6-1.2c0-1.9,0-3.8,0-5.6
		c0-0.4-0.2-1.1,0.4-1.1c0.9,0,0.5,0.8,0.6,1.2C182.3,212,182.3,212,183.9,212.8z"/>
	<path fill="#222428" d="M191.5,198.3c-1.4,0.6-3,1.1-3.4,0.3c-0.7-1.2-0.3-2.9-0.2-4.3c0.1-0.5,0.6-0.4,0.9,0
		c0.1,0.2,0.1,0.5,0.1,0.8C188.9,196.7,188.2,198.7,191.5,198.3z"/>
	<path fill="#0D0E0D" d="M166.7,214.3c-0.2,1.6,0.3,2.3,2,2.1c0.7-0.1,1.7-0.4,2.6,0.6c-2.1,0.3-3.9,0.2-5.7,0.1
		c-0.6-0.1,0-0.5-0.1-0.7C165.2,214.2,165.3,214.2,166.7,214.3z"/>
	<path fill="#2E2B2B" d="M248.6,215.4c1.1,0.8,1.2-0.2,1.4-0.8c0.1-0.3,0.2-0.6,0.6-0.7c0.5,0,0.5,0.3,0.6,0.6
		c0,0.2,0.1,0.4,0.2,0.6c0.4,0.7-0.2,0.9-0.7,1.3c-1.3,1-2.1,0.4-3-0.4C247.9,215.6,248.3,215.5,248.6,215.4z"/>
	<path fill="#1A1A18" d="M248.2,197.9c-1,0.4-2,0.3-2.6-0.6c-0.6-0.8-0.2-1.5,0.5-2c1.2-0.7,2.3-0.7,3,0.6
		C249.6,196.6,249.5,197.6,248.2,197.9z"/>
	<path fill="#0E0F10" d="M223.6,201c-1.8,0.6-3.4,0.3-5,0.3c-0.6,0-0.8-0.5-0.7-1c0.1-0.6-0.3-1.2,0.3-1.7c0.3-0.2,0.8-0.1,0.8,0.3
		c-0.2,2.1,1.3,1.4,2.4,1.6C222,200.5,222.6,200.2,223.6,201z"/>
	<path fill="#33332F" d="M190.6,209.1c0.7,0.2,0.1,1.2,0.5,1.4c2.2,1.2-1.1,1.9-0.3,3c0.1,0.1-0.8,0.2-0.9-0.2c-0.1-1.3-0.1-2.7,0-4
		C189.9,209.1,190.2,209,190.6,209.1z"/>
	<path fill="#0B0A0A" d="M213.8,209.1c0.4,0,0.8,0,0.8,0.6c0,2.3,0,4.7,0,7c0,0.6-0.5,0.5-0.9,0.5
		C213.1,214.4,213,211.7,213.8,209.1z"/>
	<path fill="#C5C2C5" d="M161.6,209.1c0,2.7,0,5.4-0.1,8.1c-0.3-0.1-0.5-0.3-0.8-0.4c0-2.6-0.1-5.1-0.1-7.7
		C161,209.1,161.3,209.1,161.6,209.1z"/>
	<path fill="#A7A5A4" d="M248.2,197.9c0.7-0.5,1.2-1.2,0.6-2c-0.7-1-1.7-0.7-2.7-0.6c0-0.1,0-0.2,0-0.4c0.8-0.8,1.8-0.3,2.6-0.5
		c-0.4-0.1-1.1,0.1-0.9-0.8c0.6,0,1.3,0,1.9,0c0.1,1.4,0.1,2.7,0.2,4.1c-0.1,1.4-1.3,0.3-1.8,0.7C248.2,198.2,248.2,198,248.2,197.9
		z"/>
	<path fill="#BEBDB8" d="M213.8,209.1c0,2.7,0,5.4-0.1,8c-0.3-0.1-0.5-0.3-0.8-0.4c0-2.4,0-4.9-0.1-7.3
		C213.2,209.3,213.5,209.2,213.8,209.1z"/>
	<path fill="#181717" d="M275.4,198c1.5,0,3,0,4.5,0c1.1,0,0.7,0.8,0.7,1.3c0,0.7,0.4,1.5-0.4,2c-0.4,0.2-0.6-0.2-0.6-0.6
		c0.4-2.1-1.1-1.7-2.3-1.8C276.7,198.8,275.9,199.1,275.4,198z"/>
	<path fill="#0C0D0C" d="M220.5,195.7c1.2-0.3,2-0.5,1.8-1.9c-0.1-0.4,0.1-0.6,0.6-0.6c0.3,0,0.4,0.3,0.4,0.6c0,1.5,0,3.1,0,4.6
		c0,0.4-0.2,0.7-0.6,0.6c-0.4-0.1-0.4-0.4-0.4-0.8C222.2,197.1,222.5,195.7,220.5,195.7z"/>
	<path fill="#C5C5B9" d="M166.7,214.3c-1.9-0.2-0.6,1.4-1.2,2c-0.5-0.7-0.1-2-1.4-2.4c-0.3-0.1-0.3-0.7,0.3-0.9c0,0.1-0.1,0.2,0,0.2
		c0.9,1,4.3,0.9,5.3-0.1c0.2-1.3-0.6-2.8,0.5-4.1c0.5,2,0.5,4,0,6C169.1,214,167.9,214.3,166.7,214.3z"/>
	<path fill="#D4D9CB" d="M287.3,198.4c0.3-1.4-0.1-2.4-1.5-2.8c0.1-0.9,0.9-0.6,1.4-1c0.2-0.1,0.4-0.3,0.6-0.5c0-0.4,0-0.7,0.4-0.9
		c0,2.7,0.1,5.4,0.1,8C287.2,200.6,288.5,199.1,287.3,198.4z"/>
	<path fill="#151516" d="M202.6,217c-1.6,0.4-3.2,0.1-4.7,0.2c-0.4,0-0.8-0.1-0.8-0.6c0-0.7-0.2-1.4,0.2-1.9
		c0.2-0.2,0.7-0.1,0.7,0.1c0.1,2.4,1.9,1.3,3,1.6C201.5,216.4,202.1,216.1,202.6,217z"/>
	<path fill="#2F2F2E" d="M287.8,194.1c0,0.2,0,0.5,0,0.7c-1.4,0.4-2.9,0.4-4.3,0.2c-0.5-0.1-0.9-0.3-0.4-0.9
		c0.6-0.2,1.5,0.3,1.8-0.7c0.2-0.4,0.8-0.5,0.9-0.1C286.2,194.5,287.1,194,287.8,194.1z"/>
	<path fill="#0C0B14" d="M170.1,215.1c0-2,0-4,0-6c0.2,0.1,0.7,0.1,0.7,0.2c0.2,1.9,0.2,3.7,0,5.6
		C170.8,214.9,170.3,215,170.1,215.1z"/>
	<path fill="#070907" d="M280.4,193.2c0.3,0.7,0.3,1.8,1.4,2.2c0.2,0.1-0.4,0.3-0.6,0.5c-0.2,0.2-0.3,0.4-0.5,0.6
		c-0.2,0.4,0.3,1.3-0.5,1.2c-0.9-0.1-0.4-1-0.5-1.5c-0.1-0.8,0-1.6,0-2.4C279.7,193.4,279.8,193.2,280.4,193.2z"/>
	<path fill="#616161" d="M256.2,196.1c1,0,2,0,3,0c0.4,0.7,1.1,0.2,1.6,0.4c0.5,0.1,1,0.2,0.4,0.9c-0.1,0-0.2,0-0.3,0
		c-2.3-0.3-4.7,0.4-7-0.4C254.4,195.9,255.6,197,256.2,196.1z"/>
	<path fill="#A1A3A6" d="M173.6,200.6c-1.4,0-2.9,0-4.6,0c0.8-1.2,1.8-0.9,2.5-0.8c1.7,0.2,2.1-0.6,1.7-2.1
		C174.3,198.6,173.5,199.6,173.6,200.6z"/>
	<path fill="#222026" d="M248.6,215.4c-0.2,0.4-0.6,0.5-0.9,0.6c-0.4,0.4-0.7,0.8-1.2,1c-0.3,0.2-0.9-0.1-0.7-0.3
		c0.5-1,1-2.1,1.9-2.7C248.3,213.6,248.1,215,248.6,215.4z"/>
	<path fill="#090A0A" d="M247.8,193.6c0.1,0.8,1,0.2,1.3,0.8c-0.9,0.7-1.9,0.4-2.9,0.5c-0.3-0.1-0.7-0.2-0.8-0.4
		c-0.2-0.4,0.2-0.6,0.5-0.5C246.6,194.4,246.9,192.2,247.8,193.6z"/>
	<path fill="#A6A7A9" d="M260.3,200.5c-1.4,0-2.8,0-4.2,0c1.3-1.2,2.8-0.4,4.1-0.9C260.3,200,260.3,200.2,260.3,200.5z"/>
	<path fill="#B9B9B5" d="M209.6,214.2c0.3-0.6,0.6-1.1,1-1.7c0.2-0.4,0.5-0.6,1-0.5c0.4,0.1,0.5,0.4,0.5,0.7c0,0.5-0.3,0.7-0.7,0.7
		c-0.5,0-0.9,0.1-0.7,0.8C210.3,214.2,209.9,214.2,209.6,214.2z"/>
	<path fill="#616161" d="M260.2,197.7c-1.7,0-3.4,0-5.1,0c-0.4-0.1-0.9,0.1-1.1-0.4c2.4-0.3,4.7-0.2,7.1,0c0.1,0.1,0.1,0.1,0.2,0.2
		C260.9,197.5,260.5,197.6,260.2,197.7z"/>
	<path fill="#A8A8A7" d="M283.1,194.1c-0.2,0.7,0.2,0.8,0.8,0.8c1.3,0,2.7-0.1,4-0.1c-0.5,0.8-1.5,0.1-2,0.7c-0.4,0-0.9,0-1.3,0
		c-0.3-0.4-0.8-0.2-1.3-0.4C282.6,195,282.2,194.7,283.1,194.1z"/>
	<path fill="#040306" d="M261,197.2c-2.4,0-4.7,0-7.1,0c-0.1-0.1-0.1-0.2,0-0.3C256.3,197,258.7,196.5,261,197.2z"/>
	<path fill="#A2A3A8" d="M250.5,197.7c0.3-0.3-0.1-1,0.5-1.2c0.9,0.2-0.1,1.8,1.2,1.6c-0.1,0.3-0.2,0.5-0.3,0.8
		C251.4,198.5,250.4,198.7,250.5,197.7z"/>
	<path fill="#3C3C38" d="M263.7,215.2c0,0.4-0.2,0.8-0.7,0.7c-0.4,0-0.7-0.3-0.7-0.8c0-0.4,0.3-0.6,0.7-0.6
		C263.5,214.4,263.7,214.7,263.7,215.2z"/>
	<path fill="#BABABA" d="M230.3,78.9c-0.4,0.6-0.8,1.2-1.4,1.1c-0.6-0.1-1-0.7-0.9-1.4c0.1-0.4,0.2-1,0.8-0.9
		C229.4,77.9,230,78.2,230.3,78.9z"/>
	<path fill="#D9D9D9" d="M190.9,79.9c1,0.3,1.6,0.9,1.6,1.9c0,0.8-0.7,0.7-1.2,0.7c-0.8,0-1.5-0.3-1.4-1.3
		C190,80.6,190.2,80,190.9,79.9z"/>
	<path fill="#EAEEEF" d="M240,196.6c0,0.6-0.1,1.5-1.2,1.5c-0.9,0-1-1-1-1.7c0-0.8,0-1.8,1.1-1.9C240,194.5,240,195.5,240,196.6z"/>
	<path fill="#F0EFF0" d="M242.5,196.5c0,0.5-0.2,0.7-0.7,0.7c-0.7,0-0.7-0.5-0.7-1c0-0.6,0.4-0.6,0.8-0.6
		C242.5,195.6,242.5,196.1,242.5,196.5z"/>
	<path fill="#EEEEEA" d="M247.6,212.6c-0.7-0.1-1.1-0.6-1.1-1.3c0-0.7,0.4-1.2,1.1-1.1c0.7,0,1.1,0.5,1,1.2
		C248.7,212.1,248.3,212.5,247.6,212.6z"/>
	<path fill="#E6E4DF" d="M179.3,196.2c-0.2,0.8-0.1,1.9-1.1,2c-1.1,0.1-1.1-1-1.2-1.7c0-0.8,0.1-1.8,1.1-1.9
		C179.2,194.5,179.1,195.6,179.3,196.2z"/>
	<path fill="#E6E8E3" d="M188.3,216.4c-0.7,0-1.5,0-1.5-0.7c0-0.8,0.8-0.9,1.5-0.9c0.7,0,1.5,0,1.5,0.9
		C189.8,216.5,188.9,216.3,188.3,216.4z"/>
	<path fill="#D6D6D6" d="M249.5,200.5c-0.7,0-1.6,0-1.5-0.8c0-0.6,0.9-0.7,1.5-0.6c0.6,0,1.6-0.1,1.5,0.8
		C251,200.5,250.1,200.5,249.5,200.5z"/>
	<path fill="#E9E8E4" d="M285.4,198.5c-0.7,0-1.1-0.4-1.1-1.1c0-0.6,0.4-1,1-1c0.7-0.1,1.1,0.4,1.2,1.1
		C286.4,198,286.1,198.5,285.4,198.5z"/>
	<path fill="#D7D7D7" d="M257.7,194.1c0.6,0,1.5,0,1.4,0.7c-0.1,0.8-1,0.7-1.6,0.7c-0.6,0-1.4-0.1-1.4-0.7
		C256.2,194,257.1,194.2,257.7,194.1z"/>
	<path fill="#C9C9C8" d="M247.2,197.2c-0.4-0.1-0.7-0.3-0.7-0.8c0-0.5,0.4-0.7,0.8-0.6c0.5,0,0.9,0.3,0.8,0.8
		C248,197,247.6,197.2,247.2,197.2z"/>
</g>
</svg>
