<svg version="1.1" id="LOGO1" xmlns="http://www.w3.org/2000/svg" xmlns:xlink="http://www.w3.org/1999/xlink" x="0px" y="0px" viewBox="0 0 640 480">
<radialGradient id="SVGID_1_" cx="264.0528" cy="319.153" r="27.5629" gradientTransform="matrix(0.9402 0 0 0.8583 11.3548 -19.4178)" gradientUnits="userSpaceOnUse">
	<stop  offset="0" style="stop-color:#FFFFFF"/>
	<stop  offset="1" style="stop-color:#999999"/>
</radialGradient>
<path fill="url(#SVGID_1_)" d="M225.3,255.3c0,0-3.7-12.3,33.6-12.3s35.1,0,35.1,0v23h-68.5C225.5,266,225.8,255.8,225.3,255.3z"/>
<radialGradient id="SVGID_2_" cx="22.2592" cy="319.153" r="27.6385" gradientTransform="matrix(-0.9402 0 0 0.8583 444.4318 -19.4178)" gradientUnits="userSpaceOnUse">
	<stop  offset="0" style="stop-color:#FFFFFF"/>
	<stop  offset="1" style="stop-color:#999999"/>
</radialGradient>
<path fill="url(#SVGID_2_)" d="M457.9,255.3c0,0,3.7-12.3-33.6-12.3s-35.4,0-35.4,0v23h68.7C457.7,266,457.4,255.8,457.9,255.3z"/>
<radialGradient id="SVGID_3_" cx="351.0886" cy="153.3519" r="208.7461" gradientTransform="matrix(0.9402 0 0 0.8583 11.3548 -19.4178)" gradientUnits="userSpaceOnUse">
	<stop  offset="0" style="stop-color:#FF0000"/>
	<stop  offset="0.6589" style="stop-color:#FF2626"/>
	<stop  offset="0.8079" style="stop-color:#FF3131"/>
	<stop  offset="1" style="stop-color:#000000"/>
</radialGradient>
<path fill="url(#SVGID_3_)" d="M247.5,109c-7.2,0-14.5,3.7-14.5,10.4v175.4c0,6.6,0.4,12.2,0.2,12.4c-0.2,0.2,4.1,4.2,9.2,8.9
	l91.2,83.1c5.1,4.7,13.6,4.7,18.7,0l91.1-83.1c5.1-4.7,8.2-8.5,8.4-8.5s-0.9-5.4-0.9-12V119.4c0-6.6-3.3-10.4-10.5-10.4H247.5z"/>
<g>

		<radialGradient id="SVGID_4_" cx="351.5212" cy="410.2762" r="108.4342" gradientTransform="matrix(0.9402 0 0 0.8583 11.3548 -19.4178)" gradientUnits="userSpaceOnUse">
		<stop  offset="0" style="stop-color:#FFFFFF"/>
		<stop  offset="1" style="stop-color:#999999"/>
	</radialGradient>
	<path fill="url(#SVGID_4_)" stroke="#B3B3B3" stroke-miterlimit="10" d="M341.5,299.6c0-30.8-109-28.8-116-44.1v40
		c0,5.9-0.1,9.9-0.3,11.1c-0.4,1.6-0.2,3.8,1.9,6.2c0.5,0.6,1.2,1.3,2.2,2.3c1.8,1.8,4.1,4,6.7,6.3l91.1,83.1
		c3.8,3.5,8.9,5.4,14.3,5.4c5.4,0,10.5-1.9,14.3-5.4l91.1-83.1c4.7-4.3,7.9-7.1,8.8-7.8c1.5-0.9,2.9-2.6,3.2-5.7
		c0.1-0.7-0.6-1.7-0.5-2.9c0.1-2.3-0.6-5.4-0.6-8.7v-40.8C451.5,270.7,341.5,268.7,341.5,299.6z"/>
</g>
<g>
	<linearGradient id="SVGID_5_" gradientUnits="userSpaceOnUse" x1="341.6533" y1="112.3502" x2="342.1843" y2="79.4261">
		<stop  offset="0.1328" style="stop-color:#FFFFFF"/>
		<stop  offset="1" style="stop-color:#999999"/>
	</linearGradient>
	<path fill="url(#SVGID_5_)" d="M269.4,78c29,0,22.8,49.5,25.4,56.3c2.6,6.8,47.4,12.5,47.4,12.5s44.7-5.6,47.4-12.4
		c2.6-6.8-3.5-56.5,25.4-56.5H269.4z"/>
	<path fill="#FFFFFF" d="M269.4,78.1c2.5,0,4.9,0.4,7.3,1.2c2.3,0.9,4.4,2.2,6.2,3.9c1.8,1.7,3.3,3.7,4.5,5.9
		c1.2,2.2,2.2,4.4,2.9,6.8c0.7,2.4,1.4,4.7,1.8,7.2c0.5,2.4,0.8,4.9,1.1,7.3c0.6,4.9,0.8,9.8,1,14.7c0.1,2.5,0.2,4.9,0.5,7.3
		c0.1,0.6,0.2,1.2,0.4,1.7l0,0.1c0,0,0,0.1,0,0.1l0.1,0.2c0.1,0.1,0.1,0.2,0.2,0.3c0.2,0.2,0.4,0.4,0.6,0.6c0.9,0.8,2,1.3,3.1,1.8
		c2.2,1,4.6,1.7,6.9,2.4c2.4,0.7,4.7,1.3,7.1,1.8c4.8,1.1,9.6,2.2,14.5,3.1c4.8,0.8,9.7,1.4,14.6,2.4h-0.1c4.9-1,9.7-1.6,14.6-2.4
		c4.8-0.8,9.7-1.9,14.5-2.9c2.4-0.5,4.8-1.2,7.1-1.9c2.4-0.7,4.7-1.5,6.9-2.5c1.1-0.5,2.2-1.1,3.1-1.8c0.4-0.4,0.8-0.8,0.9-1.3
		c0.2-0.6,0.3-1.1,0.4-1.7c0.3-2.4,0.4-4.9,0.5-7.3c0.2-4.9,0.4-9.9,1-14.8c0.3-2.5,0.6-4.9,1.1-7.3c0.4-2.4,1.1-4.8,1.8-7.2
		c0.7-2.4,1.7-4.7,2.9-6.9c1.2-2.2,2.7-4.3,4.5-6c1.8-1.7,4-3.1,6.3-4c2.4-0.8,5.4-1.2,7.4-1.2v0.8l-72.8-0.1l-36.4-0.1L269.4,78.1z
		 M269.4,78.1l36.4-0.2l36.4-0.1l72.8-0.1v0.8c-2,0.1-4.8,0.4-7.1,1.2c-2.2,0.9-4.3,2.2-6,3.9c-1.7,1.7-3.2,3.6-4.3,5.8
		c-1.1,2.1-2.1,4.4-2.8,6.7c-0.7,2.3-1.3,4.7-1.8,7.1c-0.4,2.4-0.8,4.8-1.1,7.3c-0.6,4.9-0.8,9.8-1,14.7c-0.1,2.5-0.2,4.9-0.5,7.4
		c-0.1,0.6-0.2,1.3-0.4,1.9c-0.2,0.7-0.7,1.3-1.2,1.7c-1,0.8-2.1,1.4-3.3,1.9c-2.3,1-4.7,1.8-7,2.4c-2.4,0.7-4.8,1.3-7.2,1.8
		c-4.8,1.1-9.7,2-14.5,2.8c-4.9,0.8-9.7,1.5-14.6,2.1l0,0l0,0c-4.9-0.7-9.7-1.4-14.6-2.2c-4.9-0.8-9.7-1.8-14.5-2.9
		c-2.4-0.6-4.8-1.2-7.2-1.8c-2.4-0.7-4.7-1.5-7-2.5c-1.1-0.5-2.2-1.1-3.2-1.9c-0.2-0.2-0.5-0.4-0.7-0.7c-0.1-0.1-0.2-0.3-0.3-0.4
		l-0.1-0.2c0,0,0,0-0.1-0.1l0-0.1c-0.2-0.6-0.3-1.2-0.4-1.9c-0.3-2.5-0.4-4.9-0.5-7.4c-0.2-4.9-0.4-9.8-0.9-14.7
		c-0.2-2.4-0.6-4.9-1-7.3c-0.4-2.4-1-4.8-1.7-7.1c-0.7-2.3-1.7-4.6-2.8-6.8c-1.1-2.2-2.6-4.2-4.4-5.9c-1.8-1.7-3.9-3.1-6.1-3.9
		C274.3,78.5,271.8,78.2,269.4,78.1z"/>
</g>
<linearGradient id="SVGID_6_" gradientUnits="userSpaceOnUse" x1="255.3477" y1="92.3817" x2="293.0818" y2="92.3817">
	<stop  offset="0.1328" style="stop-color:#FFFFFF"/>
	<stop  offset="0.9874" style="stop-color:#9A9A9A"/>
	<stop  offset="1" style="stop-color:#666666"/>
</linearGradient>
<path fill="url(#SVGID_6_)" d="M255.3,108c0,0,0.9-31.2,14-31.2s24,12.2,23.7,31.2H255.3z"/>
<linearGradient id="SVGID_7_" gradientUnits="userSpaceOnUse" x1="410.2071" y1="112.8056" x2="410.2071" y2="78.3586">
	<stop  offset="0.1328" style="stop-color:#FFFFFF"/>
	<stop  offset="1" style="stop-color:#666666"/>
</linearGradient>
<path fill="url(#SVGID_7_)" d="M429.1,108c0,0-0.9-31.2-14-31.2c-13.2,0-24,12.2-23.7,31.2H429.1z"/>
<linearGradient id="SVGID_8_" gradientUnits="userSpaceOnUse" x1="274.2148" y1="111.9968" x2="274.2148" y2="77.5498">
	<stop  offset="0" style="stop-color:#FFFFFF"/>
	<stop  offset="0.1592" style="stop-color:#EDEDED"/>
	<stop  offset="0.4788" style="stop-color:#BEBEBE"/>
	<stop  offset="0.9257" style="stop-color:#737373"/>
	<stop  offset="1" style="stop-color:#666666"/>
</linearGradient>
<path fill="url(#SVGID_8_)" d="M255.3,108c0,0,0.9-31.2,14-31.2s24,12.2,23.7,31.2H255.3z"/>
<linearGradient id="SVGID_9_" gradientUnits="userSpaceOnUse" x1="410.2071" y1="112.8056" x2="410.2071" y2="78.3586">
	<stop  offset="0" style="stop-color:#FFFFFF"/>
	<stop  offset="0.1592" style="stop-color:#EDEDED"/>
	<stop  offset="0.4788" style="stop-color:#BEBEBE"/>
	<stop  offset="0.9257" style="stop-color:#737373"/>
	<stop  offset="1" style="stop-color:#666666"/>
</linearGradient>
<path fill="url(#SVGID_9_)" d="M429.1,108c0,0-0.9-31.2-14-31.2c-13.2,0-24,12.2-23.7,31.2H429.1z"/>
<rect x="277.3" y="175.4" fill="none" width="156.2" height="27.2"/>
<text transform="matrix(1.0954 0 0 1 277.2817 194.648)" fill="#F2F2F2" font-family="'Bauhaus93'" font-size="28.8338">URIMIUM</text>
</svg>
