<?xml version="1.0" encoding="utf-8"?>
<!-- Generator: Adobe Illustrator 18.1.0, SVG Export Plug-In . SVG Version: 6.00 Build 0)  -->
<svg version="1.1" id="logo-ur" xmlns="http://www.w3.org/2000/svg" xmlns:xlink="http://www.w3.org/1999/xlink" x="0px" y="0px"
	 viewBox="0 0 960 560" enable-background="new 0 0 960 560" xml:space="preserve">
<ellipse id="backLogo" fill="#F7931E" cx="486" cy="297" rx="406" ry="179"/>
<g id="logo-r">
	<path fill="#C1272D" stroke="#000000" stroke-width="10" stroke-miterlimit="10" d="M674.3,81.8c-67.4-53.9-123.9,2.7-151.1,44
		c-45.4,68.9-97.2,305.4-35.5,236.9c105.9-117.7,39.4,84.4,164.2,17.7c62.4-33.3-126.1-0.3,69.5-144
		C756.2,210.9,735.9,131,674.3,81.8z M600.1,120.8c6.2,0,11.2,5,11.2,11.2c0,6.2-5,11.2-11.2,11.2s-11.2-5-11.2-11.2
		C588.9,125.8,593.9,120.8,600.1,120.8z M564,120.8c4.7,0,8.5,3.8,8.5,8.5c0,4.7-3.8,8.5-8.5,8.5c-4.7,0-8.5-3.8-8.5-8.5
		C555.5,124.6,559.3,120.8,564,120.8z M639.6,241c-8.7,11.6-76.4,15.5-84.1,5c-11.8-16.1,8.6-84.7,56.5-92.9
		C671.8,142.8,693.1,169.8,639.6,241z"/>
</g>
<g id="logo-u">
	<path fill="#FFFF00" stroke="#000000" stroke-width="10" stroke-miterlimit="10" d="M316.1,88.3c-8.2,133.3,73,295-125.5,147.5
		c-65.4-48.6,56.2,147.5,125.5,147.5s125.5-66,125.5-147.5S320.1,23.1,316.1,88.3z M340.3,152.6c-6.2,0-11.2-5-11.2-11.2
		c0-6.2,5-11.2,11.2-11.2s11.2,5,11.2,11.2C351.5,147.6,346.5,152.6,340.3,152.6z M375.3,149.6c-6.2,0-11.2-5-11.2-11.2
		c0-6.2,5-11.2,11.2-11.2s11.2,5,11.2,11.2C386.5,144.6,381.5,149.6,375.3,149.6z"/>
</g>
<text transform="matrix(1.1589 0 0 1 276.2669 429.7375)" font-family="'Ebrima-Bold'" font-size="27.0066">Urimium Think New Way</text>
</svg>
